<svg width="30" height="24" viewBox="0 0 30 24" fill="none" xmlns="http://www.w3.org/2000/svg">
<path d="M15.2001 12.2934C15.9115 11.6775 16.4822 10.9159 16.8733 10.0601C17.2644 9.20424 17.4668 8.2743 17.4668 7.33335C17.4668 5.56524 16.7644 3.86955 15.5141 2.61931C14.2639 1.36907 12.5682 0.666687 10.8001 0.666687C9.03198 0.666687 7.33629 1.36907 6.08604 2.61931C4.8358 3.86955 4.13342 5.56524 4.13342 7.33335C4.13341 8.2743 4.33583 9.20424 4.72692 10.0601C5.11802 10.9159 5.68865 11.6775 6.40009 12.2934C4.53361 13.1385 2.95004 14.5034 1.83873 16.2247C0.727416 17.9461 0.135385 19.9511 0.133423 22C0.133423 22.3536 0.273899 22.6928 0.523947 22.9428C0.773996 23.1929 1.11313 23.3334 1.46676 23.3334C1.82038 23.3334 2.15952 23.1929 2.40957 22.9428C2.65961 22.6928 2.80009 22.3536 2.80009 22C2.80009 19.8783 3.64294 17.8435 5.14324 16.3432C6.64353 14.8429 8.67836 14 10.8001 14C12.9218 14 14.9567 14.8429 16.4569 16.3432C17.9572 17.8435 18.8001 19.8783 18.8001 22C18.8001 22.3536 18.9406 22.6928 19.1906 22.9428C19.4407 23.1929 19.7798 23.3334 20.1334 23.3334C20.487 23.3334 20.8262 23.1929 21.0762 22.9428C21.3263 22.6928 21.4668 22.3536 21.4668 22C21.4648 19.9511 20.8728 17.9461 19.7614 16.2247C18.6501 14.5034 17.0666 13.1385 15.2001 12.2934ZM10.8001 11.3334C10.009 11.3334 9.23561 11.0988 8.57781 10.6592C7.92001 10.2197 7.40732 9.59499 7.10457 8.86409C6.80182 8.13318 6.72261 7.32892 6.87695 6.55299C7.03129 5.77707 7.41225 5.06434 7.97166 4.50493C8.53107 3.94552 9.2438 3.56455 10.0197 3.41021C10.7957 3.25587 11.5999 3.33509 12.3308 3.63784C13.0617 3.94059 13.6864 4.45328 14.126 5.11107C14.5655 5.76887 14.8001 6.54223 14.8001 7.33335C14.8001 8.39422 14.3787 9.41164 13.6285 10.1618C12.8784 10.9119 11.861 11.3334 10.8001 11.3334ZM23.7868 11.76C24.64 10.7991 25.1974 9.61209 25.3918 8.34181C25.5862 7.07152 25.4093 5.77212 24.8824 4.60002C24.3556 3.42792 23.5011 2.43308 22.4221 1.73525C21.343 1.03742 20.0852 0.666344 18.8001 0.666687C18.4465 0.666687 18.1073 0.807163 17.8573 1.05721C17.6072 1.30726 17.4668 1.6464 17.4668 2.00002C17.4668 2.35364 17.6072 2.69278 17.8573 2.94283C18.1073 3.19288 18.4465 3.33335 18.8001 3.33335C19.861 3.33335 20.8784 3.75478 21.6285 4.50493C22.3787 5.25507 22.8001 6.27249 22.8001 7.33335C22.7982 8.03367 22.6125 8.72122 22.2615 9.32725C21.9105 9.93327 21.4066 10.4365 20.8001 10.7867C20.6024 10.9007 20.4373 11.0636 20.3206 11.2597C20.2038 11.4558 20.1394 11.6786 20.1334 11.9067C20.1278 12.133 20.18 12.3571 20.285 12.5577C20.3899 12.7583 20.5443 12.9289 20.7334 13.0534L21.2534 13.4L21.4268 13.4934C23.034 14.2556 24.3898 15.4613 25.3347 16.9684C26.2796 18.4755 26.7742 20.2213 26.7601 22C26.7601 22.3536 26.9006 22.6928 27.1506 22.9428C27.4007 23.1929 27.7398 23.3334 28.0934 23.3334C28.447 23.3334 28.7862 23.1929 29.0362 22.9428C29.2863 22.6928 29.4268 22.3536 29.4268 22C29.4377 19.9539 28.9252 17.939 27.938 16.1468C26.9509 14.3545 25.5219 12.8444 23.7868 11.76Z" fill="#FAFAFA"/>
</svg>
