<svg width="25" height="28" viewBox="0 0 25 28" fill="none" xmlns="http://www.w3.org/2000/svg">
<path d="M23.0667 8.66668L15.0667 1.65334C14.3333 0.997402 13.3839 0.634766 12.4 0.634766C11.4161 0.634766 10.4667 0.997402 9.73336 1.65334L1.73336 8.66668C1.30985 9.04544 0.971895 9.51008 0.741991 10.0297C0.512087 10.5493 0.395512 11.1119 0.400029 11.68V23.3333C0.400029 24.3942 0.821456 25.4116 1.5716 26.1618C2.32175 26.9119 3.33916 27.3333 4.40003 27.3333H20.4C21.4609 27.3333 22.4783 26.9119 23.2285 26.1618C23.9786 25.4116 24.4 24.3942 24.4 23.3333V11.6667C24.4027 11.1008 24.2852 10.5407 24.0553 10.0236C23.8255 9.50644 23.4885 9.04395 23.0667 8.66668ZM15.0667 24.6667H9.73336V18C9.73336 17.6464 9.87384 17.3072 10.1239 17.0572C10.3739 16.8072 10.7131 16.6667 11.0667 16.6667H13.7334C14.087 16.6667 14.4261 16.8072 14.6762 17.0572C14.9262 17.3072 15.0667 17.6464 15.0667 18V24.6667ZM21.7334 23.3333C21.7334 23.687 21.5929 24.0261 21.3428 24.2762C21.0928 24.5262 20.7536 24.6667 20.4 24.6667H17.7334V18C17.7334 16.9391 17.3119 15.9217 16.5618 15.1716C15.8116 14.4214 14.7942 14 13.7334 14H11.0667C10.0058 14 8.98841 14.4214 8.23827 15.1716C7.48812 15.9217 7.0667 16.9391 7.0667 18V24.6667H4.40003C4.04641 24.6667 3.70727 24.5262 3.45722 24.2762C3.20717 24.0261 3.0667 23.687 3.0667 23.3333V11.6667C3.06694 11.4774 3.10749 11.2903 3.18565 11.1178C3.26382 10.9454 3.3778 10.7916 3.52003 10.6667L11.52 3.66668C11.7633 3.45292 12.0761 3.33503 12.4 3.33503C12.7239 3.33503 13.0367 3.45292 13.28 3.66668L21.28 10.6667C21.4223 10.7916 21.5362 10.9454 21.6144 11.1178C21.6926 11.2903 21.7331 11.4774 21.7334 11.6667V23.3333Z" fill="#FAFAFA"/>
</svg>
