<svg width="20" height="26" viewBox="0 0 20 26" fill="none" xmlns="http://www.w3.org/2000/svg">
<path fill-rule="evenodd" clip-rule="evenodd" d="M8.57314 2.00002L17.8005 2.32225L17.0875 22.7399L7.86014 22.4177L8.57314 2.00002ZM6.86229 0.963468C7.2257 0.364893 7.89333 -0.0249348 8.64294 0.00124189L17.8703 0.323468C18.9742 0.362017 19.8378 1.28815 19.7993 2.39205L19.0863 22.8097C19.0477 23.9136 18.1216 24.7772 17.0177 24.7387L7.79034 24.4164C6.68644 24.3779 5.82281 23.4518 5.86136 22.3479L6.53518 3.052L2.00046 3.85159L5.5481 23.9713L6.42997 23.8158C6.77676 24.1707 7.25533 24.3978 7.79034 24.4165L13.4249 24.6133L5.8954 25.9409C4.80761 26.1327 3.7703 25.4064 3.57849 24.3186L0.0308409 4.19889C-0.160966 3.1111 0.565372 2.07379 1.65316 1.88198L6.86229 0.963468Z" fill="#FAFAFA"/>
</svg>
