<svg width="27" height="28" viewBox="0 0 27 28" fill="none" xmlns="http://www.w3.org/2000/svg">
<path d="M13.5999 16.6667C13.8636 16.6667 14.1214 16.5885 14.3407 16.442C14.56 16.2955 14.7309 16.0872 14.8318 15.8436C14.9327 15.6 14.9591 15.3319 14.9076 15.0732C14.8562 14.8146 14.7292 14.577 14.5427 14.3905C14.3563 14.2041 14.1187 14.0771 13.8601 14.0256C13.6014 13.9742 13.3333 14.0006 13.0897 14.1015C12.8461 14.2024 12.6378 14.3733 12.4913 14.5926C12.3448 14.8119 12.2666 15.0696 12.2666 15.3334C12.2666 15.687 12.4071 16.0261 12.6571 16.2762C12.9072 16.5262 13.2463 16.6667 13.5999 16.6667ZM20.2666 16.6667C20.5303 16.6667 20.7881 16.5885 21.0074 16.442C21.2266 16.2955 21.3975 16.0872 21.4984 15.8436C21.5994 15.6 21.6258 15.3319 21.5743 15.0732C21.5229 14.8146 21.3959 14.577 21.2094 14.3905C21.0229 14.2041 20.7854 14.0771 20.5267 14.0256C20.2681 13.9742 20 14.0006 19.7564 14.1015C19.5127 14.2024 19.3045 14.3733 19.158 14.5926C19.0115 14.8119 18.9333 15.0696 18.9333 15.3334C18.9333 15.687 19.0737 16.0261 19.3238 16.2762C19.5738 16.5262 19.913 16.6667 20.2666 16.6667ZM13.5999 22C13.8636 22 14.1214 21.9218 14.3407 21.7753C14.56 21.6288 14.7309 21.4206 14.8318 21.1769C14.9327 20.9333 14.9591 20.6652 14.9076 20.4066C14.8562 20.1479 14.7292 19.9103 14.5427 19.7239C14.3563 19.5374 14.1187 19.4104 13.8601 19.359C13.6014 19.3075 13.3333 19.3339 13.0897 19.4349C12.8461 19.5358 12.6378 19.7067 12.4913 19.9259C12.3448 20.1452 12.2666 20.403 12.2666 20.6667C12.2666 21.0203 12.4071 21.3595 12.6571 21.6095C12.9072 21.8595 13.2463 22 13.5999 22ZM20.2666 22C20.5303 22 20.7881 21.9218 21.0074 21.7753C21.2266 21.6288 21.3975 21.4206 21.4984 21.1769C21.5994 20.9333 21.6258 20.6652 21.5743 20.4066C21.5229 20.1479 21.3959 19.9103 21.2094 19.7239C21.0229 19.5374 20.7854 19.4104 20.5267 19.359C20.2681 19.3075 20 19.3339 19.7564 19.4349C19.5127 19.5358 19.3045 19.7067 19.158 19.9259C19.0115 20.1452 18.9333 20.403 18.9333 20.6667C18.9333 21.0203 19.0737 21.3595 19.3238 21.6095C19.5738 21.8595 19.913 22 20.2666 22ZM6.93327 16.6667C7.19698 16.6667 7.45476 16.5885 7.67403 16.442C7.89329 16.2955 8.06419 16.0872 8.16511 15.8436C8.26603 15.6 8.29243 15.3319 8.24098 15.0732C8.18954 14.8146 8.06255 14.577 7.87608 14.3905C7.68961 14.2041 7.45203 14.0771 7.19339 14.0256C6.93475 13.9742 6.66666 14.0006 6.42302 14.1015C6.17939 14.2024 5.97115 14.3733 5.82464 14.5926C5.67813 14.8119 5.59994 15.0696 5.59994 15.3334C5.59994 15.687 5.74041 16.0261 5.99046 16.2762C6.24051 16.5262 6.57965 16.6667 6.93327 16.6667ZM22.9333 3.33335H21.5999V2.00002C21.5999 1.6464 21.4595 1.30726 21.2094 1.05721C20.9594 0.807163 20.6202 0.666687 20.2666 0.666687C19.913 0.666687 19.5738 0.807163 19.3238 1.05721C19.0737 1.30726 18.9333 1.6464 18.9333 2.00002V3.33335H8.2666V2.00002C8.2666 1.6464 8.12613 1.30726 7.87608 1.05721C7.62603 0.807163 7.28689 0.666687 6.93327 0.666687C6.57965 0.666687 6.24051 0.807163 5.99046 1.05721C5.74041 1.30726 5.59994 1.6464 5.59994 2.00002V3.33335H4.2666C3.20574 3.33335 2.18832 3.75478 1.43817 4.50493C0.688029 5.25507 0.266602 6.27249 0.266602 7.33335V23.3334C0.266602 24.3942 0.688029 25.4116 1.43817 26.1618C2.18832 26.9119 3.20574 27.3334 4.2666 27.3334H22.9333C23.9941 27.3334 25.0116 26.9119 25.7617 26.1618C26.5118 25.4116 26.9333 24.3942 26.9333 23.3334V7.33335C26.9333 6.27249 26.5118 5.25507 25.7617 4.50493C25.0116 3.75478 23.9941 3.33335 22.9333 3.33335ZM24.2666 23.3334C24.2666 23.687 24.1261 24.0261 23.8761 24.2762C23.626 24.5262 23.2869 24.6667 22.9333 24.6667H4.2666C3.91298 24.6667 3.57384 24.5262 3.32379 24.2762C3.07374 24.0261 2.93327 23.687 2.93327 23.3334V11.3334H24.2666V23.3334ZM24.2666 8.66669H2.93327V7.33335C2.93327 6.97973 3.07374 6.64059 3.32379 6.39055C3.57384 6.1405 3.91298 6.00002 4.2666 6.00002H22.9333C23.2869 6.00002 23.626 6.1405 23.8761 6.39055C24.1261 6.64059 24.2666 6.97973 24.2666 7.33335V8.66669ZM6.93327 22C7.19698 22 7.45476 21.9218 7.67403 21.7753C7.89329 21.6288 8.06419 21.4206 8.16511 21.1769C8.26603 20.9333 8.29243 20.6652 8.24098 20.4066C8.18954 20.1479 8.06255 19.9103 7.87608 19.7239C7.68961 19.5374 7.45203 19.4104 7.19339 19.359C6.93475 19.3075 6.66666 19.3339 6.42302 19.4349C6.17939 19.5358 5.97115 19.7067 5.82464 19.9259C5.67813 20.1452 5.59994 20.403 5.59994 20.6667C5.59994 21.0203 5.74041 21.3595 5.99046 21.6095C6.24051 21.8595 6.57965 22 6.93327 22Z" fill="#FAFAFA"/>
</svg>
