<svg width="26" height="18" viewBox="0 0 26 18" fill="none" xmlns="http://www.w3.org/2000/svg">
<path fill-rule="evenodd" clip-rule="evenodd" d="M0.989746 2.80388C0.989746 1.69931 1.88518 0.803879 2.98975 0.803879H23.0105C24.115 0.803879 25.0105 1.69931 25.0105 2.80388C25.0105 3.90845 24.115 4.80388 23.0105 4.80388H2.98975C1.88518 4.80388 0.989746 3.90845 0.989746 2.80388ZM0.989746 9.00061C0.989746 7.89604 1.88518 7.00061 2.98975 7.00061H23.0105C24.115 7.00061 25.0105 7.89604 25.0105 9.00061C25.0105 10.1052 24.115 11.0006 23.0105 11.0006H2.98975C1.88518 11.0006 0.989746 10.1052 0.989746 9.00061ZM2.98975 13.1961C1.88518 13.1961 0.989746 14.0915 0.989746 15.1961C0.989746 16.3007 1.88518 17.1961 2.98975 17.1961H23.0105C24.115 17.1961 25.0105 16.3007 25.0105 15.1961C25.0105 14.0915 24.115 13.1961 23.0105 13.1961H2.98975Z" fill="#FAFAFA"/>
</svg>
