<svg width="206" height="20" viewBox="0 0 206 20" fill="none" xmlns="http://www.w3.org/2000/svg">
<g clip-path="url(#clip0)">
<path d="M213.853 -16.6667H-6.64526V36.6667H213.853V-16.6667Z" fill="#0625BA"/>
<path d="M6.60867 19.1619L8.18546 16.4877V1.09726H6.21705L2.61443 5.57004H2.46973V0.329239H19.1047V5.57004H18.9738L15.3735 1.09726H13.3764V16.4877L14.9532 19.1619V19.3736H6.60867V19.1619Z" fill="white"/>
<path d="M32.0879 19.1619L33.6647 16.4877V10.0428H27.0417V16.4877L28.6185 19.1619V19.3736H20.2751V19.1619L21.8519 16.4877V3.21394L20.2751 0.540907V0.329239H28.6185V0.540907L27.0417 3.21394V9.26208H33.6647V3.21394L32.0879 0.540907V0.329239H40.4324V0.540907L38.8556 3.21394V16.4877L40.4324 19.1619V19.3736H32.0879V19.1619Z" fill="white"/>
<path d="M43.3759 3.21394L41.7991 0.540907V0.329239H56.7482V5.7285H56.6035L52.9365 1.10998H48.561V9.18343H51.1496L53.7427 6.92911H54.0057V12.54H53.7427L51.1542 9.95954H48.5656V18.5882H53.6187L57.9425 13.9685H58.0574L57.4372 19.3736H41.7991V19.1619L43.3759 16.475V3.21394Z" fill="white"/>
<path d="M73.4533 19.3736L68.027 3.16188L66.0034 0.540907V0.329239H75.3195V0.540907L73.6772 3.22781H73.6634L76.817 14.0136L79.3539 6.81344L78.109 3.1214L76.5449 0.540907V0.329239H85.8747V0.540907L83.8075 3.22781H83.7811L87.053 13.8147L90.6395 3.21394H90.5878L88.314 0.540907V0.329239H93.7678V0.540907L91.4813 3.16188L85.9631 19.3736H83.6215L79.7455 7.97819L75.6973 19.3736H73.4533Z" fill="white"/>
<path d="M92.6939 9.82068C92.6773 8.44835 92.9205 7.08541 93.4105 5.80478C93.8589 4.63677 94.5433 3.57529 95.4203 2.68759C96.3012 1.81118 97.3499 1.12446 98.5027 0.669232C101.033 -0.291528 103.823 -0.291528 106.353 0.669232C107.51 1.12432 108.562 1.81096 109.447 2.68759C110.33 3.57508 111.021 4.63622 111.478 5.80478C111.976 7.08332 112.224 8.44715 112.207 9.82068C112.223 11.1983 111.977 12.5664 111.485 13.8516C111.031 15.0283 110.345 16.0999 109.468 17.0012C108.59 17.8881 107.541 18.5842 106.386 19.0462C105.139 19.5413 103.81 19.7884 102.471 19.7737C101.556 19.7788 100.645 19.67 99.7568 19.4498C98.9286 19.2431 98.1311 18.9269 97.3853 18.5095C95.9398 17.6994 94.7513 16.494 93.9572 15.0326C93.5436 14.2716 93.2297 13.4598 93.0235 12.6175C92.7989 11.7026 92.6881 10.7631 92.6939 9.82068ZM93.4691 9.82068C93.4519 10.5198 93.6638 11.2051 94.072 11.7708C94.4747 12.3167 95.0597 12.769 95.8268 13.1276C96.7235 13.5215 97.67 13.7885 98.6393 13.921C99.8943 14.1035 101.161 14.1897 102.429 14.179C103.706 14.1902 104.982 14.1039 106.245 13.921C107.218 13.7885 108.169 13.5235 109.071 13.1333C109.841 12.7809 110.428 12.3291 110.832 11.7777C111.24 11.2102 111.452 10.5242 111.436 9.82415C111.454 9.12941 111.239 8.44891 110.825 7.89254C110.418 7.35277 109.831 6.90938 109.065 6.56239C108.298 6.21539 107.357 5.95746 106.24 5.78859C104.979 5.61237 103.707 5.52964 102.434 5.54106C101.166 5.53091 99.8993 5.61519 98.6439 5.79321C97.5346 5.95977 96.5971 6.22002 95.8314 6.57395C95.0658 6.92789 94.4793 7.37205 94.072 7.90642C93.6669 8.45988 93.4561 9.13329 93.4726 9.82068H93.4691Z" fill="white"/>
<path d="M115.595 16.2367L117.394 19.1896V19.3759H113.111V19.1896L114.82 16.239V3.21393L113.125 0.540907V0.329239H118.722L128.117 13.2456V3.46608L126.318 0.514303V0.329239H130.719V0.514303L128.905 3.46608V19.3736L127.106 20.0479L115.595 4.15314V16.2367Z" fill="white"/>
<path d="M133.478 3.20135L131.915 0.541044V0.329375H140.14C141.685 0.31247 143.226 0.507025 144.719 0.907703C146.001 1.24582 147.202 1.84234 148.248 2.66119C149.232 3.45049 150.012 4.4675 150.522 5.6257C151.058 6.81705 151.326 8.21969 151.326 9.83361C151.326 11.4475 151.063 12.8525 150.538 14.0485C150.035 15.2104 149.26 16.2317 148.278 17.0245C147.3 17.8149 146.12 18.4037 144.736 18.7907C143.223 19.1944 141.663 19.3889 140.098 19.3691H131.898V19.1574L133.475 16.4705L133.478 3.20135ZM138.669 18.593H140.392C141.425 18.593 142.286 18.4183 142.975 18.069C143.668 17.7155 144.242 17.1629 144.624 16.4809C145.036 15.7723 145.329 14.8793 145.505 13.8021C145.692 12.545 145.78 11.2748 145.768 10.0036C145.783 8.67247 145.688 7.34234 145.484 6.02706C145.296 4.91127 144.989 3.98942 144.565 3.26149C144.178 2.57114 143.601 2.00863 142.903 1.64218C142.22 1.28901 141.383 1.11243 140.393 1.11243H138.67L138.669 18.593Z" fill="white"/>
<path d="M153.727 3.21393L152.15 0.540907V0.329239H167.104V5.7285H166.959L163.294 1.10998H158.918V9.18343H161.507L164.095 6.92911H164.356V12.54H164.093L161.504 9.95954H158.916V18.5882H163.969L168.293 13.9685H168.408L167.777 19.3689H152.15V19.1573L153.727 16.4703V3.21393Z" fill="white"/>
<path d="M169.524 19.1618L171.101 16.4876V3.21384L169.524 0.54081V0.329142H178.853C180.01 0.312002 181.166 0.428426 182.298 0.676138C183.283 0.907469 184.104 1.24059 184.761 1.67549C185.375 2.06153 185.885 2.59485 186.244 3.22772C186.574 3.83606 186.743 4.5194 186.737 5.21253C186.737 6.08619 186.557 6.83185 186.198 7.4495C185.842 8.06318 185.358 8.59132 184.779 8.99711C184.159 9.4284 183.475 9.75898 182.754 9.97679C181.99 10.2156 181.208 10.3882 180.416 10.4927C180.839 10.6483 181.274 10.7701 181.717 10.857C182.181 10.9495 182.717 11.0355 183.325 11.1149L186.833 16.8982L189.118 19.1745V19.3734H182.042L177.981 10.665H177.333L177.11 9.96407L177.754 9.95019C178.323 9.93386 178.881 9.7917 179.39 9.53379C179.828 9.30293 180.204 8.96928 180.487 8.56105C180.78 8.12833 180.987 7.64298 181.098 7.13142C181.23 6.53655 181.294 5.92845 181.288 5.31895C181.296 4.7258 181.227 4.13418 181.085 3.55852C180.966 3.07018 180.734 2.61693 180.409 2.23531C180.066 1.8558 179.635 1.56904 179.154 1.40136C178.534 1.19143 177.882 1.09277 177.229 1.10988H176.295V16.4934L177.872 19.1676V19.3792H169.524V19.1618Z" fill="white"/>
<path d="M190.599 5.45093C190.599 4.51636 190.79 3.7067 191.173 3.02196C191.559 2.33755 192.104 1.75827 192.762 1.3344C193.495 0.868826 194.302 0.534983 195.148 0.347776C196.124 0.12495 197.122 0.0162775 198.123 0.0239127H198.151C198.629 0.0244535 199.108 0.0530314 199.583 0.109504C200.064 0.167337 200.529 0.242521 200.976 0.335053C201.423 0.427585 201.844 0.531683 202.239 0.646191C202.634 0.7607 202.995 0.877522 203.31 0.993188L203.678 5.83726H203.493C203.362 5.57277 203.163 5.21999 202.896 4.77892C202.606 4.30521 202.288 3.84979 201.943 3.41522C201.57 2.93949 201.166 2.4904 200.731 2.07119C200.317 1.66757 199.848 1.3263 199.337 1.05796C198.994 0.936373 198.636 0.860924 198.274 0.83357C197.958 0.816606 197.66 0.807739 197.38 0.806968C197.008 0.80088 196.638 0.872964 196.295 1.01863C195.985 1.15337 195.706 1.35014 195.475 1.59696C195.245 1.84201 195.064 2.12949 194.942 2.44363C194.813 2.7751 194.748 3.12852 194.751 3.48462C194.75 3.94462 194.901 4.39201 195.179 4.75694C195.486 5.16373 195.851 5.52268 196.263 5.82222C196.726 6.16569 197.216 6.47125 197.728 6.73598C198.264 7.0182 198.792 7.29155 199.312 7.55604C200.02 7.91769 200.701 8.29939 201.355 8.70113C201.983 9.08394 202.565 9.53926 203.089 10.0579C203.589 10.554 203.996 11.1366 204.291 11.7778C204.602 12.4857 204.755 13.2537 204.738 14.0275C204.738 15.0168 204.541 15.8685 204.147 16.5826C203.757 17.2919 203.203 17.8956 202.531 18.3418C201.788 18.8263 200.964 19.1718 200.1 19.362C199.104 19.5883 198.085 19.6989 197.064 19.6917C196.478 19.6917 195.9 19.6654 195.33 19.613C194.761 19.5606 194.22 19.4896 193.708 19.4002C193.195 19.3123 192.721 19.209 192.288 19.0902C191.902 18.9866 191.522 18.8603 191.151 18.712L190.796 13.6701H191.008C191.428 14.324 191.864 14.966 192.314 15.5959C192.739 16.1961 193.214 16.7584 193.734 17.2766C194.2 17.7459 194.731 18.1448 195.311 18.461C195.857 18.7589 196.469 18.9136 197.091 18.9109H197.458C197.929 18.9224 198.396 18.8276 198.825 18.6333C199.19 18.4635 199.517 18.2203 199.785 17.9185C200.034 17.6342 200.225 17.3038 200.349 16.9458C200.469 16.6082 200.531 16.2528 200.534 15.8944C200.537 15.4381 200.407 14.991 200.158 14.6093C199.885 14.1949 199.548 13.8264 199.16 13.5174C198.708 13.1543 198.227 12.8293 197.721 12.5458C197.178 12.2374 196.617 11.9243 196.039 11.6066C195.382 11.245 194.729 10.8656 194.081 10.4685C193.455 10.0879 192.87 9.64419 192.334 9.14413C191.829 8.67505 191.405 8.12516 191.079 7.51672C190.75 6.87943 190.585 6.16914 190.599 5.45093Z" fill="white"/>
</g>
<defs>
<clipPath id="clip0">
<rect width="206" height="20" fill="white"/>
</clipPath>
</defs>
</svg>
