<svg width="112" height="112" viewBox="0 0 112 112" fill="none" xmlns="http://www.w3.org/2000/svg">
<path d="M112 56C112 86.9279 86.9279 112 56 112C25.0721 112 0 86.9279 0 56C0 25.0721 25.0721 0 56 0C86.9279 0 112 25.0721 112 56ZM16.8 56C16.8 77.6496 34.3504 95.2 56 95.2C77.6496 95.2 95.2 77.6496 95.2 56C95.2 34.3504 77.6496 16.8 56 16.8C34.3504 16.8 16.8 34.3504 16.8 56Z" fill="#FF90C8" fill-opacity="0.1"/>
<path d="M103.6 56C108.239 56 112.064 59.7815 111.371 64.3686C110.542 69.8577 108.898 75.2085 106.481 80.2409C102.849 87.8056 97.5627 94.4573 91.0136 99.7041C84.4644 104.951 76.8198 108.659 68.6449 110.554C60.4699 112.449 51.9736 112.482 43.784 110.651C35.5944 108.821 27.9209 105.173 21.3307 99.9777C14.7406 94.7825 9.40229 88.1726 5.71046 80.6366C2.01862 73.1006 0.0676346 64.8313 0.00172716 56.4398C-0.042117 50.8575 0.749009 45.3161 2.33548 39.9963C3.66127 35.5505 8.73257 33.7576 12.9302 35.7329C17.1279 37.7082 18.8302 42.7121 17.7928 47.2338C17.1121 50.2003 16.7772 53.2453 16.8012 56.3079C16.8473 62.1819 18.213 67.9704 20.7973 73.2456C23.3816 78.5208 27.1184 83.1477 31.7315 86.7844C36.3446 90.4211 41.7161 92.9745 47.4488 94.2559C53.1815 95.5374 59.1289 95.514 64.8514 94.1876C70.5739 92.8612 75.9251 90.2657 80.5095 86.5929C85.0939 82.9201 88.7943 78.2639 91.337 72.9686C92.6628 70.2077 93.6562 67.3099 94.3034 64.3359C95.29 59.8028 98.9608 56 103.6 56Z" fill="#973FBD"/>
<path d="M44.36 59.6C44.44 60.36 44.48 60.98 44.48 61.46C44.48 62.12 44.45 62.75 44.39 63.35C44.31 64.89 43.76 66.09 42.74 66.95C41.74 67.81 40.39 68.24 38.69 68.24C37.09 68.24 35.8 67.84 34.82 67.04C33.84 66.24 33.25 65.05 33.05 63.47L32.96 62.63C32.96 62.39 33.08 62.27 33.32 62.27H36.83C37.07 62.27 37.2 62.39 37.22 62.63C37.22 62.75 37.24 62.91 37.28 63.11C37.46 64.11 37.93 64.61 38.69 64.61C39.09 64.61 39.41 64.48 39.65 64.22C39.91 63.94 40.08 63.56 40.16 63.08C40.22 62.56 40.25 62.01 40.25 61.43C40.25 61.01 40.21 60.5 40.13 59.9C40.05 59.44 39.88 59.09 39.62 58.85C39.38 58.61 39.07 58.49 38.69 58.49C37.93 58.49 37.44 58.84 37.22 59.54C37.16 59.76 37.03 59.87 36.83 59.87H33.29C33.19 59.87 33.1 59.84 33.02 59.78C32.96 59.7 32.93 59.61 32.93 59.51V47.36C32.93 47.26 32.96 47.18 33.02 47.12C33.1 47.04 33.19 47 33.29 47H43.88C43.98 47 44.06 47.04 44.12 47.12C44.2 47.18 44.24 47.26 44.24 47.36V50.27C44.24 50.37 44.2 50.46 44.12 50.54C44.06 50.6 43.98 50.63 43.88 50.63H37.31C37.21 50.63 37.16 50.68 37.16 50.78V55.82C37.16 55.88 37.18 55.92 37.22 55.94C37.26 55.96 37.3 55.94 37.34 55.88C37.68 55.54 38.08 55.28 38.54 55.1C39 54.92 39.49 54.83 40.01 54.83C41.29 54.83 42.31 55.25 43.07 56.09C43.85 56.93 44.28 58.1 44.36 59.6ZM47.9736 68C47.8536 68 47.7636 67.96 47.7036 67.88C47.6436 67.8 47.6336 67.7 47.6736 67.58L52.5636 50.81C52.6036 50.69 52.5636 50.63 52.4436 50.63H49.1436C49.0436 50.63 48.9936 50.68 48.9936 50.78V51.83C48.9936 51.93 48.9536 52.02 48.8736 52.1C48.8136 52.16 48.7336 52.19 48.6336 52.19H45.9336C45.8336 52.19 45.7436 52.16 45.6636 52.1C45.6036 52.02 45.5736 51.93 45.5736 51.83L45.6036 47.36C45.6036 47.26 45.6336 47.18 45.6936 47.12C45.7736 47.04 45.8636 47 45.9636 47H56.7336C56.8336 47 56.9136 47.04 56.9736 47.12C57.0536 47.18 57.0936 47.26 57.0936 47.36V50.42C57.0936 50.5 57.0736 50.64 57.0336 50.84L52.0836 67.7C52.0236 67.9 51.8936 68 51.6936 68H47.9736ZM63.4004 56.21C62.5604 56.21 61.7804 56 61.0604 55.58C60.3404 55.16 59.7704 54.59 59.3504 53.87C58.9304 53.13 58.7204 52.33 58.7204 51.47C58.7204 50.61 58.9304 49.82 59.3504 49.1C59.7704 48.38 60.3404 47.81 61.0604 47.39C61.7804 46.95 62.5604 46.73 63.4004 46.73C64.2404 46.73 65.0104 46.95 65.7104 47.39C66.4304 47.81 66.9904 48.38 67.3904 49.1C67.8104 49.82 68.0204 50.61 68.0204 51.47C68.0204 52.33 67.8104 53.13 67.3904 53.87C66.9904 54.59 66.4304 55.16 65.7104 55.58C65.0104 56 64.2404 56.21 63.4004 56.21ZM62.1404 68C62.0004 68 61.9104 67.96 61.8704 67.88C61.8304 67.8 61.8404 67.7 61.9004 67.58L72.8204 47.24C72.9004 47.08 73.0504 47 73.2704 47H75.5204C75.6604 47 75.7504 47.04 75.7904 47.12C75.8304 47.2 75.8204 47.3 75.7604 47.42L64.8404 67.76C64.7604 67.92 64.6104 68 64.3904 68H62.1404ZM63.4004 54.02C64.0804 54.02 64.6404 53.77 65.0804 53.27C65.5404 52.77 65.7704 52.17 65.7704 51.47C65.7704 50.77 65.5404 50.18 65.0804 49.7C64.6204 49.2 64.0604 48.95 63.4004 48.95C62.7204 48.95 62.1404 49.2 61.6604 49.7C61.2004 50.18 60.9704 50.77 60.9704 51.47C60.9704 52.19 61.2004 52.8 61.6604 53.3C62.1404 53.78 62.7204 54.02 63.4004 54.02ZM74.4104 68.27C73.5704 68.27 72.7904 68.06 72.0704 67.64C71.3704 67.2 70.8104 66.62 70.3904 65.9C69.9704 65.16 69.7604 64.36 69.7604 63.5C69.7604 62.64 69.9704 61.85 70.3904 61.13C70.8104 60.41 71.3704 59.84 72.0704 59.42C72.7904 59 73.5704 58.79 74.4104 58.79C75.2504 58.79 76.0204 59 76.7204 59.42C77.4404 59.84 78.0104 60.41 78.4304 61.13C78.8504 61.85 79.0604 62.64 79.0604 63.5C79.0604 64.36 78.8504 65.16 78.4304 65.9C78.0104 66.62 77.4404 67.2 76.7204 67.64C76.0204 68.06 75.2504 68.27 74.4104 68.27ZM74.4104 66.05C75.0904 66.05 75.6604 65.8 76.1204 65.3C76.5804 64.8 76.8104 64.2 76.8104 63.5C76.8104 62.8 76.5704 62.21 76.0904 61.73C75.6304 61.23 75.0704 60.98 74.4104 60.98C73.7304 60.98 73.1604 61.23 72.7004 61.73C72.2404 62.21 72.0104 62.8 72.0104 63.5C72.0104 64.22 72.2404 64.83 72.7004 65.33C73.1604 65.81 73.7304 66.05 74.4104 66.05Z" fill="#973FBD"/>
</svg>
