<svg width="32" height="33" viewBox="0 0 32 33" fill="none" xmlns="http://www.w3.org/2000/svg">
<circle cx="16" cy="16.2402" r="16" fill="#FAFAFA"/>
<path d="M23 9.24023H21V7.24023H11V9.24023H9C7.9 9.24023 7 10.1402 7 11.2402V12.2402C7 14.7902 8.92 16.8702 11.39 17.1802C12.02 18.6802 13.37 19.8102 15 20.1402V23.2402H11V25.2402H21V23.2402H17V20.1402C18.63 19.8102 19.98 18.6802 20.61 17.1802C23.08 16.8702 25 14.7902 25 12.2402V11.2402C25 10.1402 24.1 9.24023 23 9.24023ZM9 12.2402V11.2402H11V15.0602C9.84 14.6402 9 13.5402 9 12.2402ZM16 18.2402C14.35 18.2402 13 16.8902 13 15.2402V9.24023H19V15.2402C19 16.8902 17.65 18.2402 16 18.2402ZM23 12.2402C23 13.5402 22.16 14.6402 21 15.0602V11.2402H23V12.2402Z" fill="#FF4602"/>
</svg>
