<svg width="32" height="33" viewBox="0 0 32 33" fill="none" xmlns="http://www.w3.org/2000/svg">
<circle cx="16" cy="16.2402" r="16" fill="#FAFAFA"/>
<path d="M21.34 9.70023C21.1027 9.70023 20.8707 9.77061 20.6733 9.90247C20.476 10.0343 20.3222 10.2217 20.2313 10.441C20.1405 10.6603 20.1168 10.9016 20.1631 11.1343C20.2094 11.3671 20.3236 11.5809 20.4915 11.7488C20.6593 11.9166 20.8731 12.0309 21.1059 12.0772C21.3387 12.1235 21.5799 12.0997 21.7992 12.0089C22.0185 11.9181 22.2059 11.7643 22.3378 11.5669C22.4696 11.3696 22.54 11.1376 22.54 10.9002C22.54 10.582 22.4136 10.2768 22.1885 10.0517C21.9635 9.82666 21.6583 9.70023 21.34 9.70023ZM25.94 12.1202C25.9206 11.2905 25.7652 10.4696 25.48 9.69023C25.2257 9.02337 24.83 8.41951 24.32 7.92023C23.8248 7.40766 23.2196 7.01441 22.55 6.77023C21.7727 6.4764 20.9508 6.31744 20.12 6.30023C19.06 6.24023 18.72 6.24023 16 6.24023C13.28 6.24023 12.94 6.24023 11.88 6.30023C11.0492 6.31744 10.2273 6.4764 9.45 6.77023C8.78168 7.01688 8.17693 7.40979 7.68 7.92023C7.16743 8.41541 6.77418 9.02067 6.53 9.69023C6.23616 10.4676 6.07721 11.2894 6.06 12.1202C6 13.1802 6 13.5202 6 16.2402C6 18.9602 6 19.3002 6.06 20.3602C6.07721 21.1911 6.23616 22.0129 6.53 22.7902C6.77418 23.4598 7.16743 24.0651 7.68 24.5602C8.17693 25.0707 8.78168 25.4636 9.45 25.7102C10.2273 26.0041 11.0492 26.163 11.88 26.1802C12.94 26.2402 13.28 26.2402 16 26.2402C18.72 26.2402 19.06 26.2402 20.12 26.1802C20.9508 26.163 21.7727 26.0041 22.55 25.7102C23.2196 25.4661 23.8248 25.0728 24.32 24.5602C24.8322 24.0628 25.2283 23.4584 25.48 22.7902C25.7652 22.0108 25.9206 21.1899 25.94 20.3602C25.94 19.3002 26 18.9602 26 16.2402C26 13.5202 26 13.1802 25.94 12.1202ZM24.14 20.2402C24.1327 20.875 24.0178 21.5039 23.8 22.1002C23.6403 22.5354 23.3839 22.9287 23.05 23.2502C22.7256 23.5807 22.3332 23.8367 21.9 24.0002C21.3037 24.218 20.6748 24.333 20.04 24.3402C19.04 24.3902 18.67 24.4002 16.04 24.4002C13.41 24.4002 13.04 24.4002 12.04 24.3402C11.3809 24.3526 10.7246 24.2511 10.1 24.0402C9.68578 23.8683 9.31136 23.613 9 23.2902C8.66809 22.969 8.41484 22.5754 8.26 22.1402C8.01586 21.5354 7.88044 20.8922 7.86 20.2402C7.86 19.2402 7.8 18.8702 7.8 16.2402C7.8 13.6102 7.8 13.2402 7.86 12.2402C7.86448 11.5913 7.98295 10.9482 8.21 10.3402C8.38605 9.91815 8.65627 9.54189 9 9.24023C9.30381 8.8964 9.67929 8.62333 10.1 8.44023C10.7096 8.22028 11.352 8.10531 12 8.10023C13 8.10023 13.37 8.04023 16 8.04023C18.63 8.04023 19 8.04023 20 8.10023C20.6348 8.10751 21.2637 8.22248 21.86 8.44023C22.3144 8.60889 22.7223 8.88308 23.05 9.24023C23.3777 9.54741 23.6338 9.92297 23.8 10.3402C24.0223 10.9492 24.1373 11.592 24.14 12.2402C24.19 13.2402 24.2 13.6102 24.2 16.2402C24.2 18.8702 24.19 19.2402 24.14 20.2402ZM16 11.1102C14.9858 11.1122 13.995 11.4148 13.1527 11.9797C12.3103 12.5445 11.6544 13.3464 11.2676 14.284C10.8809 15.2215 10.7807 16.2527 10.9798 17.2472C11.1789 18.2416 11.6682 19.1548 12.3861 19.8712C13.1039 20.5877 14.018 21.0752 15.0129 21.2724C16.0077 21.4695 17.0387 21.3673 17.9755 20.9788C18.9123 20.5902 19.7129 19.9327 20.2761 19.0893C20.8394 18.2459 21.14 17.2544 21.14 16.2402C21.1413 15.5653 21.0092 14.8968 20.7512 14.2732C20.4933 13.6495 20.1146 13.083 19.6369 12.6063C19.1592 12.1295 18.5919 11.7519 17.9678 11.4952C17.3436 11.2384 16.6749 11.1076 16 11.1102ZM16 19.5702C15.3414 19.5702 14.6976 19.3749 14.15 19.009C13.6023 18.6431 13.1755 18.123 12.9235 17.5146C12.6714 16.9061 12.6055 16.2365 12.734 15.5906C12.8625 14.9446 13.1796 14.3513 13.6453 13.8856C14.111 13.4199 14.7044 13.1027 15.3503 12.9742C15.9963 12.8457 16.6659 12.9117 17.2743 13.1637C17.8828 13.4158 18.4029 13.8426 18.7688 14.3902C19.1347 14.9378 19.33 15.5816 19.33 16.2402C19.33 16.6775 19.2439 17.1106 19.0765 17.5146C18.9092 17.9186 18.6639 18.2857 18.3547 18.5949C18.0454 18.9041 17.6784 19.1494 17.2743 19.3168C16.8703 19.4841 16.4373 19.5702 16 19.5702Z" fill="#0625BA"/>
</svg>
