<svg width="32" height="33" viewBox="0 0 32 33" fill="none" xmlns="http://www.w3.org/2000/svg">
<circle cx="16" cy="16.2402" r="16" fill="#FAFAFA"/>
<path d="M22.3809 5.24372C21.2747 5.54981 12.7458 8.00043 10.6369 8.592C10.5977 8.60299 10.5631 8.62646 10.5384 8.65885C10.5137 8.69124 10.5002 8.7308 10.5 8.77153V20.3496C10.5001 20.369 10.4941 20.388 10.4829 20.4039C10.4718 20.4197 10.4559 20.4317 10.4377 20.4382L9.13219 20.8859C8.24156 21.2346 6 21.6678 6 23.6604C6 25.3264 7.15453 26.0764 8.14969 26.2048C8.2706 26.2265 8.39298 26.239 8.51578 26.2423C8.86125 26.2423 10.2211 25.9104 11.0142 25.3948C12 24.7521 12 24.7404 12 23.0529V13.2092C12 13.167 12.0291 13.1698 12.0694 13.159L20.8819 10.7253C20.8961 10.7214 20.911 10.7209 20.9254 10.7238C20.9398 10.7267 20.9534 10.733 20.9649 10.7421C20.9765 10.7512 20.9857 10.763 20.9919 10.7763C20.9981 10.7897 21.001 10.8043 21.0005 10.819V18.11C21.0004 18.1295 20.9942 18.1486 20.9828 18.1645C20.9714 18.1804 20.9553 18.1923 20.9367 18.1986C20.5195 18.3392 20.0353 18.5032 19.6955 18.6261C18.2527 19.1473 16.5 19.474 16.5 21.3654C16.5 23.1706 17.8247 23.9239 18.6703 23.9825C19.0043 24.0078 19.34 23.992 19.6702 23.9356C20.092 23.8709 20.7994 23.659 21.458 23.239C22.5 22.5743 22.5 22.5612 22.5 20.6154V5.33418C22.5 5.3197 22.4967 5.3054 22.4903 5.29241C22.4838 5.27942 22.4745 5.2681 22.463 5.25934C22.4514 5.25057 22.438 5.2446 22.4238 5.24189C22.4096 5.23918 22.3949 5.2398 22.3809 5.24372Z" fill="#FBB104"/>
</svg>
