<svg width="185" height="33" viewBox="0 0 185 33" fill="none" xmlns="http://www.w3.org/2000/svg">
<g clip-path="url(#clip0)">
<path d="M6.23445 24.8667C5.94665 24.8661 5.66394 24.7907 5.41414 24.6477C4.85164 24.329 4.50195 23.7102 4.50195 23.0385V9.44478C4.50195 8.77119 4.85164 8.15432 5.41414 7.83557C5.66989 7.68858 5.96043 7.613 6.25539 7.61671C6.55034 7.62042 6.83889 7.70329 7.09086 7.85666L18.7088 14.811C18.951 14.9629 19.1506 15.1737 19.2889 15.4238C19.4273 15.6738 19.4999 15.9549 19.4999 16.2407C19.4999 16.5265 19.4273 16.8076 19.2889 17.0577C19.1506 17.3078 18.951 17.5186 18.7088 17.6704L7.08898 24.6267C6.83112 24.7825 6.53577 24.8655 6.23445 24.8667Z" fill="#FF4602"/>
</g>
<rect x="24" y="10.9069" width="1" height="10.6667" rx="0.5" fill="#FF4602"/>
<rect x="26" y="5.57361" width="1" height="21.3333" rx="0.5" fill="#FF4602"/>
<rect x="28" y="0.240234" width="1" height="32" rx="0.5" fill="#FF4602"/>
<rect x="30" y="5.57361" width="1" height="21.3333" rx="0.5" fill="#FF4602"/>
<rect x="32" y="10.9069" width="1" height="10.6667" rx="0.5" fill="#FF4602"/>
<rect x="34" y="13.5736" width="1" height="5.33333" rx="0.5" fill="#FF4602"/>
<rect x="36" y="13.5736" width="1" height="5.33333" rx="0.5" fill="#FF4602"/>
<rect x="38" y="10.9069" width="1" height="10.6667" rx="0.5" fill="#FF4602"/>
<rect x="40" y="10.9069" width="1" height="10.6667" rx="0.5" fill="#FF4602"/>
<rect x="42" y="10.9069" width="1" height="10.6667" rx="0.5" fill="#FF4602"/>
<rect x="44" y="13.5736" width="1" height="5.33333" rx="0.5" fill="#FF4602"/>
<rect x="46" y="13.5736" width="1" height="5.33333" rx="0.5" fill="#FF4602"/>
<rect x="48" y="13.5736" width="1" height="5.33333" rx="0.5" fill="#FF4602"/>
<rect x="50" y="13.5736" width="1" height="5.33333" rx="0.5" fill="#FF4602"/>
<rect x="52" y="10.9069" width="1" height="10.6667" rx="0.5" fill="#FF4602"/>
<rect x="54" y="5.57361" width="1" height="21.3333" rx="0.5" fill="#FF4602"/>
<rect x="56" y="10.9069" width="1" height="10.6667" rx="0.5" fill="#FF4602"/>
<rect x="58" y="0.240234" width="1" height="32" rx="0.5" fill="#FF4602"/>
<rect x="60" y="5.57361" width="1" height="21.3333" rx="0.5" fill="#EEDFB7"/>
<rect x="62" y="10.9069" width="1" height="10.6667" rx="0.5" fill="#EEDFB7"/>
<rect x="64" y="10.9069" width="1" height="10.6667" rx="0.5" fill="#EEDFB7"/>
<rect x="66" y="13.5736" width="1" height="5.33333" rx="0.5" fill="#EEDFB7"/>
<rect x="68" y="13.5736" width="1" height="5.33333" rx="0.5" fill="#EEDFB7"/>
<rect x="70" y="10.9069" width="1" height="10.6667" rx="0.5" fill="#EEDFB7"/>
<rect x="72" y="10.9069" width="1" height="10.6667" rx="0.5" fill="#EEDFB7"/>
<rect x="74" y="5.57361" width="1" height="21.3333" rx="0.5" fill="#EEDFB7"/>
<rect x="76" y="10.9069" width="1" height="10.6667" rx="0.5" fill="#EEDFB7"/>
<rect x="78" y="10.9069" width="1" height="10.6667" rx="0.5" fill="#EEDFB7"/>
<rect x="80" y="5.57361" width="1" height="21.3333" rx="0.5" fill="#EEDFB7"/>
<rect x="82" y="0.240234" width="1" height="32" rx="0.5" fill="#EEDFB7"/>
<rect x="84" y="5.57361" width="1" height="21.3333" rx="0.5" fill="#EEDFB7"/>
<rect x="86" y="10.9069" width="1" height="10.6667" rx="0.5" fill="#EEDFB7"/>
<rect x="88" y="13.5736" width="1" height="5.33333" rx="0.5" fill="#EEDFB7"/>
<rect x="90" y="13.5736" width="1" height="5.33333" rx="0.5" fill="#EEDFB7"/>
<rect x="92" y="10.9069" width="1" height="10.6667" rx="0.5" fill="#EEDFB7"/>
<rect x="94" y="10.9069" width="1" height="10.6667" rx="0.5" fill="#EEDFB7"/>
<rect x="96" y="10.9069" width="1" height="10.6667" rx="0.5" fill="#EEDFB7"/>
<rect x="98" y="13.5736" width="1" height="5.33333" rx="0.5" fill="#EEDFB7"/>
<rect x="100" y="13.5736" width="1" height="5.33333" rx="0.5" fill="#EEDFB7"/>
<rect x="102" y="13.5736" width="1" height="5.33333" rx="0.5" fill="#EEDFB7"/>
<rect x="104" y="13.5736" width="1" height="5.33333" rx="0.5" fill="#EEDFB7"/>
<rect x="106" y="10.9069" width="1" height="10.6667" rx="0.5" fill="#EEDFB7"/>
<rect x="108" y="5.57361" width="1" height="21.3333" rx="0.5" fill="#EEDFB7"/>
<rect x="110" y="10.9069" width="1" height="10.6667" rx="0.5" fill="#EEDFB7"/>
<rect x="112" y="0.240234" width="1" height="32" rx="0.5" fill="#EEDFB7"/>
<rect x="114" y="5.57361" width="1" height="21.3333" rx="0.5" fill="#EEDFB7"/>
<rect x="116" y="10.9069" width="1" height="10.6667" rx="0.5" fill="#EEDFB7"/>
<rect x="118" y="10.9069" width="1" height="10.6667" rx="0.5" fill="#EEDFB7"/>
<rect x="120" y="13.5736" width="1" height="5.33333" rx="0.5" fill="#EEDFB7"/>
<rect x="122" y="13.5736" width="1" height="5.33333" rx="0.5" fill="#EEDFB7"/>
<rect x="124" y="10.9069" width="1" height="10.6667" rx="0.5" fill="#EEDFB7"/>
<rect x="126" y="10.9069" width="1" height="10.6667" rx="0.5" fill="#EEDFB7"/>
<rect x="128" y="5.57361" width="1" height="21.3333" rx="0.5" fill="#EEDFB7"/>
<rect x="130" y="10.9069" width="1" height="10.6667" rx="0.5" fill="#EEDFB7"/>
<rect x="132" y="10.9069" width="1" height="10.6667" rx="0.5" fill="#EEDFB7"/>
<rect x="134" y="5.57361" width="1" height="21.3333" rx="0.5" fill="#EEDFB7"/>
<rect x="136" y="0.240234" width="1" height="32" rx="0.5" fill="#EEDFB7"/>
<rect x="138" y="5.57361" width="1" height="21.3333" rx="0.5" fill="#EEDFB7"/>
<rect x="140" y="10.9069" width="1" height="10.6667" rx="0.5" fill="#EEDFB7"/>
<rect x="142" y="13.5736" width="1" height="5.33333" rx="0.5" fill="#EEDFB7"/>
<rect x="144" y="13.5736" width="1" height="5.33333" rx="0.5" fill="#EEDFB7"/>
<rect x="146" y="10.9069" width="1" height="10.6667" rx="0.5" fill="#EEDFB7"/>
<rect x="148" y="10.9069" width="1" height="10.6667" rx="0.5" fill="#EEDFB7"/>
<rect x="150" y="10.9069" width="1" height="10.6667" rx="0.5" fill="#EEDFB7"/>
<rect x="152" y="13.5736" width="1" height="5.33333" rx="0.5" fill="#EEDFB7"/>
<rect x="154" y="13.5736" width="1" height="5.33333" rx="0.5" fill="#EEDFB7"/>
<rect x="156" y="13.5736" width="1" height="5.33333" rx="0.5" fill="#EEDFB7"/>
<rect x="158" y="13.5736" width="1" height="5.33333" rx="0.5" fill="#EEDFB7"/>
<rect x="160" y="10.9069" width="1" height="10.6667" rx="0.5" fill="#EEDFB7"/>
<rect x="162" y="5.57361" width="1" height="21.3333" rx="0.5" fill="#EEDFB7"/>
<rect x="164" y="10.9069" width="1" height="10.6667" rx="0.5" fill="#EEDFB7"/>
<rect x="166" y="0.240234" width="1" height="32" rx="0.5" fill="#EEDFB7"/>
<rect x="168" y="5.57361" width="1" height="21.3333" rx="0.5" fill="#EEDFB7"/>
<rect x="170" y="10.9069" width="1" height="10.6667" rx="0.5" fill="#EEDFB7"/>
<rect x="172" y="10.9069" width="1" height="10.6667" rx="0.5" fill="#EEDFB7"/>
<rect x="174" y="13.5736" width="1" height="5.33333" rx="0.5" fill="#EEDFB7"/>
<rect x="176" y="13.5736" width="1" height="5.33333" rx="0.5" fill="#EEDFB7"/>
<rect x="178" y="10.9069" width="1" height="10.6667" rx="0.5" fill="#EEDFB7"/>
<rect x="180" y="10.9069" width="1" height="10.6667" rx="0.5" fill="#EEDFB7"/>
<rect x="182" y="5.57361" width="1" height="21.3333" rx="0.5" fill="#EEDFB7"/>
<rect x="184" y="10.9069" width="1" height="10.6667" rx="0.5" fill="#EEDFB7"/>
<defs>
<clipPath id="clip0">
<rect width="24" height="24" fill="white" transform="translate(0 4.24023)"/>
</clipPath>
</defs>
</svg>
