<svg width="16" height="17" viewBox="0 0 16 17" fill="none" xmlns="http://www.w3.org/2000/svg">
<path d="M11.9467 8.24671C11.9149 8.16488 11.8674 8.09011 11.8067 8.02671L8.47333 4.69338C8.41117 4.63122 8.33738 4.58191 8.25617 4.54827C8.17495 4.51463 8.08791 4.49731 8 4.49731C7.82247 4.49731 7.6522 4.56784 7.52667 4.69338C7.46451 4.75553 7.4152 4.82933 7.38156 4.91054C7.34792 4.99176 7.33061 5.0788 7.33061 5.16671C7.33061 5.34424 7.40113 5.51451 7.52667 5.64004L9.72667 7.83338H4.66667C4.48986 7.83338 4.32029 7.90361 4.19526 8.02864C4.07024 8.15366 4 8.32323 4 8.50004C4 8.67685 4.07024 8.84642 4.19526 8.97145C4.32029 9.09647 4.48986 9.16671 4.66667 9.16671H9.72667L7.52667 11.36C7.46418 11.422 7.41459 11.4958 7.38074 11.577C7.34689 11.6582 7.32947 11.7454 7.32947 11.8334C7.32947 11.9214 7.34689 12.0085 7.38074 12.0898C7.41459 12.171 7.46418 12.2447 7.52667 12.3067C7.58864 12.3692 7.66238 12.4188 7.74362 12.4526C7.82486 12.4865 7.91199 12.5039 8 12.5039C8.08801 12.5039 8.17515 12.4865 8.25638 12.4526C8.33762 12.4188 8.41136 12.3692 8.47333 12.3067L11.8067 8.97338C11.8674 8.90997 11.9149 8.83521 11.9467 8.75338C12.0133 8.59107 12.0133 8.40902 11.9467 8.24671Z" fill="#0625BA"/>
</svg>
