<svg width="5" height="19" viewBox="0 0 5 19" fill="none" xmlns="http://www.w3.org/2000/svg">
<path d="M0.989226 15.8083C0.876592 15.9324 0.739471 16 0.582762 16C0.254652 16 0 15.7069 0 15.3348C0 15.1488 0.063663 14.9797 0.176298 14.8501L3.60431 10.9944L0.176298 7.14994C0.063663 7.02029 0 6.84555 0 6.66516C0 6.29312 0.254652 6 0.582762 6C0.739471 6 0.876592 6.06764 0.984329 6.19166L4.79432 10.4758C4.93144 10.6223 5 10.8027 5 11C5 11.1973 4.93144 11.3664 4.79922 11.5186L0.989226 15.8083Z" fill="white"/>
</svg>
