<svg width="41" height="40" viewBox="0 0 41 40" fill="none" xmlns="http://www.w3.org/2000/svg">
<rect x="0.5" width="40" height="40" rx="20" fill="#B06902"/>
<path d="M28.9696 9.9999H12.0296C11.8391 9.99725 11.6501 10.0321 11.4731 10.1026C11.2962 10.173 11.1349 10.2776 10.9984 10.4104C10.8619 10.5432 10.7529 10.7016 10.6776 10.8765C10.6023 11.0514 10.5622 11.2395 10.5596 11.4299V28.5699C10.5622 28.7603 10.6023 28.9484 10.6776 29.1233C10.7529 29.2982 10.8619 29.4566 10.9984 29.5894C11.1349 29.7222 11.2962 29.8268 11.4731 29.8972C11.6501 29.9676 11.8391 30.0025 12.0296 29.9999H28.9696C29.16 30.0025 29.3491 29.9676 29.526 29.8972C29.7029 29.8268 29.8643 29.7222 30.0008 29.5894C30.1373 29.4566 30.2463 29.2982 30.3216 29.1233C30.3969 28.9484 30.437 28.7603 30.4396 28.5699V11.4299C30.437 11.2395 30.3969 11.0514 30.3216 10.8765C30.2463 10.7016 30.1373 10.5432 30.0008 10.4104C29.8643 10.2776 29.7029 10.173 29.526 10.1026C29.3491 10.0321 29.16 9.99725 28.9696 9.9999ZM16.5896 26.7399H13.5896V17.7399H16.5896V26.7399ZM15.0896 16.4799C14.6758 16.4799 14.279 16.3155 13.9865 16.023C13.6939 15.7304 13.5296 15.3336 13.5296 14.9199C13.5296 14.5062 13.6939 14.1094 13.9865 13.8168C14.279 13.5243 14.6758 13.3599 15.0896 13.3599C15.3093 13.335 15.5317 13.3567 15.7424 13.4238C15.9531 13.4908 16.1473 13.6016 16.3122 13.7489C16.4771 13.8961 16.6091 14.0766 16.6994 14.2784C16.7898 14.4802 16.8365 14.6988 16.8365 14.9199C16.8365 15.141 16.7898 15.3596 16.6994 15.5614C16.6091 15.7632 16.4771 15.9437 16.3122 16.0909C16.1473 16.2382 15.9531 16.349 15.7424 16.416C15.5317 16.483 15.3093 16.5048 15.0896 16.4799ZM27.4096 26.7399H24.4096V21.9099C24.4096 20.6999 23.9796 19.9099 22.8896 19.9099C22.5522 19.9124 22.2238 20.0182 21.9484 20.2131C21.6731 20.408 21.4641 20.6826 21.3496 20.9999C21.2713 21.2349 21.2374 21.4825 21.2496 21.7299V26.7299H18.2496C18.2496 26.7299 18.2496 18.5499 18.2496 17.7299H21.2496V18.9999C21.5221 18.527 21.9185 18.1374 22.396 17.8731C22.8735 17.6088 23.4141 17.4797 23.9596 17.4999C25.9596 17.4999 27.4096 18.7899 27.4096 21.5599V26.7399Z" fill="white"/>
</svg>
