<svg width="60" height="24" viewBox="0 0 60 24" fill="none" xmlns="http://www.w3.org/2000/svg">
<g clip-path="url(#clip0)">
<path d="M11.5402 3.0942C10.8582 3.90485 9.76696 4.54424 8.67571 4.4529C8.53931 3.3568 9.07357 2.1922 9.69876 1.47288C10.3808 0.639391 11.5743 0.0456708 12.5406 0C12.6542 1.14177 12.2109 2.2607 11.5402 3.0942ZM12.5292 4.66984C10.9492 4.5785 9.59646 5.57184 8.84622 5.57184C8.08462 5.57184 6.93653 4.71551 5.68614 4.73834C4.06064 4.76118 2.5488 5.68601 1.719 7.1589C0.0139188 10.1047 1.27568 14.4662 2.92392 16.8639C3.73099 18.0514 4.6972 19.353 5.97032 19.3073C7.17525 19.2617 7.65267 18.5195 9.10767 18.5195C10.574 18.5195 10.9946 19.3073 12.2677 19.2845C13.5863 19.2617 14.4161 18.0971 15.2232 16.9096C16.144 15.5623 16.5191 14.2493 16.5418 14.1808C16.5191 14.1579 13.9956 13.1874 13.9728 10.2645C13.9501 7.82112 15.9621 6.65652 16.053 6.58801C14.9163 4.89819 13.143 4.71551 12.5292 4.66984ZM21.657 1.35871V19.1589H24.4079V13.0733H28.2159C31.6943 13.0733 34.1382 10.6755 34.1382 7.20457C34.1382 3.73359 31.7397 1.35871 28.3068 1.35871H21.657ZM24.4079 3.68792H27.5793C29.9665 3.68792 31.3305 4.9667 31.3305 7.21598C31.3305 9.46527 29.9665 10.7555 27.568 10.7555H24.4079V3.68792ZM39.1625 19.2959C40.8903 19.2959 42.4931 18.4167 43.2206 17.0238H43.2774V19.1589H45.8237V10.2988C45.8237 7.72978 43.7776 6.07421 40.6289 6.07421C37.7075 6.07421 35.5477 7.75262 35.4682 10.059H37.9462C38.1508 8.96289 39.1625 8.24358 40.5493 8.24358C42.2316 8.24358 43.1751 9.0314 43.1751 10.4814V11.4634L39.7422 11.6689C36.5481 11.863 34.8202 13.176 34.8202 15.4596C34.8202 17.7659 36.6049 19.2959 39.1625 19.2959ZM39.9014 17.1836C38.435 17.1836 37.5029 16.4757 37.5029 15.3911C37.5029 14.2721 38.4009 13.6213 40.1174 13.5186L43.1751 13.3245V14.3292C43.1751 15.9962 41.7656 17.1836 39.9014 17.1836ZM49.2225 24C51.9051 24 53.1669 22.9724 54.2695 19.8554L59.1006 6.24548H56.3042L53.0646 16.7612H53.0077L49.7681 6.24548H46.8922L51.5527 19.2046L51.3027 19.9924C50.8821 21.3283 50.2 21.8421 48.9838 21.8421C48.7678 21.8421 48.3472 21.8192 48.1767 21.7964V23.9315C48.3358 23.9772 49.0179 24 49.2225 24Z" fill="white"/>
</g>
<defs>
<clipPath id="clip0">
<rect width="58.2" height="24" fill="white" transform="translate(0.900391)"/>
</clipPath>
</defs>
</svg>
