<svg width="35" height="14" viewBox="0 0 35 14" fill="none" xmlns="http://www.w3.org/2000/svg">
<g clip-path="url(#clip0)">
<path fill-rule="evenodd" clip-rule="evenodd" d="M34.545 7.23345C34.545 4.84094 33.3724 2.95312 31.1311 2.95312C28.8803 2.95312 27.5186 4.84094 27.5186 7.21476C27.5186 10.0278 29.1262 11.4483 31.4337 11.4483C32.5591 11.4483 33.4102 11.1959 34.0532 10.8408V8.97169C33.4102 9.28949 32.6725 9.4857 31.7363 9.4857C30.819 9.4857 30.0057 9.16797 29.9017 8.06519H34.5261C34.5261 7.94367 34.545 7.45773 34.545 7.23345ZM29.8733 6.34558C29.8733 5.28953 30.5258 4.85029 31.1216 4.85029C31.6984 4.85029 32.3132 5.28953 32.3132 6.34558H29.8733Z" fill="#8792A2"/>
<path fill-rule="evenodd" clip-rule="evenodd" d="M23.8685 2.95312C22.9417 2.95312 22.3459 3.38302 22.015 3.68208L21.892 3.10265H19.8115V13.9997L22.1757 13.5043L22.1852 10.8595C22.5256 11.1025 23.0269 11.4483 23.8591 11.4483C25.5519 11.4483 27.0933 10.1025 27.0933 7.14C27.0838 4.42973 25.5235 2.95312 23.8685 2.95312ZM23.3011 9.39225C22.7432 9.39225 22.4122 9.19597 22.1852 8.953L22.1757 5.48579C22.4216 5.21477 22.7621 5.02785 23.3011 5.02785C24.1617 5.02785 24.7575 5.98111 24.7575 7.20538C24.7575 8.45768 24.1712 9.39225 23.3011 9.39225Z" fill="#8792A2"/>
<path fill-rule="evenodd" clip-rule="evenodd" d="M16.5576 2.40183L18.9313 1.89716V0L16.5576 0.495319V2.40183Z" fill="#8792A2"/>
<path d="M18.9313 3.11169H16.5576V11.2891H18.9313V3.11169Z" fill="#8792A2"/>
<path fill-rule="evenodd" clip-rule="evenodd" d="M14.0143 3.80356L13.863 3.11198H11.8203V11.2894H14.1845V5.74745C14.7425 5.02783 15.6882 5.15868 15.9813 5.26148V3.11198C15.6787 2.99984 14.5723 2.79423 14.0143 3.80356Z" fill="#8792A2"/>
<path fill-rule="evenodd" clip-rule="evenodd" d="M9.28572 1.08423L6.97821 1.5702L6.96875 9.05602C6.96875 10.4392 8.01844 11.4579 9.41811 11.4579C10.1935 11.4579 10.761 11.3177 11.0731 11.1495V9.2523C10.7705 9.37382 9.27623 9.80369 9.27623 8.42056V5.10285H11.0731V3.11223H9.27623L9.28572 1.08423Z" fill="#8792A2"/>
<path fill-rule="evenodd" clip-rule="evenodd" d="M2.89259 5.4858C2.89259 5.12131 3.19522 4.98113 3.69642 4.98113C4.41515 4.98113 5.32301 5.19608 6.04174 5.57924V3.38302C5.25681 3.07462 4.48135 2.95312 3.69642 2.95312C1.77668 2.95312 0.5 3.94376 0.5 5.59794C0.5 8.17733 4.09362 7.76615 4.09362 8.87824C4.09362 9.30818 3.71534 9.44832 3.18576 9.44832C2.40083 9.44832 1.39841 9.13059 0.604026 8.70072V10.925C1.48351 11.2988 2.37247 11.4577 3.18576 11.4577C5.15279 11.4577 6.50512 10.495 6.50512 8.82217C6.49567 6.03718 2.89259 6.53251 2.89259 5.4858Z" fill="#8792A2"/>
</g>
<defs>
<clipPath id="clip0">
<rect width="34" height="14" fill="white" transform="translate(0.5)"/>
</clipPath>
</defs>
</svg>
