<svg width="180" height="167" viewBox="0 0 180 167" fill="none" xmlns="http://www.w3.org/2000/svg">
<path opacity="0.5" fill-rule="evenodd" clip-rule="evenodd" d="M121.218 118.417C139.054 107.772 151 88.2809 151 66C151 32.3106 123.689 5 90 5C56.3106 5 29 32.3106 29 66C29 88.2809 40.9457 107.772 58.7819 118.417H121.218Z" fill="white"/>
<g filter="url(#filter0_d)">
<path fill-rule="evenodd" clip-rule="evenodd" d="M90.0002 126.919C123.463 126.919 150.589 99.7926 150.589 66.3302C150.589 32.8678 123.463 5.74121 90.0002 5.74121C56.5378 5.74121 29.4111 32.8678 29.4111 66.3302C29.4111 99.7926 56.5378 126.919 90.0002 126.919ZM90.0002 131.919C126.224 131.919 155.589 102.554 155.589 66.3302C155.589 30.1064 126.224 0.741211 90.0002 0.741211C53.7763 0.741211 24.4111 30.1064 24.4111 66.3302C24.4111 102.554 53.7763 131.919 90.0002 131.919Z" fill="url(#paint0_linear)"/>
<circle cx="90" cy="66.3303" r="58.9863" stroke="#FF92C6" stroke-width="4"/>
<path d="M8.77349 122.955C7.55731 120.956 8.99643 118.396 11.3365 118.396H168.663C171.004 118.396 172.443 120.956 171.227 122.955L158.077 144.571C157.532 145.466 156.561 146.012 155.513 146.012H24.4865C23.4392 146.012 22.4678 145.466 21.9235 144.571L8.77349 122.955Z" fill="#EEDFB7"/>
<path d="M8.77349 127.355C7.55731 125.356 8.99643 122.796 11.3365 122.796H168.663C171.004 122.796 172.443 125.356 171.227 127.355L158.077 148.972C157.532 149.866 156.561 150.413 155.514 150.413H24.4865C23.4392 150.413 22.4678 149.866 21.9235 148.972L8.77349 127.355Z" fill="url(#paint1_linear)"/>
<g filter="url(#filter1_d)">
<path d="M70.3596 144.303C69.1756 144.303 68.2156 143.911 67.4796 143.127C66.7436 142.343 66.3756 141.319 66.3756 140.055V139.503C66.3756 139.343 66.4556 139.263 66.6156 139.263H67.7916C67.9516 139.263 68.0316 139.343 68.0316 139.503V139.983C68.0316 140.831 68.2476 141.519 68.6796 142.047C69.1116 142.559 69.6716 142.815 70.3596 142.815C71.0316 142.815 71.5916 142.567 72.0396 142.071C72.4876 141.575 72.7116 140.919 72.7116 140.103C72.7116 139.559 72.5996 139.095 72.3756 138.711C72.1676 138.311 71.8876 137.967 71.5356 137.679C71.1996 137.375 70.6316 136.919 69.8316 136.311C69.0316 135.719 68.3996 135.215 67.9356 134.799C67.4716 134.367 67.0876 133.855 66.7836 133.263C66.4956 132.671 66.3516 131.975 66.3516 131.175C66.3516 129.927 66.7116 128.943 67.4316 128.223C68.1516 127.487 69.0876 127.119 70.2396 127.119C71.4556 127.119 72.4236 127.519 73.1436 128.319C73.8796 129.103 74.2476 130.151 74.2476 131.463V132.063C74.2476 132.223 74.1676 132.303 74.0076 132.303H72.8076C72.6476 132.303 72.5676 132.223 72.5676 132.063V131.439C72.5676 130.591 72.3516 129.911 71.9196 129.399C71.5036 128.871 70.9436 128.607 70.2396 128.607C69.5996 128.607 69.0716 128.839 68.6556 129.303C68.2396 129.751 68.0316 130.391 68.0316 131.223C68.0316 131.719 68.1196 132.159 68.2956 132.543C68.4876 132.911 68.7676 133.263 69.1356 133.599C69.5036 133.935 70.0476 134.375 70.7676 134.919C71.7276 135.623 72.4396 136.199 72.9036 136.647C73.3836 137.079 73.7516 137.559 74.0076 138.087C74.2636 138.599 74.3916 139.223 74.3916 139.959C74.3916 141.271 74.0156 142.327 73.2636 143.127C72.5116 143.911 71.5436 144.303 70.3596 144.303ZM81.088 132.999C81.088 133.159 81.008 133.239 80.848 133.239H79.024C78.96 133.239 78.928 133.271 78.928 133.335V140.679C78.928 141.415 79.056 141.927 79.312 142.215C79.568 142.487 79.96 142.615 80.488 142.599H80.728C80.888 142.599 80.968 142.679 80.968 142.839V143.871C80.968 144.031 80.888 144.111 80.728 144.111H80.128C79.184 144.111 78.464 143.911 77.968 143.511C77.488 143.095 77.248 142.319 77.248 141.183V133.335C77.248 133.271 77.216 133.239 77.152 133.239H76.216C76.056 133.239 75.976 133.159 75.976 132.999V132.207C75.976 132.047 76.056 131.967 76.216 131.967H77.152C77.216 131.967 77.248 131.935 77.248 131.871V129.183C77.248 129.023 77.328 128.943 77.488 128.943H78.688C78.848 128.943 78.928 129.023 78.928 129.183V131.871C78.928 131.935 78.96 131.967 79.024 131.967H80.848C81.008 131.967 81.088 132.047 81.088 132.207V132.999ZM86.7664 131.775C87.8864 131.775 88.7824 132.143 89.4544 132.879C90.1264 133.599 90.4624 134.567 90.4624 135.783V143.871C90.4624 144.031 90.3824 144.111 90.2224 144.111H88.9984C88.8384 144.111 88.7584 144.031 88.7584 143.871V143.151C88.7584 143.119 88.7424 143.103 88.7104 143.103C88.6944 143.087 88.6704 143.095 88.6384 143.127C88.0464 143.911 87.1584 144.303 85.9744 144.303C85.0944 144.303 84.3264 144.055 83.6704 143.559C83.0304 143.047 82.7104 142.151 82.7104 140.871C82.7104 139.511 83.1024 138.519 83.8864 137.895C84.6704 137.255 85.7024 136.935 86.9824 136.935H88.6624C88.7264 136.935 88.7584 136.903 88.7584 136.839V135.903C88.7584 135.103 88.5744 134.463 88.2064 133.983C87.8384 133.503 87.3424 133.263 86.7184 133.263C86.2384 133.263 85.8224 133.423 85.4704 133.743C85.1344 134.063 84.9344 134.471 84.8704 134.967C84.8704 135.127 84.7904 135.207 84.6304 135.207L83.2864 135.183C83.2064 135.183 83.1424 135.159 83.0944 135.111C83.0624 135.063 83.0544 135.007 83.0704 134.943C83.1504 133.999 83.5344 133.239 84.2224 132.663C84.9104 132.071 85.7584 131.775 86.7664 131.775ZM86.3344 142.815C86.9904 142.815 87.5584 142.607 88.0384 142.191C88.5184 141.759 88.7584 141.167 88.7584 140.415V138.399C88.7584 138.335 88.7264 138.303 88.6624 138.303H86.9584C86.1904 138.303 85.5824 138.511 85.1344 138.927C84.6864 139.327 84.4624 139.927 84.4624 140.727C84.4624 141.431 84.6304 141.959 84.9664 142.311C85.3184 142.647 85.7744 142.815 86.3344 142.815ZM97.4005 132.999C97.4005 133.159 97.3205 133.239 97.1605 133.239H95.3365C95.2725 133.239 95.2405 133.271 95.2405 133.335V140.679C95.2405 141.415 95.3685 141.927 95.6245 142.215C95.8805 142.487 96.2725 142.615 96.8005 142.599H97.0405C97.2005 142.599 97.2805 142.679 97.2805 142.839V143.871C97.2805 144.031 97.2005 144.111 97.0405 144.111H96.4405C95.4965 144.111 94.7765 143.911 94.2805 143.511C93.8005 143.095 93.5605 142.319 93.5605 141.183V133.335C93.5605 133.271 93.5285 133.239 93.4645 133.239H92.5285C92.3685 133.239 92.2885 133.159 92.2885 132.999V132.207C92.2885 132.047 92.3685 131.967 92.5285 131.967H93.4645C93.5285 131.967 93.5605 131.935 93.5605 131.871V129.183C93.5605 129.023 93.6405 128.943 93.8005 128.943H95.0005C95.1605 128.943 95.2405 129.023 95.2405 129.183V131.871C95.2405 131.935 95.2725 131.967 95.3365 131.967H97.1605C97.3205 131.967 97.4005 132.047 97.4005 132.207V132.999ZM105.071 132.207C105.071 132.047 105.151 131.967 105.311 131.967H106.535C106.695 131.967 106.775 132.047 106.775 132.207V143.871C106.775 144.031 106.695 144.111 106.535 144.111H105.311C105.151 144.111 105.071 144.031 105.071 143.871V143.055C105.071 143.007 105.055 142.983 105.023 142.983C105.007 142.983 104.983 142.999 104.951 143.031C104.455 143.863 103.655 144.279 102.551 144.279C101.591 144.279 100.823 143.991 100.247 143.415C99.6869 142.823 99.4069 141.935 99.4069 140.751V132.207C99.4069 132.047 99.4869 131.967 99.6469 131.967H100.871C101.031 131.967 101.111 132.047 101.111 132.207V140.367C101.111 141.167 101.271 141.775 101.591 142.191C101.927 142.591 102.407 142.791 103.031 142.791C103.671 142.791 104.167 142.559 104.519 142.095C104.887 141.631 105.071 140.999 105.071 140.199V132.207ZM113.971 132.999C113.971 133.159 113.891 133.239 113.731 133.239H111.907C111.843 133.239 111.811 133.271 111.811 133.335V140.679C111.811 141.415 111.939 141.927 112.195 142.215C112.451 142.487 112.843 142.615 113.371 142.599H113.611C113.771 142.599 113.851 142.679 113.851 142.839V143.871C113.851 144.031 113.771 144.111 113.611 144.111H113.011C112.067 144.111 111.347 143.911 110.851 143.511C110.371 143.095 110.131 142.319 110.131 141.183V133.335C110.131 133.271 110.099 133.239 110.035 133.239H109.099C108.939 133.239 108.859 133.159 108.859 132.999V132.207C108.859 132.047 108.939 131.967 109.099 131.967H110.035C110.099 131.967 110.131 131.935 110.131 131.871V129.183C110.131 129.023 110.211 128.943 110.371 128.943H111.571C111.731 128.943 111.811 129.023 111.811 129.183V131.871C111.811 131.935 111.843 131.967 111.907 131.967H113.731C113.891 131.967 113.971 132.047 113.971 132.207V132.999Z" fill="white"/>
</g>
<path d="M100 48.0001C100.525 47.4748 101.149 47.0581 101.835 46.7739C102.522 46.4896 103.257 46.3433 104 46.3433C104.743 46.3433 105.478 46.4896 106.165 46.7739C106.851 47.0581 107.475 47.4748 108 48.0001C108.525 48.5254 108.942 49.149 109.226 49.8353C109.511 50.5217 109.657 51.2572 109.657 52.0001C109.657 52.743 109.511 53.4786 109.226 54.1649C108.942 54.8512 108.525 55.4748 108 56.0001L81 83.0001L70 86.0001L73 75.0001L100 48.0001Z" stroke="#FF4602" stroke-width="5" stroke-linecap="round" stroke-linejoin="round"/>
</g>
<defs>
<filter id="filter0_d" x="0.332031" y="0.741211" width="179.336" height="165.671" filterUnits="userSpaceOnUse" color-interpolation-filters="sRGB">
<feFlood flood-opacity="0" result="BackgroundImageFix"/>
<feColorMatrix in="SourceAlpha" type="matrix" values="0 0 0 0 0 0 0 0 0 0 0 0 0 0 0 0 0 0 127 0"/>
<feOffset dy="8"/>
<feGaussianBlur stdDeviation="4"/>
<feColorMatrix type="matrix" values="0 0 0 0 0.0235294 0 0 0 0 0.145098 0 0 0 0 0.729412 0 0 0 0.25 0"/>
<feBlend mode="normal" in2="BackgroundImageFix" result="effect1_dropShadow"/>
<feBlend mode="normal" in="SourceGraphic" in2="effect1_dropShadow" result="shape"/>
</filter>
<filter id="filter1_d" x="62.3516" y="125.119" width="55.6192" height="25.184" filterUnits="userSpaceOnUse" color-interpolation-filters="sRGB">
<feFlood flood-opacity="0" result="BackgroundImageFix"/>
<feColorMatrix in="SourceAlpha" type="matrix" values="0 0 0 0 0 0 0 0 0 0 0 0 0 0 0 0 0 0 127 0"/>
<feOffset dy="2"/>
<feGaussianBlur stdDeviation="2"/>
<feColorMatrix type="matrix" values="0 0 0 0 0.150395 0 0 0 0 0.139931 0 0 0 0 0.216667 0 0 0 0.29 0"/>
<feBlend mode="normal" in2="BackgroundImageFix" result="effect1_dropShadow"/>
<feBlend mode="normal" in="SourceGraphic" in2="effect1_dropShadow" result="shape"/>
</filter>
<linearGradient id="paint0_linear" x1="90.4598" y1="132.67" x2="185.091" y2="132.67" gradientUnits="userSpaceOnUse">
<stop offset="0.106383" stop-color="#FC9703"/>
<stop offset="0.888889" stop-color="#FE5D02"/>
</linearGradient>
<linearGradient id="paint1_linear" x1="-8.65116" y1="150.413" x2="197.93" y2="150.413" gradientUnits="userSpaceOnUse">
<stop offset="0.106383" stop-color="#FF4602"/>
<stop offset="0.888889" stop-color="#FC9703"/>
</linearGradient>
</defs>
</svg>
