<svg width="376" height="323" viewBox="0 0 376 323" fill="none" xmlns="http://www.w3.org/2000/svg">
<g filter="url(#filter0_dd)">
<rect y="4" width="376" height="315" fill="white"/>
</g>
<rect x="35" y="178" width="306" height="36" rx="16" fill="#FBB104"/>
<path d="M279.442 291.713C280.048 291.713 280.496 291.587 280.786 291.335C281.075 291.073 281.22 290.742 281.22 290.341V290.243C281.22 289.795 281.08 289.454 280.8 289.221C280.52 288.978 280.142 288.857 279.666 288.857C279.199 288.857 278.802 288.964 278.476 289.179C278.149 289.384 277.874 289.673 277.65 290.047L276.6 289.137C276.749 288.922 276.917 288.717 277.104 288.521C277.29 288.325 277.51 288.157 277.762 288.017C278.014 287.867 278.298 287.751 278.616 287.667C278.933 287.573 279.297 287.527 279.708 287.527C280.165 287.527 280.59 287.583 280.982 287.695C281.374 287.807 281.71 287.975 281.99 288.199C282.27 288.413 282.489 288.679 282.648 288.997C282.806 289.305 282.886 289.655 282.886 290.047C282.886 290.355 282.834 290.635 282.732 290.887C282.638 291.139 282.503 291.363 282.326 291.559C282.158 291.745 281.957 291.899 281.724 292.021C281.5 292.142 281.262 292.231 281.01 292.287V292.357C281.29 292.413 281.551 292.506 281.794 292.637C282.046 292.758 282.265 292.921 282.452 293.127C282.638 293.323 282.783 293.561 282.886 293.841C282.998 294.111 283.054 294.424 283.054 294.779C283.054 295.208 282.97 295.6 282.802 295.955C282.634 296.3 282.396 296.599 282.088 296.851C281.789 297.103 281.425 297.299 280.996 297.439C280.566 297.569 280.09 297.635 279.568 297.635C279.11 297.635 278.709 297.583 278.364 297.481C278.018 297.387 277.71 297.261 277.44 297.103C277.178 296.935 276.945 296.748 276.74 296.543C276.544 296.328 276.371 296.109 276.222 295.885L277.384 294.975C277.505 295.171 277.631 295.353 277.762 295.521C277.902 295.679 278.056 295.819 278.224 295.941C278.401 296.053 278.597 296.141 278.812 296.207C279.036 296.272 279.288 296.305 279.568 296.305C280.165 296.305 280.622 296.165 280.94 295.885C281.257 295.595 281.416 295.199 281.416 294.695V294.597C281.416 294.093 281.248 293.71 280.912 293.449C280.576 293.187 280.1 293.057 279.484 293.057H278.448V291.713H279.442Z" fill="#333333"/>
<path d="M326.535 297.467V295.563H321.999V294.205L325.961 287.695H328.033V294.317H329.363V295.563H328.033V297.467H326.535ZM323.343 294.317H326.535V289.137H326.437L323.343 294.317Z" fill="#333333"/>
<path d="M137.928 291.713C138.535 291.713 138.983 291.587 139.272 291.335C139.562 291.073 139.706 290.742 139.706 290.341V290.243C139.706 289.795 139.566 289.454 139.286 289.221C139.006 288.978 138.628 288.857 138.152 288.857C137.686 288.857 137.289 288.964 136.962 289.179C136.636 289.384 136.36 289.673 136.136 290.047L135.086 289.137C135.236 288.922 135.404 288.717 135.59 288.521C135.777 288.325 135.996 288.157 136.248 288.017C136.5 287.867 136.785 287.751 137.102 287.667C137.42 287.573 137.784 287.527 138.194 287.527C138.652 287.527 139.076 287.583 139.468 287.695C139.86 287.807 140.196 287.975 140.476 288.199C140.756 288.413 140.976 288.679 141.134 288.997C141.293 289.305 141.372 289.655 141.372 290.047C141.372 290.355 141.321 290.635 141.218 290.887C141.125 291.139 140.99 291.363 140.812 291.559C140.644 291.745 140.444 291.899 140.21 292.021C139.986 292.142 139.748 292.231 139.496 292.287V292.357C139.776 292.413 140.038 292.506 140.28 292.637C140.532 292.758 140.752 292.921 140.938 293.127C141.125 293.323 141.27 293.561 141.372 293.841C141.484 294.111 141.54 294.424 141.54 294.779C141.54 295.208 141.456 295.6 141.288 295.955C141.12 296.3 140.882 296.599 140.574 296.851C140.276 297.103 139.912 297.299 139.482 297.439C139.053 297.569 138.577 297.635 138.054 297.635C137.597 297.635 137.196 297.583 136.85 297.481C136.505 297.387 136.197 297.261 135.926 297.103C135.665 296.935 135.432 296.748 135.226 296.543C135.03 296.328 134.858 296.109 134.708 295.885L135.87 294.975C135.992 295.171 136.118 295.353 136.248 295.521C136.388 295.679 136.542 295.819 136.71 295.941C136.888 296.053 137.084 296.141 137.298 296.207C137.522 296.272 137.774 296.305 138.054 296.305C138.652 296.305 139.109 296.165 139.426 295.885C139.744 295.595 139.902 295.199 139.902 294.695V294.597C139.902 294.093 139.734 293.71 139.398 293.449C139.062 293.187 138.586 293.057 137.97 293.057H136.934V291.713H137.928ZM147.075 297.635C146.468 297.635 145.941 297.523 145.493 297.299C145.045 297.065 144.676 296.734 144.387 296.305C144.097 295.875 143.883 295.348 143.743 294.723C143.603 294.097 143.533 293.383 143.533 292.581C143.533 291.787 143.603 291.078 143.743 290.453C143.883 289.818 144.097 289.286 144.387 288.857C144.676 288.427 145.045 288.101 145.493 287.877C145.941 287.643 146.468 287.527 147.075 287.527C148.288 287.527 149.179 287.97 149.749 288.857C150.327 289.743 150.617 290.985 150.617 292.581C150.617 294.177 150.327 295.418 149.749 296.305C149.179 297.191 148.288 297.635 147.075 297.635ZM147.075 296.291C147.411 296.291 147.695 296.225 147.929 296.095C148.171 295.955 148.367 295.759 148.517 295.507C148.666 295.255 148.773 294.956 148.839 294.611C148.904 294.256 148.937 293.864 148.937 293.435V291.727C148.937 291.297 148.904 290.91 148.839 290.565C148.773 290.21 148.666 289.907 148.517 289.655C148.367 289.403 148.171 289.211 147.929 289.081C147.695 288.941 147.411 288.871 147.075 288.871C146.739 288.871 146.449 288.941 146.207 289.081C145.973 289.211 145.782 289.403 145.633 289.655C145.483 289.907 145.376 290.21 145.311 290.565C145.245 290.91 145.213 291.297 145.213 291.727V293.435C145.213 293.864 145.245 294.256 145.311 294.611C145.376 294.956 145.483 295.255 145.633 295.507C145.782 295.759 145.973 295.955 146.207 296.095C146.449 296.225 146.739 296.291 147.075 296.291Z" fill="#FF4602"/>
<path d="M96.0989 297.467H89.4629V295.955L92.5849 293.169C93.0796 292.721 93.4576 292.296 93.7189 291.895C93.9896 291.484 94.1249 291.055 94.1249 290.607V290.425C94.1249 289.949 93.9803 289.575 93.6909 289.305C93.4109 289.034 93.0283 288.899 92.5429 288.899C92.2723 288.899 92.0343 288.941 91.8289 289.025C91.6329 289.099 91.4603 289.207 91.3109 289.347C91.1616 289.487 91.0356 289.65 90.9329 289.837C90.8396 290.023 90.7649 290.224 90.7089 290.439L89.3229 289.907C89.4256 289.599 89.5656 289.305 89.7429 289.025C89.9203 288.735 90.1443 288.479 90.4149 288.255C90.6856 288.031 91.0029 287.853 91.3669 287.723C91.7403 287.592 92.1743 287.527 92.6689 287.527C93.1636 287.527 93.6069 287.601 93.9989 287.751C94.3909 287.891 94.7176 288.091 94.9789 288.353C95.2496 288.605 95.4549 288.908 95.5949 289.263C95.7349 289.617 95.8049 290.005 95.8049 290.425C95.8049 290.817 95.7443 291.181 95.6229 291.517C95.5016 291.853 95.3336 292.17 95.1189 292.469C94.9043 292.767 94.6523 293.052 94.3629 293.323C94.0829 293.593 93.7843 293.869 93.4669 294.149L91.1709 296.123H96.0989V297.467ZM104.755 291.335C104.755 292.044 104.648 292.711 104.433 293.337C104.219 293.962 103.943 294.536 103.607 295.059C103.271 295.581 102.893 296.048 102.473 296.459C102.063 296.869 101.657 297.205 101.255 297.467H99.1555C99.7061 297.065 100.201 296.678 100.639 296.305C101.078 295.931 101.461 295.549 101.787 295.157C102.114 294.765 102.385 294.349 102.599 293.911C102.823 293.472 102.996 292.991 103.117 292.469L103.019 292.441C102.917 292.637 102.795 292.823 102.655 293.001C102.525 293.169 102.366 293.318 102.179 293.449C102.002 293.579 101.797 293.682 101.563 293.757C101.33 293.831 101.059 293.869 100.751 293.869C100.341 293.869 99.9581 293.799 99.6035 293.659C99.2581 293.519 98.9548 293.318 98.6935 293.057C98.4415 292.786 98.2408 292.469 98.0915 292.105C97.9515 291.731 97.8815 291.311 97.8815 290.845C97.8815 290.359 97.9608 289.911 98.1195 289.501C98.2875 289.09 98.5208 288.74 98.8195 288.451C99.1181 288.161 99.4775 287.937 99.8975 287.779C100.317 287.611 100.789 287.527 101.311 287.527C101.853 287.527 102.333 287.615 102.753 287.793C103.183 287.97 103.542 288.227 103.831 288.563C104.13 288.889 104.359 289.286 104.517 289.753C104.676 290.219 104.755 290.747 104.755 291.335ZM101.311 292.595C101.881 292.595 102.324 292.445 102.641 292.147C102.959 291.839 103.117 291.391 103.117 290.803V290.607C103.117 290.019 102.959 289.575 102.641 289.277C102.324 288.969 101.881 288.815 101.311 288.815C100.742 288.815 100.299 288.969 99.9815 289.277C99.6641 289.575 99.5055 290.019 99.5055 290.607V290.803C99.5055 291.391 99.6641 291.839 99.9815 292.147C100.299 292.445 100.742 292.595 101.311 292.595Z" fill="#FF4602"/>
<path d="M50.3636 297.467H43.7276V295.955L46.8496 293.169C47.3443 292.721 47.7223 292.296 47.9836 291.895C48.2543 291.484 48.3896 291.055 48.3896 290.607V290.425C48.3896 289.949 48.2449 289.575 47.9556 289.305C47.6756 289.034 47.2929 288.899 46.8076 288.899C46.5369 288.899 46.2989 288.941 46.0936 289.025C45.8976 289.099 45.7249 289.207 45.5756 289.347C45.4263 289.487 45.3003 289.65 45.1976 289.837C45.1043 290.023 45.0296 290.224 44.9736 290.439L43.5876 289.907C43.6903 289.599 43.8303 289.305 44.0076 289.025C44.1849 288.735 44.4089 288.479 44.6796 288.255C44.9503 288.031 45.2676 287.853 45.6316 287.723C46.0049 287.592 46.4389 287.527 46.9336 287.527C47.4283 287.527 47.8716 287.601 48.2636 287.751C48.6556 287.891 48.9823 288.091 49.2436 288.353C49.5143 288.605 49.7196 288.908 49.8596 289.263C49.9996 289.617 50.0696 290.005 50.0696 290.425C50.0696 290.817 50.0089 291.181 49.8876 291.517C49.7663 291.853 49.5983 292.17 49.3836 292.469C49.1689 292.767 48.9169 293.052 48.6276 293.323C48.3476 293.593 48.0489 293.869 47.7316 294.149L45.4356 296.123H50.3636V297.467ZM55.6041 297.635C55.0348 297.635 54.5308 297.565 54.0921 297.425C53.6628 297.275 53.2988 297.075 53.0001 296.823C52.7108 296.571 52.4868 296.272 52.3281 295.927C52.1788 295.581 52.1041 295.208 52.1041 294.807C52.1041 294.153 52.2815 293.631 52.6361 293.239C53.0001 292.837 53.4761 292.557 54.0641 292.399V292.287C53.5601 292.109 53.1541 291.829 52.8461 291.447C52.5475 291.064 52.3981 290.593 52.3981 290.033C52.3981 289.659 52.4681 289.319 52.6081 289.011C52.7575 288.703 52.9675 288.441 53.2381 288.227C53.5088 288.003 53.8448 287.83 54.2461 287.709C54.6475 287.587 55.1001 287.527 55.6041 287.527C56.1081 287.527 56.5608 287.587 56.9621 287.709C57.3635 287.83 57.6995 288.003 57.9701 288.227C58.2408 288.441 58.4461 288.703 58.5861 289.011C58.7355 289.319 58.8101 289.659 58.8101 290.033C58.8101 290.593 58.6561 291.064 58.3481 291.447C58.0495 291.829 57.6481 292.109 57.1441 292.287V292.399C57.7321 292.557 58.2035 292.837 58.5581 293.239C58.9221 293.631 59.1041 294.153 59.1041 294.807C59.1041 295.208 59.0248 295.581 58.8661 295.927C58.7168 296.272 58.4928 296.571 58.1941 296.823C57.9048 297.075 57.5408 297.275 57.1021 297.425C56.6728 297.565 56.1735 297.635 55.6041 297.635ZM55.6041 296.361C56.1921 296.361 56.6448 296.225 56.9621 295.955C57.2888 295.684 57.4521 295.306 57.4521 294.821V294.541C57.4521 294.055 57.2888 293.677 56.9621 293.407C56.6448 293.136 56.1921 293.001 55.6041 293.001C55.0161 293.001 54.5588 293.136 54.2321 293.407C53.9148 293.677 53.7561 294.055 53.7561 294.541V294.821C53.7561 295.306 53.9148 295.684 54.2321 295.955C54.5588 296.225 55.0161 296.361 55.6041 296.361ZM55.6041 291.783C56.1455 291.783 56.5561 291.666 56.8361 291.433C57.1255 291.199 57.2701 290.859 57.2701 290.411V290.173C57.2701 289.725 57.1255 289.384 56.8361 289.151C56.5561 288.917 56.1455 288.801 55.6041 288.801C55.0628 288.801 54.6475 288.917 54.3581 289.151C54.0781 289.384 53.9381 289.725 53.9381 290.173V290.411C53.9381 290.859 54.0781 291.199 54.3581 291.433C54.6475 291.666 55.0628 291.783 55.6041 291.783Z" fill="#FF4602"/>
<path d="M324.776 249.445H318.14V247.933L321.262 245.147C321.756 244.699 322.134 244.274 322.396 243.873C322.666 243.462 322.802 243.033 322.802 242.585V242.403C322.802 241.927 322.657 241.553 322.368 241.283C322.088 241.012 321.705 240.877 321.22 240.877C320.949 240.877 320.711 240.919 320.506 241.003C320.31 241.077 320.137 241.185 319.988 241.325C319.838 241.465 319.712 241.628 319.61 241.815C319.516 242.001 319.442 242.202 319.386 242.417L318 241.885C318.102 241.577 318.242 241.283 318.42 241.003C318.597 240.713 318.821 240.457 319.092 240.233C319.362 240.009 319.68 239.831 320.044 239.701C320.417 239.57 320.851 239.505 321.346 239.505C321.84 239.505 322.284 239.579 322.676 239.729C323.068 239.869 323.394 240.069 323.656 240.331C323.926 240.583 324.132 240.886 324.272 241.241C324.412 241.595 324.482 241.983 324.482 242.403C324.482 242.795 324.421 243.159 324.3 243.495C324.178 243.831 324.01 244.148 323.796 244.447C323.581 244.745 323.329 245.03 323.04 245.301C322.76 245.571 322.461 245.847 322.144 246.127L319.848 248.101H324.776V249.445ZM328.21 249.445L331.752 240.975H328.056V242.781H326.698V239.673H333.32V241.045L329.876 249.445H328.21Z" fill="#FF4602"/>
<path d="M279.04 249.445H272.404V247.933L275.526 245.147C276.021 244.699 276.399 244.274 276.66 243.873C276.931 243.462 277.066 243.033 277.066 242.585V242.403C277.066 241.927 276.922 241.553 276.632 241.283C276.352 241.012 275.97 240.877 275.484 240.877C275.214 240.877 274.976 240.919 274.77 241.003C274.574 241.077 274.402 241.185 274.252 241.325C274.103 241.465 273.977 241.628 273.874 241.815C273.781 242.001 273.706 242.202 273.65 242.417L272.264 241.885C272.367 241.577 272.507 241.283 272.684 241.003C272.862 240.713 273.086 240.457 273.356 240.233C273.627 240.009 273.944 239.831 274.308 239.701C274.682 239.57 275.116 239.505 275.61 239.505C276.105 239.505 276.548 239.579 276.94 239.729C277.332 239.869 277.659 240.069 277.92 240.331C278.191 240.583 278.396 240.886 278.536 241.241C278.676 241.595 278.746 241.983 278.746 242.403C278.746 242.795 278.686 243.159 278.564 243.495C278.443 243.831 278.275 244.148 278.06 244.447C277.846 244.745 277.594 245.03 277.304 245.301C277.024 245.571 276.726 245.847 276.408 246.127L274.112 248.101H279.04V249.445ZM284.309 249.613C283.768 249.613 283.282 249.524 282.853 249.347C282.433 249.169 282.074 248.917 281.775 248.591C281.486 248.255 281.262 247.853 281.103 247.387C280.944 246.92 280.865 246.393 280.865 245.805C280.865 245.095 280.972 244.428 281.187 243.803C281.402 243.177 281.677 242.603 282.013 242.081C282.349 241.558 282.722 241.096 283.133 240.695C283.553 240.284 283.964 239.943 284.365 239.673H286.465C285.914 240.074 285.42 240.461 284.981 240.835C284.542 241.208 284.16 241.591 283.833 241.983C283.506 242.375 283.231 242.79 283.007 243.229C282.792 243.667 282.624 244.148 282.503 244.671L282.601 244.699C282.704 244.503 282.82 244.321 282.951 244.153C283.091 243.975 283.25 243.821 283.427 243.691C283.614 243.56 283.824 243.457 284.057 243.383C284.29 243.308 284.561 243.271 284.869 243.271C285.28 243.271 285.658 243.341 286.003 243.481C286.358 243.621 286.661 243.826 286.913 244.097C287.174 244.358 287.375 244.675 287.515 245.049C287.664 245.422 287.739 245.837 287.739 246.295C287.739 246.789 287.655 247.242 287.487 247.653C287.328 248.054 287.1 248.399 286.801 248.689C286.502 248.978 286.138 249.207 285.709 249.375C285.289 249.533 284.822 249.613 284.309 249.613ZM284.309 248.325C284.878 248.325 285.322 248.175 285.639 247.877C285.956 247.569 286.115 247.121 286.115 246.533V246.337C286.115 245.749 285.956 245.305 285.639 245.007C285.322 244.699 284.878 244.545 284.309 244.545C283.74 244.545 283.296 244.699 282.979 245.007C282.662 245.305 282.503 245.749 282.503 246.337V246.533C282.503 247.121 282.662 247.569 282.979 247.877C283.296 248.175 283.74 248.325 284.309 248.325Z" fill="#FF4602"/>
<path d="M233.305 249.445H226.669V247.933L229.791 245.147C230.286 244.699 230.664 244.274 230.925 243.873C231.196 243.462 231.331 243.033 231.331 242.585V242.403C231.331 241.927 231.186 241.553 230.897 241.283C230.617 241.012 230.234 240.877 229.749 240.877C229.478 240.877 229.24 240.919 229.035 241.003C228.839 241.077 228.666 241.185 228.517 241.325C228.368 241.465 228.242 241.628 228.139 241.815C228.046 242.001 227.971 242.202 227.915 242.417L226.529 241.885C226.632 241.577 226.772 241.283 226.949 241.003C227.126 240.713 227.35 240.457 227.621 240.233C227.892 240.009 228.209 239.831 228.573 239.701C228.946 239.57 229.38 239.505 229.875 239.505C230.37 239.505 230.813 239.579 231.205 239.729C231.597 239.869 231.924 240.069 232.185 240.331C232.456 240.583 232.661 240.886 232.801 241.241C232.941 241.595 233.011 241.983 233.011 242.403C233.011 242.795 232.95 243.159 232.829 243.495C232.708 243.831 232.54 244.148 232.325 244.447C232.11 244.745 231.858 245.03 231.569 245.301C231.289 245.571 230.99 245.847 230.673 246.127L228.377 248.101H233.305V249.445ZM241.458 241.045H237.118L236.866 244.503H236.964C237.076 244.307 237.192 244.134 237.314 243.985C237.435 243.826 237.575 243.691 237.734 243.579C237.892 243.467 238.074 243.383 238.28 243.327C238.485 243.261 238.728 243.229 239.008 243.229C239.428 243.229 239.815 243.299 240.17 243.439C240.534 243.579 240.846 243.779 241.108 244.041C241.378 244.302 241.588 244.624 241.738 245.007C241.887 245.38 241.962 245.805 241.962 246.281C241.962 246.766 241.882 247.214 241.724 247.625C241.574 248.035 241.35 248.39 241.052 248.689C240.753 248.978 240.384 249.207 239.946 249.375C239.516 249.533 239.026 249.613 238.476 249.613C238.037 249.613 237.65 249.561 237.314 249.459C236.978 249.365 236.679 249.239 236.418 249.081C236.166 248.913 235.942 248.726 235.746 248.521C235.559 248.306 235.391 248.087 235.242 247.863L236.39 246.953C236.511 247.149 236.637 247.326 236.768 247.485C236.898 247.643 237.048 247.783 237.216 247.905C237.384 248.026 237.57 248.119 237.776 248.185C237.99 248.25 238.233 248.283 238.504 248.283C239.082 248.283 239.526 248.124 239.834 247.807C240.151 247.489 240.31 247.051 240.31 246.491V246.323C240.31 245.763 240.151 245.324 239.834 245.007C239.526 244.689 239.082 244.531 238.504 244.531C238.084 244.531 237.748 244.61 237.496 244.769C237.244 244.927 237.029 245.105 236.852 245.301L235.55 245.119L235.914 239.673H241.458V241.045Z" fill="#FF4602"/>
<path d="M187.57 249.445H180.934V247.933L184.056 245.147C184.55 244.699 184.928 244.274 185.19 243.873C185.46 243.462 185.596 243.033 185.596 242.585V242.403C185.596 241.927 185.451 241.553 185.162 241.283C184.882 241.012 184.499 240.877 184.014 240.877C183.743 240.877 183.505 240.919 183.3 241.003C183.104 241.077 182.931 241.185 182.782 241.325C182.632 241.465 182.506 241.628 182.404 241.815C182.31 242.001 182.236 242.202 182.18 242.417L180.794 241.885C180.896 241.577 181.036 241.283 181.214 241.003C181.391 240.713 181.615 240.457 181.886 240.233C182.156 240.009 182.474 239.831 182.838 239.701C183.211 239.57 183.645 239.505 184.14 239.505C184.634 239.505 185.078 239.579 185.47 239.729C185.862 239.869 186.188 240.069 186.45 240.331C186.72 240.583 186.926 240.886 187.066 241.241C187.206 241.595 187.276 241.983 187.276 242.403C187.276 242.795 187.215 243.159 187.094 243.495C186.972 243.831 186.804 244.148 186.59 244.447C186.375 244.745 186.123 245.03 185.834 245.301C185.554 245.571 185.255 245.847 184.938 246.127L182.642 248.101H187.57V249.445ZM193.636 249.445V247.541H189.1V246.183L193.062 239.673H195.134V246.295H196.464V247.541H195.134V249.445H193.636ZM190.444 246.295H193.636V241.115H193.538L190.444 246.295Z" fill="#FF4602"/>
<path d="M96.0989 249.445H89.4629V247.933L92.5849 245.147C93.0796 244.699 93.4576 244.274 93.7189 243.873C93.9896 243.462 94.1249 243.033 94.1249 242.585V242.403C94.1249 241.927 93.9803 241.553 93.6909 241.283C93.4109 241.012 93.0283 240.877 92.5429 240.877C92.2723 240.877 92.0343 240.919 91.8289 241.003C91.6329 241.077 91.4603 241.185 91.3109 241.325C91.1616 241.465 91.0356 241.628 90.9329 241.815C90.8396 242.001 90.7649 242.202 90.7089 242.417L89.3229 241.885C89.4256 241.577 89.5656 241.283 89.7429 241.003C89.9203 240.713 90.1443 240.457 90.4149 240.233C90.6856 240.009 91.0029 239.831 91.3669 239.701C91.7403 239.57 92.1743 239.505 92.6689 239.505C93.1636 239.505 93.6069 239.579 93.9989 239.729C94.3909 239.869 94.7176 240.069 94.9789 240.331C95.2496 240.583 95.4549 240.886 95.5949 241.241C95.7349 241.595 95.8049 241.983 95.8049 242.403C95.8049 242.795 95.7443 243.159 95.6229 243.495C95.5016 243.831 95.3336 244.148 95.1189 244.447C94.9043 244.745 94.6523 245.03 94.3629 245.301C94.0829 245.571 93.7843 245.847 93.4669 246.127L91.1709 248.101H96.0989V249.445ZM104.713 249.445H98.0775V247.933L101.199 245.147C101.694 244.699 102.072 244.274 102.333 243.873C102.604 243.462 102.739 243.033 102.739 242.585V242.403C102.739 241.927 102.595 241.553 102.305 241.283C102.025 241.012 101.643 240.877 101.157 240.877C100.887 240.877 100.649 240.919 100.443 241.003C100.247 241.077 100.075 241.185 99.9255 241.325C99.7761 241.465 99.6501 241.628 99.5475 241.815C99.4541 242.001 99.3795 242.202 99.3235 242.417L97.9375 241.885C98.0401 241.577 98.1801 241.283 98.3575 241.003C98.5348 240.713 98.7588 240.457 99.0295 240.233C99.3001 240.009 99.6175 239.831 99.9815 239.701C100.355 239.57 100.789 239.505 101.283 239.505C101.778 239.505 102.221 239.579 102.613 239.729C103.005 239.869 103.332 240.069 103.593 240.331C103.864 240.583 104.069 240.886 104.209 241.241C104.349 241.595 104.419 241.983 104.419 242.403C104.419 242.795 104.359 243.159 104.237 243.495C104.116 243.831 103.948 244.148 103.733 244.447C103.519 244.745 103.267 245.03 102.977 245.301C102.697 245.571 102.399 245.847 102.081 246.127L99.7855 248.101H104.713V249.445Z" fill="#FF4602"/>
<path d="M50.3636 249.445H43.7276V247.933L46.8496 245.147C47.3443 244.699 47.7223 244.274 47.9836 243.873C48.2543 243.462 48.3896 243.033 48.3896 242.585V242.403C48.3896 241.927 48.2449 241.553 47.9556 241.283C47.6756 241.012 47.2929 240.877 46.8076 240.877C46.5369 240.877 46.2989 240.919 46.0936 241.003C45.8976 241.077 45.7249 241.185 45.5756 241.325C45.4263 241.465 45.3003 241.628 45.1976 241.815C45.1043 242.001 45.0296 242.202 44.9736 242.417L43.5876 241.885C43.6903 241.577 43.8303 241.283 44.0076 241.003C44.1849 240.713 44.4089 240.457 44.6796 240.233C44.9503 240.009 45.2676 239.831 45.6316 239.701C46.0049 239.57 46.4389 239.505 46.9336 239.505C47.4283 239.505 47.8716 239.579 48.2636 239.729C48.6556 239.869 48.9823 240.069 49.2436 240.331C49.5143 240.583 49.7196 240.886 49.8596 241.241C49.9996 241.595 50.0696 241.983 50.0696 242.403C50.0696 242.795 50.0089 243.159 49.8876 243.495C49.7663 243.831 49.5983 244.148 49.3836 244.447C49.1689 244.745 48.9169 245.03 48.6276 245.301C48.3476 245.571 48.0489 245.847 47.7316 246.127L45.4356 248.101H50.3636V249.445ZM52.6361 249.445V248.129H55.3801V240.821H55.2681L53.0001 243.243L52.0341 242.375L54.5261 239.673H56.9341V248.129H59.3141V249.445H52.6361Z" fill="#FF4602"/>
<path d="M141.834 249.445H135.198V247.933L138.32 245.147C138.815 244.699 139.193 244.274 139.454 243.873C139.725 243.462 139.86 243.033 139.86 242.585V242.403C139.86 241.927 139.716 241.553 139.426 241.283C139.146 241.012 138.764 240.877 138.278 240.877C138.008 240.877 137.77 240.919 137.564 241.003C137.368 241.077 137.196 241.185 137.046 241.325C136.897 241.465 136.771 241.628 136.668 241.815C136.575 242.001 136.5 242.202 136.444 242.417L135.058 241.885C135.161 241.577 135.301 241.283 135.478 241.003C135.656 240.713 135.88 240.457 136.15 240.233C136.421 240.009 136.738 239.831 137.102 239.701C137.476 239.57 137.91 239.505 138.404 239.505C138.899 239.505 139.342 239.579 139.734 239.729C140.126 239.869 140.453 240.069 140.714 240.331C140.985 240.583 141.19 240.886 141.33 241.241C141.47 241.595 141.54 241.983 141.54 242.403C141.54 242.795 141.48 243.159 141.358 243.495C141.237 243.831 141.069 244.148 140.854 244.447C140.64 244.745 140.388 245.03 140.098 245.301C139.818 245.571 139.52 245.847 139.202 246.127L136.906 248.101H141.834V249.445ZM146.543 243.691C147.149 243.691 147.597 243.565 147.887 243.313C148.176 243.051 148.321 242.72 148.321 242.319V242.221C148.321 241.773 148.181 241.432 147.901 241.199C147.621 240.956 147.243 240.835 146.767 240.835C146.3 240.835 145.903 240.942 145.577 241.157C145.25 241.362 144.975 241.651 144.751 242.025L143.701 241.115C143.85 240.9 144.018 240.695 144.205 240.499C144.391 240.303 144.611 240.135 144.863 239.995C145.115 239.845 145.399 239.729 145.717 239.645C146.034 239.551 146.398 239.505 146.809 239.505C147.266 239.505 147.691 239.561 148.083 239.673C148.475 239.785 148.811 239.953 149.091 240.177C149.371 240.391 149.59 240.657 149.749 240.975C149.907 241.283 149.987 241.633 149.987 242.025C149.987 242.333 149.935 242.613 149.833 242.865C149.739 243.117 149.604 243.341 149.427 243.537C149.259 243.723 149.058 243.877 148.825 243.999C148.601 244.12 148.363 244.209 148.111 244.265V244.335C148.391 244.391 148.652 244.484 148.895 244.615C149.147 244.736 149.366 244.899 149.553 245.105C149.739 245.301 149.884 245.539 149.987 245.819C150.099 246.089 150.155 246.402 150.155 246.757C150.155 247.186 150.071 247.578 149.903 247.933C149.735 248.278 149.497 248.577 149.189 248.829C148.89 249.081 148.526 249.277 148.097 249.417C147.667 249.547 147.191 249.613 146.669 249.613C146.211 249.613 145.81 249.561 145.465 249.459C145.119 249.365 144.811 249.239 144.541 249.081C144.279 248.913 144.046 248.726 143.841 248.521C143.645 248.306 143.472 248.087 143.323 247.863L144.485 246.953C144.606 247.149 144.732 247.331 144.863 247.499C145.003 247.657 145.157 247.797 145.325 247.919C145.502 248.031 145.698 248.119 145.913 248.185C146.137 248.25 146.389 248.283 146.669 248.283C147.266 248.283 147.723 248.143 148.041 247.863C148.358 247.573 148.517 247.177 148.517 246.673V246.575C148.517 246.071 148.349 245.688 148.013 245.427C147.677 245.165 147.201 245.035 146.585 245.035H145.549V243.691H146.543Z" fill="#FBB104"/>
<path d="M141.834 249.445H135.198V247.933L138.32 245.147C138.815 244.699 139.193 244.274 139.454 243.873C139.725 243.462 139.86 243.033 139.86 242.585V242.403C139.86 241.927 139.716 241.553 139.426 241.283C139.146 241.012 138.764 240.877 138.278 240.877C138.008 240.877 137.77 240.919 137.564 241.003C137.368 241.077 137.196 241.185 137.046 241.325C136.897 241.465 136.771 241.628 136.668 241.815C136.575 242.001 136.5 242.202 136.444 242.417L135.058 241.885C135.161 241.577 135.301 241.283 135.478 241.003C135.656 240.713 135.88 240.457 136.15 240.233C136.421 240.009 136.738 239.831 137.102 239.701C137.476 239.57 137.91 239.505 138.404 239.505C138.899 239.505 139.342 239.579 139.734 239.729C140.126 239.869 140.453 240.069 140.714 240.331C140.985 240.583 141.19 240.886 141.33 241.241C141.47 241.595 141.54 241.983 141.54 242.403C141.54 242.795 141.48 243.159 141.358 243.495C141.237 243.831 141.069 244.148 140.854 244.447C140.64 244.745 140.388 245.03 140.098 245.301C139.818 245.571 139.52 245.847 139.202 246.127L136.906 248.101H141.834V249.445ZM146.543 243.691C147.149 243.691 147.597 243.565 147.887 243.313C148.176 243.051 148.321 242.72 148.321 242.319V242.221C148.321 241.773 148.181 241.432 147.901 241.199C147.621 240.956 147.243 240.835 146.767 240.835C146.3 240.835 145.903 240.942 145.577 241.157C145.25 241.362 144.975 241.651 144.751 242.025L143.701 241.115C143.85 240.9 144.018 240.695 144.205 240.499C144.391 240.303 144.611 240.135 144.863 239.995C145.115 239.845 145.399 239.729 145.717 239.645C146.034 239.551 146.398 239.505 146.809 239.505C147.266 239.505 147.691 239.561 148.083 239.673C148.475 239.785 148.811 239.953 149.091 240.177C149.371 240.391 149.59 240.657 149.749 240.975C149.907 241.283 149.987 241.633 149.987 242.025C149.987 242.333 149.935 242.613 149.833 242.865C149.739 243.117 149.604 243.341 149.427 243.537C149.259 243.723 149.058 243.877 148.825 243.999C148.601 244.12 148.363 244.209 148.111 244.265V244.335C148.391 244.391 148.652 244.484 148.895 244.615C149.147 244.736 149.366 244.899 149.553 245.105C149.739 245.301 149.884 245.539 149.987 245.819C150.099 246.089 150.155 246.402 150.155 246.757C150.155 247.186 150.071 247.578 149.903 247.933C149.735 248.278 149.497 248.577 149.189 248.829C148.89 249.081 148.526 249.277 148.097 249.417C147.667 249.547 147.191 249.613 146.669 249.613C146.211 249.613 145.81 249.561 145.465 249.459C145.119 249.365 144.811 249.239 144.541 249.081C144.279 248.913 144.046 248.726 143.841 248.521C143.645 248.306 143.472 248.087 143.323 247.863L144.485 246.953C144.606 247.149 144.732 247.331 144.863 247.499C145.003 247.657 145.157 247.797 145.325 247.919C145.502 248.031 145.698 248.119 145.913 248.185C146.137 248.25 146.389 248.283 146.669 248.283C147.266 248.283 147.723 248.143 148.041 247.863C148.358 247.573 148.517 247.177 148.517 246.673V246.575C148.517 246.071 148.349 245.688 148.013 245.427C147.677 245.165 147.201 245.035 146.585 245.035H145.549V243.691H146.543Z" fill="#FF4602"/>
<circle cx="325.706" cy="196" r="17.2941" fill="#FBB104" stroke="#0625BA" stroke-width="2"/>
<path d="M324.776 201.423H318.14V199.911L321.262 197.125C321.756 196.677 322.134 196.252 322.396 195.851C322.666 195.44 322.802 195.011 322.802 194.563V194.381C322.802 193.905 322.657 193.531 322.368 193.261C322.088 192.99 321.705 192.855 321.22 192.855C320.949 192.855 320.711 192.897 320.506 192.981C320.31 193.055 320.137 193.163 319.988 193.303C319.838 193.443 319.712 193.606 319.61 193.793C319.516 193.979 319.442 194.18 319.386 194.395L318 193.863C318.102 193.555 318.242 193.261 318.42 192.981C318.597 192.691 318.821 192.435 319.092 192.211C319.362 191.987 319.68 191.809 320.044 191.679C320.417 191.548 320.851 191.483 321.346 191.483C321.84 191.483 322.284 191.557 322.676 191.707C323.068 191.847 323.394 192.047 323.656 192.309C323.926 192.561 324.132 192.864 324.272 193.219C324.412 193.573 324.482 193.961 324.482 194.381C324.482 194.773 324.421 195.137 324.3 195.473C324.178 195.809 324.01 196.126 323.796 196.425C323.581 196.723 323.329 197.008 323.04 197.279C322.76 197.549 322.461 197.825 322.144 198.105L319.848 200.079H324.776V201.423ZM330.016 201.591C329.41 201.591 328.882 201.479 328.434 201.255C327.986 201.021 327.618 200.69 327.328 200.261C327.039 199.831 326.824 199.304 326.684 198.679C326.544 198.053 326.474 197.339 326.474 196.537C326.474 195.743 326.544 195.034 326.684 194.409C326.824 193.774 327.039 193.242 327.328 192.813C327.618 192.383 327.986 192.057 328.434 191.833C328.882 191.599 329.41 191.483 330.016 191.483C331.23 191.483 332.121 191.926 332.69 192.813C333.269 193.699 333.558 194.941 333.558 196.537C333.558 198.133 333.269 199.374 332.69 200.261C332.121 201.147 331.23 201.591 330.016 201.591ZM330.016 200.247C330.352 200.247 330.637 200.181 330.87 200.051C331.113 199.911 331.309 199.715 331.458 199.463C331.608 199.211 331.715 198.912 331.78 198.567C331.846 198.212 331.878 197.82 331.878 197.391V195.683C331.878 195.253 331.846 194.866 331.78 194.521C331.715 194.166 331.608 193.863 331.458 193.611C331.309 193.359 331.113 193.167 330.87 193.037C330.637 192.897 330.352 192.827 330.016 192.827C329.68 192.827 329.391 192.897 329.148 193.037C328.915 193.167 328.724 193.359 328.574 193.611C328.425 193.863 328.318 194.166 328.252 194.521C328.187 194.866 328.154 195.253 328.154 195.683V197.391C328.154 197.82 328.187 198.212 328.252 198.567C328.318 198.912 328.425 199.211 328.574 199.463C328.724 199.715 328.915 199.911 329.148 200.051C329.391 200.181 329.68 200.247 330.016 200.247Z" fill="#0625BA"/>
<path d="M272.698 201.423V200.107H275.442V192.799H275.33L273.062 195.221L272.096 194.353L274.588 191.651H276.996V200.107H279.376V201.423H272.698ZM287.697 195.291C287.697 196 287.59 196.667 287.375 197.293C287.16 197.918 286.885 198.492 286.549 199.015C286.213 199.537 285.835 200.004 285.415 200.415C285.004 200.825 284.598 201.161 284.197 201.423H282.097C282.648 201.021 283.142 200.634 283.581 200.261C284.02 199.887 284.402 199.505 284.729 199.113C285.056 198.721 285.326 198.305 285.541 197.867C285.765 197.428 285.938 196.947 286.059 196.425L285.961 196.397C285.858 196.593 285.737 196.779 285.597 196.957C285.466 197.125 285.308 197.274 285.121 197.405C284.944 197.535 284.738 197.638 284.505 197.713C284.272 197.787 284.001 197.825 283.693 197.825C283.282 197.825 282.9 197.755 282.545 197.615C282.2 197.475 281.896 197.274 281.635 197.013C281.383 196.742 281.182 196.425 281.033 196.061C280.893 195.687 280.823 195.267 280.823 194.801C280.823 194.315 280.902 193.867 281.061 193.457C281.229 193.046 281.462 192.696 281.761 192.407C282.06 192.117 282.419 191.893 282.839 191.735C283.259 191.567 283.73 191.483 284.253 191.483C284.794 191.483 285.275 191.571 285.695 191.749C286.124 191.926 286.484 192.183 286.773 192.519C287.072 192.845 287.3 193.242 287.459 193.709C287.618 194.175 287.697 194.703 287.697 195.291ZM284.253 196.551C284.822 196.551 285.266 196.401 285.583 196.103C285.9 195.795 286.059 195.347 286.059 194.759V194.563C286.059 193.975 285.9 193.531 285.583 193.233C285.266 192.925 284.822 192.771 284.253 192.771C283.684 192.771 283.24 192.925 282.923 193.233C282.606 193.531 282.447 193.975 282.447 194.563V194.759C282.447 195.347 282.606 195.795 282.923 196.103C283.24 196.401 283.684 196.551 284.253 196.551Z" fill="#0625BA"/>
<path d="M226.963 201.423V200.107H229.707V192.799H229.595L227.327 195.221L226.361 194.353L228.853 191.651H231.261V200.107H233.641V201.423H226.963ZM238.546 201.591C237.976 201.591 237.472 201.521 237.034 201.381C236.604 201.231 236.24 201.031 235.942 200.779C235.652 200.527 235.428 200.228 235.27 199.883C235.12 199.537 235.046 199.164 235.046 198.763C235.046 198.109 235.223 197.587 235.578 197.195C235.942 196.793 236.418 196.513 237.006 196.355V196.243C236.502 196.065 236.096 195.785 235.788 195.403C235.489 195.02 235.34 194.549 235.34 193.989C235.34 193.615 235.41 193.275 235.55 192.967C235.699 192.659 235.909 192.397 236.18 192.183C236.45 191.959 236.786 191.786 237.188 191.665C237.589 191.543 238.042 191.483 238.546 191.483C239.05 191.483 239.502 191.543 239.904 191.665C240.305 191.786 240.641 191.959 240.912 192.183C241.182 192.397 241.388 192.659 241.528 192.967C241.677 193.275 241.752 193.615 241.752 193.989C241.752 194.549 241.598 195.02 241.29 195.403C240.991 195.785 240.59 196.065 240.086 196.243V196.355C240.674 196.513 241.145 196.793 241.5 197.195C241.864 197.587 242.046 198.109 242.046 198.763C242.046 199.164 241.966 199.537 241.808 199.883C241.658 200.228 241.434 200.527 241.136 200.779C240.846 201.031 240.482 201.231 240.044 201.381C239.614 201.521 239.115 201.591 238.546 201.591ZM238.546 200.317C239.134 200.317 239.586 200.181 239.904 199.911C240.23 199.64 240.394 199.262 240.394 198.777V198.497C240.394 198.011 240.23 197.633 239.904 197.363C239.586 197.092 239.134 196.957 238.546 196.957C237.958 196.957 237.5 197.092 237.174 197.363C236.856 197.633 236.698 198.011 236.698 198.497V198.777C236.698 199.262 236.856 199.64 237.174 199.911C237.5 200.181 237.958 200.317 238.546 200.317ZM238.546 195.739C239.087 195.739 239.498 195.622 239.778 195.389C240.067 195.155 240.212 194.815 240.212 194.367V194.129C240.212 193.681 240.067 193.34 239.778 193.107C239.498 192.873 239.087 192.757 238.546 192.757C238.004 192.757 237.589 192.873 237.3 193.107C237.02 193.34 236.88 193.681 236.88 194.129V194.367C236.88 194.815 237.02 195.155 237.3 195.389C237.589 195.622 238.004 195.739 238.546 195.739Z" fill="#0625BA"/>
<path d="M181.228 201.423V200.107H183.972V192.799H183.86L181.592 195.221L180.626 194.353L183.118 191.651H185.526V200.107H187.906V201.423H181.228ZM191.004 201.423L194.546 192.953H190.85V194.759H189.492V191.651H196.114V193.023L192.67 201.423H191.004Z" fill="#0625BA"/>
<path d="M135.492 201.423V200.107H138.236V192.799H138.124L135.856 195.221L134.89 194.353L137.382 191.651H139.79V200.107H142.17V201.423H135.492ZM147.103 201.591C146.561 201.591 146.076 201.502 145.647 201.325C145.227 201.147 144.867 200.895 144.569 200.569C144.279 200.233 144.055 199.831 143.897 199.365C143.738 198.898 143.659 198.371 143.659 197.783C143.659 197.073 143.766 196.406 143.981 195.781C144.195 195.155 144.471 194.581 144.807 194.059C145.143 193.536 145.516 193.074 145.927 192.673C146.347 192.262 146.757 191.921 147.159 191.651H149.259C148.708 192.052 148.213 192.439 147.775 192.813C147.336 193.186 146.953 193.569 146.627 193.961C146.3 194.353 146.025 194.768 145.801 195.207C145.586 195.645 145.418 196.126 145.297 196.649L145.395 196.677C145.497 196.481 145.614 196.299 145.745 196.131C145.885 195.953 146.043 195.799 146.221 195.669C146.407 195.538 146.617 195.435 146.851 195.361C147.084 195.286 147.355 195.249 147.663 195.249C148.073 195.249 148.451 195.319 148.797 195.459C149.151 195.599 149.455 195.804 149.707 196.075C149.968 196.336 150.169 196.653 150.309 197.027C150.458 197.4 150.533 197.815 150.533 198.273C150.533 198.767 150.449 199.22 150.281 199.631C150.122 200.032 149.893 200.377 149.595 200.667C149.296 200.956 148.932 201.185 148.503 201.353C148.083 201.511 147.616 201.591 147.103 201.591ZM147.103 200.303C147.672 200.303 148.115 200.153 148.433 199.855C148.75 199.547 148.909 199.099 148.909 198.511V198.315C148.909 197.727 148.75 197.283 148.433 196.985C148.115 196.677 147.672 196.523 147.103 196.523C146.533 196.523 146.09 196.677 145.773 196.985C145.455 197.283 145.297 197.727 145.297 198.315V198.511C145.297 199.099 145.455 199.547 145.773 199.855C146.09 200.153 146.533 200.303 147.103 200.303Z" fill="#0625BA"/>
<path d="M89.7569 201.423V200.107H92.5009V192.799H92.3889L90.1209 195.221L89.1549 194.353L91.6469 191.651H94.0549V200.107H96.4349V201.423H89.7569ZM104.251 193.023H99.9115L99.6595 196.481H99.7575C99.8695 196.285 99.9861 196.112 100.107 195.963C100.229 195.804 100.369 195.669 100.527 195.557C100.686 195.445 100.868 195.361 101.073 195.305C101.279 195.239 101.521 195.207 101.801 195.207C102.221 195.207 102.609 195.277 102.963 195.417C103.327 195.557 103.64 195.757 103.901 196.019C104.172 196.28 104.382 196.602 104.531 196.985C104.681 197.358 104.755 197.783 104.755 198.259C104.755 198.744 104.676 199.192 104.517 199.603C104.368 200.013 104.144 200.368 103.845 200.667C103.547 200.956 103.178 201.185 102.739 201.353C102.31 201.511 101.82 201.591 101.269 201.591C100.831 201.591 100.443 201.539 100.107 201.437C99.7715 201.343 99.4728 201.217 99.2115 201.059C98.9595 200.891 98.7355 200.704 98.5395 200.499C98.3528 200.284 98.1848 200.065 98.0355 199.841L99.1835 198.931C99.3048 199.127 99.4308 199.304 99.5615 199.463C99.6921 199.621 99.8415 199.761 100.009 199.883C100.177 200.004 100.364 200.097 100.569 200.163C100.784 200.228 101.027 200.261 101.297 200.261C101.876 200.261 102.319 200.102 102.627 199.785C102.945 199.467 103.103 199.029 103.103 198.469V198.301C103.103 197.741 102.945 197.302 102.627 196.985C102.319 196.667 101.876 196.509 101.297 196.509C100.877 196.509 100.541 196.588 100.289 196.747C100.037 196.905 99.8228 197.083 99.6455 197.279L98.3435 197.097L98.7075 191.651H104.251V193.023Z" fill="#0625BA"/>
<circle cx="51.2941" cy="196" r="17.2941" fill="#FBB104" stroke="#0625BA" stroke-width="2"/>
<path d="M44.0216 201.423V200.107H46.7656V192.799H46.6536L44.3856 195.221L43.4196 194.353L45.9116 191.651H48.3196V200.107H50.6996V201.423H44.0216ZM56.4301 201.423V199.519H51.8941V198.161L55.8561 191.651H57.9281V198.273H59.2581V199.519H57.9281V201.423H56.4301ZM53.2381 198.273H56.4301V193.093H56.3321L53.2381 198.273Z" fill="#0625BA"/>
<path d="M318.434 153.4V152.084H321.178V144.776H321.066L318.798 147.198L317.832 146.33L320.324 143.628H322.732V152.084H325.112V153.4H318.434ZM329.484 147.646C330.091 147.646 330.539 147.52 330.828 147.268C331.118 147.007 331.262 146.676 331.262 146.274V146.176C331.262 145.728 331.122 145.388 330.842 145.154C330.562 144.912 330.184 144.79 329.708 144.79C329.242 144.79 328.845 144.898 328.518 145.112C328.192 145.318 327.916 145.607 327.692 145.98L326.642 145.07C326.792 144.856 326.96 144.65 327.146 144.454C327.333 144.258 327.552 144.09 327.804 143.95C328.056 143.801 328.341 143.684 328.658 143.6C328.976 143.507 329.34 143.46 329.75 143.46C330.208 143.46 330.632 143.516 331.024 143.628C331.416 143.74 331.752 143.908 332.032 144.132C332.312 144.347 332.532 144.613 332.69 144.93C332.849 145.238 332.928 145.588 332.928 145.98C332.928 146.288 332.877 146.568 332.774 146.82C332.681 147.072 332.546 147.296 332.368 147.492C332.2 147.679 332 147.833 331.766 147.954C331.542 148.076 331.304 148.164 331.052 148.22V148.29C331.332 148.346 331.594 148.44 331.836 148.57C332.088 148.692 332.308 148.855 332.494 149.06C332.681 149.256 332.826 149.494 332.928 149.774C333.04 150.045 333.096 150.358 333.096 150.712C333.096 151.142 333.012 151.534 332.844 151.888C332.676 152.234 332.438 152.532 332.13 152.784C331.832 153.036 331.468 153.232 331.038 153.372C330.609 153.503 330.133 153.568 329.61 153.568C329.153 153.568 328.752 153.517 328.406 153.414C328.061 153.321 327.753 153.195 327.482 153.036C327.221 152.868 326.988 152.682 326.782 152.476C326.586 152.262 326.414 152.042 326.264 151.818L327.426 150.908C327.548 151.104 327.674 151.286 327.804 151.454C327.944 151.613 328.098 151.753 328.266 151.874C328.444 151.986 328.64 152.075 328.854 152.14C329.078 152.206 329.33 152.238 329.61 152.238C330.208 152.238 330.665 152.098 330.982 151.818C331.3 151.529 331.458 151.132 331.458 150.628V150.53C331.458 150.026 331.29 149.644 330.954 149.382C330.618 149.121 330.142 148.99 329.526 148.99H328.49V147.646H329.484Z" fill="#FF4602"/>
<path d="M272.698 153.4V152.084H275.442V144.776H275.33L273.062 147.198L272.096 146.33L274.588 143.628H276.996V152.084H279.376V153.4H272.698ZM287.655 153.4H281.019V151.888L284.141 149.102C284.636 148.654 285.014 148.23 285.275 147.828C285.546 147.418 285.681 146.988 285.681 146.54V146.358C285.681 145.882 285.536 145.509 285.247 145.238C284.967 144.968 284.584 144.832 284.099 144.832C283.828 144.832 283.59 144.874 283.385 144.958C283.189 145.033 283.016 145.14 282.867 145.28C282.718 145.42 282.592 145.584 282.489 145.77C282.396 145.957 282.321 146.158 282.265 146.372L280.879 145.84C280.982 145.532 281.122 145.238 281.299 144.958C281.476 144.669 281.7 144.412 281.971 144.188C282.242 143.964 282.559 143.787 282.923 143.656C283.296 143.526 283.73 143.46 284.225 143.46C284.72 143.46 285.163 143.535 285.555 143.684C285.947 143.824 286.274 144.025 286.535 144.286C286.806 144.538 287.011 144.842 287.151 145.196C287.291 145.551 287.361 145.938 287.361 146.358C287.361 146.75 287.3 147.114 287.179 147.45C287.058 147.786 286.89 148.104 286.675 148.402C286.46 148.701 286.208 148.986 285.919 149.256C285.639 149.527 285.34 149.802 285.023 150.082L282.727 152.056H287.655V153.4Z" fill="#FF4602"/>
<path d="M226.963 153.4V152.084H229.707V144.776H229.595L227.327 147.198L226.361 146.33L228.853 143.628H231.261V152.084H233.641V153.4H226.963ZM235.578 153.4V152.084H238.322V144.776H238.21L235.942 147.198L234.976 146.33L237.468 143.628H239.876V152.084H242.256V153.4H235.578Z" fill="#FF4602"/>
<path d="M181.228 153.4V152.084H183.972V144.776H183.86L181.592 147.198L180.626 146.33L183.118 143.628H185.526V152.084H187.906V153.4H181.228ZM192.81 153.568C192.204 153.568 191.676 153.456 191.228 153.232C190.78 152.999 190.412 152.668 190.122 152.238C189.833 151.809 189.618 151.282 189.478 150.656C189.338 150.031 189.268 149.317 189.268 148.514C189.268 147.721 189.338 147.012 189.478 146.386C189.618 145.752 189.833 145.22 190.122 144.79C190.412 144.361 190.78 144.034 191.228 143.81C191.676 143.577 192.204 143.46 192.81 143.46C194.024 143.46 194.915 143.904 195.484 144.79C196.063 145.677 196.352 146.918 196.352 148.514C196.352 150.11 196.063 151.352 195.484 152.238C194.915 153.125 194.024 153.568 192.81 153.568ZM192.81 152.224C193.146 152.224 193.431 152.159 193.664 152.028C193.907 151.888 194.103 151.692 194.252 151.44C194.402 151.188 194.509 150.89 194.574 150.544C194.64 150.19 194.672 149.798 194.672 149.368V147.66C194.672 147.231 194.64 146.844 194.574 146.498C194.509 146.144 194.402 145.84 194.252 145.588C194.103 145.336 193.907 145.145 193.664 145.014C193.431 144.874 193.146 144.804 192.81 144.804C192.474 144.804 192.185 144.874 191.942 145.014C191.709 145.145 191.518 145.336 191.368 145.588C191.219 145.84 191.112 146.144 191.046 146.498C190.981 146.844 190.948 147.231 190.948 147.66V149.368C190.948 149.798 190.981 150.19 191.046 150.544C191.112 150.89 191.219 151.188 191.368 151.44C191.518 151.692 191.709 151.888 191.942 152.028C192.185 152.159 192.474 152.224 192.81 152.224Z" fill="#FF4602"/>
<path d="M146.184 147.268C146.184 147.978 146.076 148.645 145.862 149.27C145.647 149.896 145.372 150.47 145.036 150.992C144.7 151.515 144.322 151.982 143.902 152.392C143.491 152.803 143.085 153.139 142.684 153.4H140.584C141.134 152.999 141.629 152.612 142.068 152.238C142.506 151.865 142.889 151.482 143.216 151.09C143.542 150.698 143.813 150.283 144.028 149.844C144.252 149.406 144.424 148.925 144.546 148.402L144.448 148.374C144.345 148.57 144.224 148.757 144.084 148.934C143.953 149.102 143.794 149.252 143.608 149.382C143.43 149.513 143.225 149.616 142.992 149.69C142.758 149.765 142.488 149.802 142.18 149.802C141.769 149.802 141.386 149.732 141.032 149.592C140.686 149.452 140.383 149.252 140.122 148.99C139.87 148.72 139.669 148.402 139.52 148.038C139.38 147.665 139.31 147.245 139.31 146.778C139.31 146.293 139.389 145.845 139.548 145.434C139.716 145.024 139.949 144.674 140.248 144.384C140.546 144.095 140.906 143.871 141.326 143.712C141.746 143.544 142.217 143.46 142.74 143.46C143.281 143.46 143.762 143.549 144.182 143.726C144.611 143.904 144.97 144.16 145.26 144.496C145.558 144.823 145.787 145.22 145.946 145.686C146.104 146.153 146.184 146.68 146.184 147.268ZM142.74 148.528C143.309 148.528 143.752 148.379 144.07 148.08C144.387 147.772 144.546 147.324 144.546 146.736V146.54C144.546 145.952 144.387 145.509 144.07 145.21C143.752 144.902 143.309 144.748 142.74 144.748C142.17 144.748 141.727 144.902 141.41 145.21C141.092 145.509 140.934 145.952 140.934 146.54V146.736C140.934 147.324 141.092 147.772 141.41 148.08C141.727 148.379 142.17 148.528 142.74 148.528Z" fill="#FF4602"/>
<path d="M97.0322 153.568C96.4629 153.568 95.9589 153.498 95.5202 153.358C95.0909 153.209 94.7269 153.008 94.4282 152.756C94.1389 152.504 93.9149 152.206 93.7562 151.86C93.6069 151.515 93.5322 151.142 93.5322 150.74C93.5322 150.087 93.7095 149.564 94.0642 149.172C94.4282 148.771 94.9042 148.491 95.4922 148.332V148.22C94.9882 148.043 94.5822 147.763 94.2742 147.38C93.9755 146.998 93.8262 146.526 93.8262 145.966C93.8262 145.593 93.8962 145.252 94.0362 144.944C94.1855 144.636 94.3955 144.375 94.6662 144.16C94.9369 143.936 95.2729 143.764 95.6742 143.642C96.0755 143.521 96.5282 143.46 97.0322 143.46C97.5362 143.46 97.9889 143.521 98.3902 143.642C98.7915 143.764 99.1275 143.936 99.3982 144.16C99.6689 144.375 99.8742 144.636 100.014 144.944C100.164 145.252 100.238 145.593 100.238 145.966C100.238 146.526 100.084 146.998 99.7762 147.38C99.4775 147.763 99.0762 148.043 98.5722 148.22V148.332C99.1602 148.491 99.6315 148.771 99.9862 149.172C100.35 149.564 100.532 150.087 100.532 150.74C100.532 151.142 100.453 151.515 100.294 151.86C100.145 152.206 99.9209 152.504 99.6222 152.756C99.3329 153.008 98.9689 153.209 98.5302 153.358C98.1009 153.498 97.6015 153.568 97.0322 153.568ZM97.0322 152.294C97.6202 152.294 98.0729 152.159 98.3902 151.888C98.7169 151.618 98.8802 151.24 98.8802 150.754V150.474C98.8802 149.989 98.7169 149.611 98.3902 149.34C98.0729 149.07 97.6202 148.934 97.0322 148.934C96.4442 148.934 95.9869 149.07 95.6602 149.34C95.3429 149.611 95.1842 149.989 95.1842 150.474V150.754C95.1842 151.24 95.3429 151.618 95.6602 151.888C95.9869 152.159 96.4442 152.294 97.0322 152.294ZM97.0322 147.716C97.5735 147.716 97.9842 147.6 98.2642 147.366C98.5535 147.133 98.6982 146.792 98.6982 146.344V146.106C98.6982 145.658 98.5535 145.318 98.2642 145.084C97.9842 144.851 97.5735 144.734 97.0322 144.734C96.4909 144.734 96.0755 144.851 95.7862 145.084C95.5062 145.318 95.3662 145.658 95.3662 146.106V146.344C95.3662 146.792 95.5062 147.133 95.7862 147.366C96.0755 147.6 96.4909 147.716 97.0322 147.716Z" fill="#FF4602"/>
<path d="M49.4909 153.4L53.0329 144.93H49.3369V146.736H47.9789V143.628H54.6009V145L51.1569 153.4H49.4909Z" fill="#FF4602"/>
<path d="M282.886 96.9784H278.546L278.294 100.436H278.392C278.504 100.24 278.62 100.068 278.742 99.9184C278.863 99.7598 279.003 99.6244 279.162 99.5124C279.32 99.4004 279.502 99.3164 279.708 99.2604C279.913 99.1951 280.156 99.1624 280.436 99.1624C280.856 99.1624 281.243 99.2324 281.598 99.3724C281.962 99.5124 282.274 99.7131 282.536 99.9744C282.806 100.236 283.016 100.558 283.166 100.94C283.315 101.314 283.39 101.738 283.39 102.214C283.39 102.7 283.31 103.148 283.152 103.558C283.002 103.969 282.778 104.324 282.48 104.622C282.181 104.912 281.812 105.14 281.374 105.308C280.944 105.467 280.454 105.546 279.904 105.546C279.465 105.546 279.078 105.495 278.742 105.392C278.406 105.299 278.107 105.173 277.846 105.014C277.594 104.846 277.37 104.66 277.174 104.454C276.987 104.24 276.819 104.02 276.67 103.796L277.818 102.886C277.939 103.082 278.065 103.26 278.196 103.418C278.326 103.577 278.476 103.717 278.644 103.838C278.812 103.96 278.998 104.053 279.204 104.118C279.418 104.184 279.661 104.216 279.932 104.216C280.51 104.216 280.954 104.058 281.262 103.74C281.579 103.423 281.738 102.984 281.738 102.424V102.256C281.738 101.696 281.579 101.258 281.262 100.94C280.954 100.623 280.51 100.464 279.932 100.464C279.512 100.464 279.176 100.544 278.924 100.702C278.672 100.861 278.457 101.038 278.28 101.234L276.978 101.052L277.342 95.6064H282.886V96.9784Z" fill="#FF4602"/>
<path d="M325.737 105.546C325.196 105.546 324.71 105.458 324.281 105.28C323.861 105.103 323.502 104.851 323.203 104.524C322.914 104.188 322.69 103.787 322.531 103.32C322.372 102.854 322.293 102.326 322.293 101.738C322.293 101.029 322.4 100.362 322.615 99.7364C322.83 99.1111 323.105 98.5371 323.441 98.0144C323.777 97.4918 324.15 97.0298 324.561 96.6284C324.981 96.2178 325.392 95.8771 325.793 95.6064H327.893C327.342 96.0078 326.848 96.3951 326.409 96.7684C325.97 97.1418 325.588 97.5244 325.261 97.9164C324.934 98.3084 324.659 98.7238 324.435 99.1624C324.22 99.6011 324.052 100.082 323.931 100.604L324.029 100.632C324.132 100.436 324.248 100.254 324.379 100.086C324.519 99.9091 324.678 99.7551 324.855 99.6244C325.042 99.4938 325.252 99.3911 325.485 99.3164C325.718 99.2418 325.989 99.2044 326.297 99.2044C326.708 99.2044 327.086 99.2744 327.431 99.4144C327.786 99.5544 328.089 99.7598 328.341 100.03C328.602 100.292 328.803 100.609 328.943 100.982C329.092 101.356 329.167 101.771 329.167 102.228C329.167 102.723 329.083 103.176 328.915 103.586C328.756 103.988 328.528 104.333 328.229 104.622C327.93 104.912 327.566 105.14 327.137 105.308C326.717 105.467 326.25 105.546 325.737 105.546ZM325.737 104.258C326.306 104.258 326.75 104.109 327.067 103.81C327.384 103.502 327.543 103.054 327.543 102.466V102.27C327.543 101.682 327.384 101.239 327.067 100.94C326.75 100.632 326.306 100.478 325.737 100.478C325.168 100.478 324.724 100.632 324.407 100.94C324.09 101.239 323.931 101.682 323.931 102.27V102.466C323.931 103.054 324.09 103.502 324.407 103.81C324.724 104.109 325.168 104.258 325.737 104.258Z" fill="#FF4602"/>
<path d="M235.064 105.378V103.474H230.528V102.116L234.49 95.6064H236.562V102.228H237.892V103.474H236.562V105.378H235.064ZM231.872 102.228H235.064V97.0484H234.966L231.872 102.228Z" fill="#FF4602"/>
<path d="M187.971 99.6244C188.578 99.6244 189.026 99.4984 189.315 99.2464C189.604 98.9851 189.749 98.6538 189.749 98.2524V98.1544C189.749 97.7064 189.609 97.3658 189.329 97.1324C189.049 96.8898 188.671 96.7684 188.195 96.7684C187.728 96.7684 187.332 96.8758 187.005 97.0904C186.678 97.2958 186.403 97.5851 186.179 97.9584L185.129 97.0484C185.278 96.8338 185.446 96.6284 185.633 96.4324C185.82 96.2364 186.039 96.0684 186.291 95.9284C186.543 95.7791 186.828 95.6624 187.145 95.5784C187.462 95.4851 187.826 95.4384 188.237 95.4384C188.694 95.4384 189.119 95.4944 189.511 95.6064C189.903 95.7184 190.239 95.8864 190.519 96.1104C190.799 96.3251 191.018 96.5911 191.177 96.9084C191.336 97.2164 191.415 97.5664 191.415 97.9584C191.415 98.2664 191.364 98.5464 191.261 98.7984C191.168 99.0504 191.032 99.2744 190.855 99.4704C190.687 99.6571 190.486 99.8111 190.253 99.9324C190.029 100.054 189.791 100.142 189.539 100.198V100.268C189.819 100.324 190.08 100.418 190.323 100.548C190.575 100.67 190.794 100.833 190.981 101.038C191.168 101.234 191.312 101.472 191.415 101.752C191.527 102.023 191.583 102.336 191.583 102.69C191.583 103.12 191.499 103.512 191.331 103.866C191.163 104.212 190.925 104.51 190.617 104.762C190.318 105.014 189.954 105.21 189.525 105.35C189.096 105.481 188.62 105.546 188.097 105.546C187.64 105.546 187.238 105.495 186.893 105.392C186.548 105.299 186.24 105.173 185.969 105.014C185.708 104.846 185.474 104.66 185.269 104.454C185.073 104.24 184.9 104.02 184.751 103.796L185.913 102.886C186.034 103.082 186.16 103.264 186.291 103.432C186.431 103.591 186.585 103.731 186.753 103.852C186.93 103.964 187.126 104.053 187.341 104.118C187.565 104.184 187.817 104.216 188.097 104.216C188.694 104.216 189.152 104.076 189.469 103.796C189.786 103.507 189.945 103.11 189.945 102.606V102.508C189.945 102.004 189.777 101.622 189.441 101.36C189.105 101.099 188.629 100.968 188.013 100.968H186.977V99.6244H187.971Z" fill="#FF4602"/>
<path d="M94.0642 105.378V104.062H96.8082V96.7544H96.6962L94.4282 99.1764L93.4622 98.3084L95.9542 95.6064H98.3622V104.062H100.742V105.378H94.0642Z" fill="#FF4602"/>
<path d="M46.4576 99.6244C47.0643 99.6244 47.5123 99.4984 47.8016 99.2464C48.0909 98.9851 48.2356 98.6538 48.2356 98.2524V98.1544C48.2356 97.7064 48.0956 97.3658 47.8156 97.1324C47.5356 96.8898 47.1576 96.7684 46.6816 96.7684C46.2149 96.7684 45.8183 96.8758 45.4916 97.0904C45.1649 97.2958 44.8896 97.5851 44.6656 97.9584L43.6156 97.0484C43.7649 96.8338 43.9329 96.6284 44.1196 96.4324C44.3063 96.2364 44.5256 96.0684 44.7776 95.9284C45.0296 95.7791 45.3143 95.6624 45.6316 95.5784C45.9489 95.4851 46.3129 95.4384 46.7236 95.4384C47.1809 95.4384 47.6056 95.4944 47.9976 95.6064C48.3896 95.7184 48.7256 95.8864 49.0056 96.1104C49.2856 96.3251 49.5049 96.5911 49.6636 96.9084C49.8223 97.2164 49.9016 97.5664 49.9016 97.9584C49.9016 98.2664 49.8503 98.5464 49.7476 98.7984C49.6543 99.0504 49.5189 99.2744 49.3416 99.4704C49.1736 99.6571 48.9729 99.8111 48.7396 99.9324C48.5156 100.054 48.2776 100.142 48.0256 100.198V100.268C48.3056 100.324 48.5669 100.418 48.8096 100.548C49.0616 100.67 49.2809 100.833 49.4676 101.038C49.6543 101.234 49.7989 101.472 49.9016 101.752C50.0136 102.023 50.0696 102.336 50.0696 102.69C50.0696 103.12 49.9856 103.512 49.8176 103.866C49.6496 104.212 49.4116 104.51 49.1036 104.762C48.8049 105.014 48.4409 105.21 48.0116 105.35C47.5823 105.481 47.1063 105.546 46.5836 105.546C46.1263 105.546 45.7249 105.495 45.3796 105.392C45.0343 105.299 44.7263 105.173 44.4556 105.014C44.1943 104.846 43.9609 104.66 43.7556 104.454C43.5596 104.24 43.3869 104.02 43.2376 103.796L44.3996 102.886C44.5209 103.082 44.6469 103.264 44.7776 103.432C44.9176 103.591 45.0716 103.731 45.2396 103.852C45.4169 103.964 45.6129 104.053 45.8276 104.118C46.0516 104.184 46.3036 104.216 46.5836 104.216C47.1809 104.216 47.6383 104.076 47.9556 103.796C48.2729 103.507 48.4316 103.11 48.4316 102.606V102.508C48.4316 102.004 48.2636 101.622 47.9276 101.36C47.5916 101.099 47.1156 100.968 46.4996 100.968H45.4636V99.6244H46.4576ZM52.6361 105.378V104.062H55.3801V96.7544H55.2681L53.0001 99.1764L52.0341 98.3084L54.5261 95.6064H56.9341V104.062H59.3141V105.378H52.6361Z" fill="#333333"/>
<path d="M237.612 297.467H230.976V295.955L234.098 293.169C234.593 292.721 234.971 292.296 235.232 291.895C235.503 291.484 235.638 291.055 235.638 290.607V290.425C235.638 289.949 235.494 289.575 235.204 289.305C234.924 289.034 234.542 288.899 234.056 288.899C233.786 288.899 233.548 288.941 233.342 289.025C233.146 289.099 232.974 289.207 232.824 289.347C232.675 289.487 232.549 289.65 232.446 289.837C232.353 290.023 232.278 290.224 232.222 290.439L230.836 289.907C230.939 289.599 231.079 289.305 231.256 289.025C231.434 288.735 231.658 288.479 231.928 288.255C232.199 288.031 232.516 287.853 232.88 287.723C233.254 287.592 233.688 287.527 234.182 287.527C234.677 287.527 235.12 287.601 235.512 287.751C235.904 287.891 236.231 288.091 236.492 288.353C236.763 288.605 236.968 288.908 237.108 289.263C237.248 289.617 237.318 290.005 237.318 290.425C237.318 290.817 237.258 291.181 237.136 291.517C237.015 291.853 236.847 292.17 236.632 292.469C236.418 292.767 236.166 293.052 235.876 293.323C235.596 293.593 235.298 293.869 234.98 294.149L232.684 296.123H237.612V297.467Z" fill="#333333"/>
<path d="M185.535 297.467V296.151H188.279V288.843H188.167L185.899 291.265L184.933 290.397L187.425 287.695H189.833V296.151H192.213V297.467H185.535Z" fill="#333333"/>
<path d="M146.142 105.378H139.506V103.866L142.628 101.08C143.122 100.632 143.5 100.208 143.762 99.8064C144.032 99.3958 144.168 98.9664 144.168 98.5184V98.3364C144.168 97.8604 144.023 97.4871 143.734 97.2164C143.454 96.9458 143.071 96.8104 142.586 96.8104C142.315 96.8104 142.077 96.8524 141.872 96.9364C141.676 97.0111 141.503 97.1184 141.354 97.2584C141.204 97.3984 141.078 97.5618 140.976 97.7484C140.882 97.9351 140.808 98.1358 140.752 98.3504L139.366 97.8184C139.468 97.5104 139.608 97.2164 139.786 96.9364C139.963 96.6471 140.187 96.3904 140.458 96.1664C140.728 95.9424 141.046 95.7651 141.41 95.6344C141.783 95.5038 142.217 95.4384 142.712 95.4384C143.206 95.4384 143.65 95.5131 144.042 95.6624C144.434 95.8024 144.76 96.0031 145.022 96.2644C145.292 96.5164 145.498 96.8198 145.638 97.1744C145.778 97.5291 145.848 97.9164 145.848 98.3364C145.848 98.7284 145.787 99.0924 145.666 99.4284C145.544 99.7644 145.376 100.082 145.162 100.38C144.947 100.679 144.695 100.964 144.406 101.234C144.126 101.505 143.827 101.78 143.51 102.06L141.214 104.034H146.142V105.378Z" fill="#FBB104"/>
<path d="M146.142 105.378H139.506V103.866L142.628 101.08C143.122 100.632 143.5 100.208 143.762 99.8064C144.032 99.3958 144.168 98.9664 144.168 98.5184V98.3364C144.168 97.8604 144.023 97.4871 143.734 97.2164C143.454 96.9458 143.071 96.8104 142.586 96.8104C142.315 96.8104 142.077 96.8524 141.872 96.9364C141.676 97.0111 141.503 97.1184 141.354 97.2584C141.204 97.3984 141.078 97.5618 140.976 97.7484C140.882 97.9351 140.808 98.1358 140.752 98.3504L139.366 97.8184C139.468 97.5104 139.608 97.2164 139.786 96.9364C139.963 96.6471 140.187 96.3904 140.458 96.1664C140.728 95.9424 141.046 95.7651 141.41 95.6344C141.783 95.5038 142.217 95.4384 142.712 95.4384C143.206 95.4384 143.65 95.5131 144.042 95.6624C144.434 95.8024 144.76 96.0031 145.022 96.2644C145.292 96.5164 145.498 96.8198 145.638 97.1744C145.778 97.5291 145.848 97.9164 145.848 98.3364C145.848 98.7284 145.787 99.0924 145.666 99.4284C145.544 99.7644 145.376 100.082 145.162 100.38C144.947 100.679 144.695 100.964 144.406 101.234C144.126 101.505 143.827 101.78 143.51 102.06L141.214 104.034H146.142V105.378Z" fill="#FF4602"/>
<path d="M315.089 68.02H317.719C318.179 68.02 318.599 68.0933 318.979 68.24C319.359 68.3867 319.682 68.6067 319.949 68.9C320.216 69.1867 320.422 69.55 320.569 69.99C320.716 70.4233 320.789 70.93 320.789 71.51C320.789 72.09 320.716 72.6 320.569 73.04C320.422 73.4733 320.216 73.8367 319.949 74.13C319.682 74.4167 319.359 74.6333 318.979 74.78C318.599 74.9267 318.179 75 317.719 75H315.089V68.02ZM317.719 73.65C318.172 73.65 318.529 73.5233 318.789 73.27C319.049 73.0167 319.179 72.61 319.179 72.05V70.97C319.179 70.41 319.049 70.0033 318.789 69.75C318.529 69.4967 318.172 69.37 317.719 69.37H316.609V73.65H317.719ZM323.292 75V73.79H324.192V69.23H323.292V68.02H326.612V69.23H325.712V73.79H326.612V75H323.292ZM334.598 70.42H334.568L334.058 71.44L332.698 73.91L331.368 71.45L330.838 70.35H330.808V75H329.378V68.02H330.988L332.698 71.29H332.718L334.408 68.02H336.028V75H334.598V70.42Z" fill="black"/>
<path d="M271.743 75.12C271.13 75.12 270.61 75.0167 270.183 74.81C269.757 74.5967 269.393 74.3233 269.093 73.99L270.093 72.98C270.567 73.5133 271.15 73.78 271.843 73.78C272.217 73.78 272.493 73.7033 272.673 73.55C272.853 73.3967 272.943 73.1933 272.943 72.94C272.943 72.7467 272.89 72.5867 272.783 72.46C272.677 72.3267 272.46 72.2367 272.133 72.19L271.443 72.1C270.703 72.0067 270.16 71.7833 269.813 71.43C269.473 71.0767 269.303 70.6067 269.303 70.02C269.303 69.7067 269.363 69.42 269.483 69.16C269.603 68.9 269.773 68.6767 269.993 68.49C270.22 68.3033 270.493 68.16 270.813 68.06C271.14 67.9533 271.51 67.9 271.923 67.9C272.45 67.9 272.913 67.9833 273.313 68.15C273.713 68.3167 274.057 68.56 274.343 68.88L273.333 69.9C273.167 69.7067 272.963 69.55 272.723 69.43C272.49 69.3033 272.193 69.24 271.833 69.24C271.493 69.24 271.24 69.3 271.073 69.42C270.907 69.54 270.823 69.7067 270.823 69.92C270.823 70.16 270.887 70.3333 271.013 70.44C271.147 70.5467 271.36 70.6233 271.653 70.67L272.343 70.78C273.063 70.8933 273.597 71.1167 273.943 71.45C274.29 71.7767 274.463 72.2433 274.463 72.85C274.463 73.1833 274.403 73.49 274.283 73.77C274.163 74.05 273.987 74.29 273.753 74.49C273.527 74.69 273.243 74.8467 272.903 74.96C272.563 75.0667 272.177 75.12 271.743 75.12ZM281.524 75L281.024 73.34H278.694L278.194 75H276.654L278.954 68.02H280.834L283.104 75H281.524ZM279.874 69.4H279.824L279.054 72.05H280.654L279.874 69.4ZM290.789 70.42H290.759L290.249 71.44L288.889 73.91L287.559 71.45L287.029 70.35H286.999V75H285.569V68.02H287.179L288.889 71.29H288.909L290.599 68.02H292.219V75H290.789V70.42Z" fill="black"/>
<path d="M224.836 75L222.586 68.02H224.126L225.166 71.37L225.716 73.56H225.746L226.276 71.37L227.316 68.02H228.806L226.536 75H224.836ZM231.22 75V68.02H235.97V69.37H232.74V70.8H235.51V72.14H232.74V73.65H235.97V75H231.22ZM240.924 71.7L240.254 70.3H240.224V75H238.794V68.02H240.454L242.364 71.32L243.034 72.72H243.064V68.02H244.494V75H242.834L240.924 71.7Z" fill="black"/>
<path d="M182.058 68.02V72.98C182.058 73.3 182.004 73.5933 181.898 73.86C181.798 74.12 181.648 74.3433 181.448 74.53C181.248 74.71 181.004 74.8533 180.718 74.96C180.438 75.06 180.118 75.11 179.758 75.11C179.411 75.11 179.104 75.0633 178.838 74.97C178.578 74.8767 178.351 74.7433 178.158 74.57C177.971 74.3967 177.818 74.19 177.698 73.95C177.578 73.71 177.494 73.4433 177.448 73.15L178.868 72.87C178.981 73.4767 179.271 73.78 179.738 73.78C179.958 73.78 180.144 73.71 180.298 73.57C180.458 73.43 180.538 73.21 180.538 72.91V69.24H178.418V68.02H182.058ZM185.054 75V68.02H189.804V69.37H186.574V70.8H189.344V72.14H186.574V73.65H189.804V75H185.054ZM194.068 68.02V72.3C194.068 72.7933 194.165 73.1633 194.358 73.41C194.551 73.65 194.875 73.77 195.328 73.77C195.781 73.77 196.105 73.65 196.298 73.41C196.491 73.1633 196.588 72.7933 196.588 72.3V68.02H198.068V72.14C198.068 72.6533 198.018 73.1 197.918 73.48C197.825 73.8533 197.668 74.1633 197.448 74.41C197.228 74.65 196.945 74.83 196.598 74.95C196.251 75.0633 195.828 75.12 195.328 75.12C194.828 75.12 194.405 75.0633 194.058 74.95C193.711 74.83 193.428 74.65 193.208 74.41C192.988 74.1633 192.828 73.8533 192.728 73.48C192.635 73.1 192.588 72.6533 192.588 72.14V68.02H194.068Z" fill="black"/>
<path d="M136.706 70.42H136.676L136.166 71.44L134.806 73.91L133.476 71.45L132.946 70.35H132.916V75H131.486V68.02H133.096L134.806 71.29H134.826L136.516 68.02H138.136V75H136.706V70.42ZM141.18 75V68.02H145.93V69.37H142.7V70.8H145.47V72.14H142.7V73.65H145.93V75H141.18ZM150.274 75H148.754V68.02H152.064C152.384 68.02 152.674 68.0733 152.934 68.18C153.194 68.2867 153.414 68.44 153.594 68.64C153.781 68.8333 153.924 69.0667 154.024 69.34C154.124 69.6133 154.174 69.9167 154.174 70.25C154.174 70.7233 154.067 71.1367 153.854 71.49C153.647 71.8433 153.331 72.1 152.904 72.26L154.274 75H152.584L151.364 72.44H150.274V75ZM151.874 71.16C152.101 71.16 152.277 71.1033 152.404 70.99C152.537 70.87 152.604 70.6967 152.604 70.47V70.03C152.604 69.8033 152.537 69.6333 152.404 69.52C152.277 69.4 152.101 69.34 151.874 69.34H150.274V71.16H151.874Z" fill="black"/>
<path d="M91.6134 70.42H91.5834L91.0734 71.44L89.7134 73.91L88.3834 71.45L87.8534 70.35H87.8234V75H86.3934V68.02H88.0034L89.7134 71.29H89.7334L91.4234 68.02H93.0434V75H91.6134V70.42ZM100.387 75L99.8867 73.34H97.5567L97.0567 75H95.5167L97.8167 68.02H99.6967L101.967 75H100.387ZM98.7367 69.4H98.6867L97.9167 72.05H99.5167L98.7367 69.4ZM105.952 75H104.432V68.02H107.742C108.062 68.02 108.352 68.0733 108.612 68.18C108.872 68.2867 109.092 68.44 109.272 68.64C109.459 68.8333 109.602 69.0667 109.702 69.34C109.802 69.6133 109.852 69.9167 109.852 70.25C109.852 70.7233 109.746 71.1367 109.532 71.49C109.326 71.8433 109.009 72.1 108.582 72.26L109.952 75H108.262L107.042 72.44H105.952V75ZM107.552 71.16C107.779 71.16 107.956 71.1033 108.082 70.99C108.216 70.87 108.282 70.6967 108.282 70.47V70.03C108.282 69.8033 108.216 69.6333 108.082 69.52C107.956 69.4 107.779 69.34 107.552 69.34H105.952V71.16H107.552Z" fill="black"/>
<path d="M40.1338 75V68.02H41.6538V73.65H44.3138V75H40.1338ZM48.0445 68.02V72.3C48.0445 72.7933 48.1412 73.1633 48.3345 73.41C48.5279 73.65 48.8512 73.77 49.3045 73.77C49.7579 73.77 50.0812 73.65 50.2745 73.41C50.4679 73.1633 50.5645 72.7933 50.5645 72.3V68.02H52.0445V72.14C52.0445 72.6533 51.9945 73.1 51.8945 73.48C51.8012 73.8533 51.6445 74.1633 51.4245 74.41C51.2045 74.65 50.9212 74.83 50.5745 74.95C50.2279 75.0633 49.8045 75.12 49.3045 75.12C48.8045 75.12 48.3812 75.0633 48.0345 74.95C47.6879 74.83 47.4045 74.65 47.1845 74.41C46.9645 74.1633 46.8045 73.8533 46.7045 73.48C46.6112 73.1 46.5645 72.6533 46.5645 72.14V68.02H48.0445ZM57.1779 71.7L56.5079 70.3H56.4779V75H55.0479V68.02H56.7079L58.6179 71.32L59.2879 72.72H59.3179V68.02H60.7479V75H59.0879L57.1779 71.7Z" fill="black"/>
<path d="M157.962 23.832V32.104C157.962 32.5733 157.882 33 157.722 33.384C157.573 33.768 157.354 34.0933 157.066 34.36C156.789 34.6267 156.453 34.8347 156.058 34.984C155.663 35.1227 155.231 35.192 154.762 35.192C153.898 35.192 153.199 34.9627 152.666 34.504C152.143 34.0347 151.807 33.416 151.658 32.648L152.874 32.36C152.981 32.84 153.183 33.2347 153.482 33.544C153.781 33.8427 154.218 33.992 154.794 33.992C155.37 33.992 155.818 33.816 156.138 33.464C156.458 33.112 156.618 32.5787 156.618 31.864V25.016H152.778V23.832H157.962ZM165.934 33.656H165.87C165.785 33.848 165.678 34.04 165.55 34.232C165.433 34.4133 165.284 34.5787 165.102 34.728C164.921 34.8667 164.702 34.9787 164.446 35.064C164.19 35.1493 163.892 35.192 163.55 35.192C162.697 35.192 162.02 34.92 161.518 34.376C161.017 33.8213 160.766 33.0427 160.766 32.04V26.744H162.046V31.816C162.046 33.2987 162.676 34.04 163.934 34.04C164.19 34.04 164.436 34.008 164.67 33.944C164.916 33.88 165.129 33.784 165.31 33.656C165.502 33.528 165.652 33.368 165.758 33.176C165.876 32.9733 165.934 32.7333 165.934 32.456V26.744H167.214V35H165.934V33.656ZM170.7 24.808C170.423 24.808 170.22 24.744 170.092 24.616C169.975 24.4773 169.916 24.3013 169.916 24.088V23.88C169.916 23.6667 169.975 23.496 170.092 23.368C170.22 23.2293 170.423 23.16 170.7 23.16C170.977 23.16 171.175 23.2293 171.292 23.368C171.42 23.496 171.484 23.6667 171.484 23.88V24.088C171.484 24.3013 171.42 24.4773 171.292 24.616C171.175 24.744 170.977 24.808 170.7 24.808ZM170.06 26.744H171.34V35H170.06V26.744ZM174.18 35V26.744H175.46V28.088H175.524C175.727 27.6187 176.009 27.2453 176.372 26.968C176.745 26.6907 177.241 26.552 177.86 26.552C178.713 26.552 179.385 26.8293 179.876 27.384C180.377 27.928 180.628 28.7013 180.628 29.704V35H179.348V29.928C179.348 28.4453 178.724 27.704 177.476 27.704C177.22 27.704 176.969 27.736 176.724 27.8C176.489 27.864 176.276 27.96 176.084 28.088C175.892 28.216 175.737 28.3813 175.62 28.584C175.513 28.776 175.46 29.0053 175.46 29.272V35H174.18ZM194.463 35H187.135V33.624L190.783 30.264C191.306 29.784 191.743 29.2773 192.095 28.744C192.447 28.2 192.623 27.656 192.623 27.112V26.92C192.623 26.3013 192.452 25.8 192.111 25.416C191.77 25.032 191.252 24.84 190.559 24.84C190.218 24.84 189.919 24.888 189.663 24.984C189.407 25.08 189.183 25.2133 188.991 25.384C188.81 25.5547 188.655 25.7573 188.527 25.992C188.41 26.216 188.314 26.4613 188.239 26.728L187.039 26.264C187.146 25.9333 187.29 25.6133 187.471 25.304C187.663 24.984 187.898 24.7013 188.175 24.456C188.463 24.2107 188.804 24.0133 189.199 23.864C189.604 23.7147 190.079 23.64 190.623 23.64C191.167 23.64 191.652 23.72 192.079 23.88C192.506 24.04 192.863 24.264 193.151 24.552C193.439 24.84 193.658 25.1813 193.807 25.576C193.967 25.9707 194.047 26.408 194.047 26.888C194.047 27.3253 193.983 27.7307 193.855 28.104C193.738 28.4773 193.572 28.8347 193.359 29.176C193.146 29.5067 192.884 29.832 192.575 30.152C192.276 30.472 191.951 30.792 191.599 31.112L188.591 33.816H194.463V35ZM200.449 35.192C199.115 35.192 198.139 34.6853 197.521 33.672C196.913 32.6587 196.609 31.24 196.609 29.416C196.609 27.592 196.913 26.1733 197.521 25.16C198.139 24.1467 199.115 23.64 200.449 23.64C201.782 23.64 202.753 24.1467 203.361 25.16C203.979 26.1733 204.289 27.592 204.289 29.416C204.289 31.24 203.979 32.6587 203.361 33.672C202.753 34.6853 201.782 35.192 200.449 35.192ZM200.449 34.024C200.886 34.024 201.259 33.9333 201.569 33.752C201.878 33.5707 202.129 33.3147 202.321 32.984C202.513 32.6533 202.651 32.264 202.737 31.816C202.833 31.368 202.881 30.872 202.881 30.328V28.504C202.881 27.96 202.833 27.464 202.737 27.016C202.651 26.568 202.513 26.1787 202.321 25.848C202.129 25.5173 201.878 25.2613 201.569 25.08C201.259 24.8987 200.886 24.808 200.449 24.808C200.011 24.808 199.638 24.8987 199.329 25.08C199.019 25.2613 198.769 25.5173 198.577 25.848C198.385 26.1787 198.241 26.568 198.145 27.016C198.059 27.464 198.017 27.96 198.017 28.504V30.328C198.017 30.872 198.059 31.368 198.145 31.816C198.241 32.264 198.385 32.6533 198.577 32.984C198.769 33.3147 199.019 33.5707 199.329 33.752C199.638 33.9333 200.011 34.024 200.449 34.024ZM213.891 35H206.563V33.624L210.211 30.264C210.733 29.784 211.171 29.2773 211.523 28.744C211.875 28.2 212.051 27.656 212.051 27.112V26.92C212.051 26.3013 211.88 25.8 211.539 25.416C211.197 25.032 210.68 24.84 209.987 24.84C209.645 24.84 209.347 24.888 209.091 24.984C208.835 25.08 208.611 25.2133 208.419 25.384C208.237 25.5547 208.083 25.7573 207.955 25.992C207.837 26.216 207.741 26.4613 207.667 26.728L206.467 26.264C206.573 25.9333 206.717 25.6133 206.899 25.304C207.091 24.984 207.325 24.7013 207.603 24.456C207.891 24.2107 208.232 24.0133 208.627 23.864C209.032 23.7147 209.507 23.64 210.051 23.64C210.595 23.64 211.08 23.72 211.507 23.88C211.933 24.04 212.291 24.264 212.579 24.552C212.867 24.84 213.085 25.1813 213.235 25.576C213.395 25.9707 213.475 26.408 213.475 26.888C213.475 27.3253 213.411 27.7307 213.283 28.104C213.165 28.4773 213 28.8347 212.787 29.176C212.573 29.5067 212.312 29.832 212.003 30.152C211.704 30.472 211.379 30.792 211.027 31.112L208.019 33.816H213.891V35ZM216.484 35V33.816H219.604V24.824H219.492L216.676 27.448L215.892 26.6L218.852 23.832H220.948V33.816H223.828V35H216.484Z" fill="#FF4602"/>
<path d="M138 35L132 29L138 23" stroke="#FF4602" stroke-width="2" stroke-linecap="round" stroke-linejoin="round"/>
<path d="M238 35L244 29L238 23" stroke="#FF4602" stroke-width="2" stroke-linecap="round" stroke-linejoin="round"/>
<defs>
<filter id="filter0_dd" x="-4" y="0" width="384" height="323" filterUnits="userSpaceOnUse" color-interpolation-filters="sRGB">
<feFlood flood-opacity="0" result="BackgroundImageFix"/>
<feColorMatrix in="SourceAlpha" type="matrix" values="0 0 0 0 0 0 0 0 0 0 0 0 0 0 0 0 0 0 127 0"/>
<feOffset/>
<feGaussianBlur stdDeviation="2"/>
<feColorMatrix type="matrix" values="0 0 0 0 0 0 0 0 0 0 0 0 0 0 0 0 0 0 0.12 0"/>
<feBlend mode="normal" in2="BackgroundImageFix" result="effect1_dropShadow"/>
<feColorMatrix in="SourceAlpha" type="matrix" values="0 0 0 0 0 0 0 0 0 0 0 0 0 0 0 0 0 0 127 0"/>
<feOffset/>
<feGaussianBlur stdDeviation="0.5"/>
<feColorMatrix type="matrix" values="0 0 0 0 0 0 0 0 0 0 0 0 0 0 0 0 0 0 0.48 0"/>
<feBlend mode="normal" in2="effect1_dropShadow" result="effect2_dropShadow"/>
<feBlend mode="normal" in="SourceGraphic" in2="effect2_dropShadow" result="shape"/>
</filter>
</defs>
</svg>
