<svg width="35" height="36" viewBox="0 0 35 36" fill="none" xmlns="http://www.w3.org/2000/svg">
<g filter="url(#filter0_d)">
<path d="M17.6663 16.6667C17.9301 16.6667 18.1878 16.5886 18.4071 16.442C18.6264 16.2955 18.7973 16.0873 18.8982 15.8437C18.9991 15.6 19.0255 15.3319 18.9741 15.0733C18.9226 14.8147 18.7956 14.5771 18.6092 14.3906C18.4227 14.2041 18.1851 14.0771 17.9265 14.0257C17.6678 13.9743 17.3997 14.0007 17.1561 14.1016C16.9125 14.2025 16.7042 14.3734 16.5577 14.5927C16.4112 14.8119 16.333 15.0697 16.333 15.3334C16.333 15.687 16.4735 16.0262 16.7235 16.2762C16.9736 16.5263 17.3127 16.6667 17.6663 16.6667ZM24.333 16.6667C24.5967 16.6667 24.8545 16.5886 25.0738 16.442C25.293 16.2955 25.4639 16.0873 25.5648 15.8437C25.6658 15.6 25.6922 15.3319 25.6407 15.0733C25.5893 14.8147 25.4623 14.5771 25.2758 14.3906C25.0893 14.2041 24.8518 14.0771 24.5931 14.0257C24.3345 13.9743 24.0664 14.0007 23.8228 14.1016C23.5791 14.2025 23.3709 14.3734 23.2244 14.5927C23.0779 14.8119 22.9997 15.0697 22.9997 15.3334C22.9997 15.687 23.1402 16.0262 23.3902 16.2762C23.6402 16.5263 23.9794 16.6667 24.333 16.6667ZM17.6663 22.0001C17.9301 22.0001 18.1878 21.9219 18.4071 21.7754C18.6264 21.6289 18.7973 21.4206 18.8982 21.177C18.9991 20.9334 19.0255 20.6653 18.9741 20.4066C18.9226 20.148 18.7956 19.9104 18.6092 19.7239C18.4227 19.5375 18.1851 19.4105 17.9265 19.359C17.6678 19.3076 17.3997 19.334 17.1561 19.4349C16.9125 19.5358 16.7042 19.7067 16.5577 19.926C16.4112 20.1453 16.333 20.403 16.333 20.6667C16.333 21.0204 16.4735 21.3595 16.7235 21.6096C16.9736 21.8596 17.3127 22.0001 17.6663 22.0001ZM24.333 22.0001C24.5967 22.0001 24.8545 21.9219 25.0738 21.7754C25.293 21.6289 25.4639 21.4206 25.5648 21.177C25.6658 20.9334 25.6922 20.6653 25.6407 20.4066C25.5893 20.148 25.4623 19.9104 25.2758 19.7239C25.0893 19.5375 24.8518 19.4105 24.5931 19.359C24.3345 19.3076 24.0664 19.334 23.8228 19.4349C23.5791 19.5358 23.3709 19.7067 23.2244 19.926C23.0779 20.1453 22.9997 20.403 22.9997 20.6667C22.9997 21.0204 23.1402 21.3595 23.3902 21.6096C23.6402 21.8596 23.9794 22.0001 24.333 22.0001ZM10.9997 16.6667C11.2634 16.6667 11.5212 16.5886 11.7404 16.442C11.9597 16.2955 12.1306 16.0873 12.2315 15.8437C12.3324 15.6 12.3588 15.3319 12.3074 15.0733C12.2559 14.8147 12.129 14.5771 11.9425 14.3906C11.756 14.2041 11.5184 14.0771 11.2598 14.0257C11.0012 13.9743 10.7331 14.0007 10.4894 14.1016C10.2458 14.2025 10.0376 14.3734 9.89105 14.5927C9.74454 14.8119 9.66634 15.0697 9.66634 15.3334C9.66634 15.687 9.80682 16.0262 10.0569 16.2762C10.3069 16.5263 10.6461 16.6667 10.9997 16.6667ZM26.9997 3.33342H25.6663V2.00008C25.6663 1.64646 25.5259 1.30732 25.2758 1.05727C25.0258 0.807224 24.6866 0.666748 24.333 0.666748C23.9794 0.666748 23.6402 0.807224 23.3902 1.05727C23.1402 1.30732 22.9997 1.64646 22.9997 2.00008V3.33342H12.333V2.00008C12.333 1.64646 12.1925 1.30732 11.9425 1.05727C11.6924 0.807224 11.3533 0.666748 10.9997 0.666748C10.6461 0.666748 10.3069 0.807224 10.0569 1.05727C9.80682 1.30732 9.66634 1.64646 9.66634 2.00008V3.33342H8.33301C7.27214 3.33342 6.25473 3.75484 5.50458 4.50499C4.75444 5.25513 4.33301 6.27255 4.33301 7.33342V23.3334C4.33301 24.3943 4.75444 25.4117 5.50458 26.1618C6.25473 26.912 7.27214 27.3334 8.33301 27.3334H26.9997C28.0605 27.3334 29.078 26.912 29.8281 26.1618C30.5783 25.4117 30.9997 24.3943 30.9997 23.3334V7.33342C30.9997 6.27255 30.5783 5.25513 29.8281 4.50499C29.078 3.75484 28.0605 3.33342 26.9997 3.33342ZM28.333 23.3334C28.333 23.687 28.1925 24.0262 27.9425 24.2762C27.6924 24.5263 27.3533 24.6668 26.9997 24.6668H8.33301C7.97939 24.6668 7.64025 24.5263 7.3902 24.2762C7.14015 24.0262 6.99967 23.687 6.99967 23.3334V11.3334H28.333V23.3334ZM28.333 8.66675H6.99967V7.33342C6.99967 6.97979 7.14015 6.64066 7.3902 6.39061C7.64025 6.14056 7.97939 6.00008 8.33301 6.00008H26.9997C27.3533 6.00008 27.6924 6.14056 27.9425 6.39061C28.1925 6.64066 28.333 6.97979 28.333 7.33342V8.66675ZM10.9997 22.0001C11.2634 22.0001 11.5212 21.9219 11.7404 21.7754C11.9597 21.6289 12.1306 21.4206 12.2315 21.177C12.3324 20.9334 12.3588 20.6653 12.3074 20.4066C12.2559 20.148 12.129 19.9104 11.9425 19.7239C11.756 19.5375 11.5184 19.4105 11.2598 19.359C11.0012 19.3076 10.7331 19.334 10.4894 19.4349C10.2458 19.5358 10.0376 19.7067 9.89105 19.926C9.74454 20.1453 9.66634 20.403 9.66634 20.6667C9.66634 21.0204 9.80682 21.3595 10.0569 21.6096C10.3069 21.8596 10.6461 22.0001 10.9997 22.0001Z" fill="white"/>
</g>
<defs>
<filter id="filter0_d" x="0.333008" y="0.666748" width="34.6667" height="34.6667" filterUnits="userSpaceOnUse" color-interpolation-filters="sRGB">
<feFlood flood-opacity="0" result="BackgroundImageFix"/>
<feColorMatrix in="SourceAlpha" type="matrix" values="0 0 0 0 0 0 0 0 0 0 0 0 0 0 0 0 0 0 127 0"/>
<feOffset dy="4"/>
<feGaussianBlur stdDeviation="2"/>
<feColorMatrix type="matrix" values="0 0 0 0 0 0 0 0 0 0 0 0 0 0 0 0 0 0 0.25 0"/>
<feBlend mode="normal" in2="BackgroundImageFix" result="effect1_dropShadow"/>
<feBlend mode="normal" in="SourceGraphic" in2="effect1_dropShadow" result="shape"/>
</filter>
</defs>
</svg>
