<svg width="32" height="32" viewBox="0 0 32 32" fill="none" xmlns="http://www.w3.org/2000/svg">
<rect width="32" height="32" fill="#798B22"/>
<path d="M23.4396 17.0001C23.2196 17.0001 22.9896 16.9301 22.7696 16.8801C22.3241 16.7819 21.8863 16.6516 21.4596 16.4901C20.9957 16.3213 20.4858 16.3301 20.0279 16.5147C19.5701 16.6993 19.1967 17.0467 18.9796 17.4901L18.7596 17.9401C17.7856 17.3983 16.8906 16.7253 16.0996 15.9401C15.3144 15.1491 14.6414 14.2541 14.0996 13.2801L14.5196 13.0001C14.963 12.783 15.3104 12.4096 15.495 11.9518C15.6796 11.494 15.6884 10.984 15.5196 10.5201C15.3608 10.0925 15.2305 9.65491 15.1296 9.21011C15.0796 8.99011 15.0396 8.76011 15.0096 8.53011C14.8882 7.82573 14.5192 7.18785 13.9692 6.73135C13.4192 6.27485 12.7243 6.02972 12.0096 6.04011H9.00961C8.57864 6.03607 8.15186 6.12493 7.75832 6.30064C7.36478 6.47636 7.01372 6.73481 6.72904 7.05839C6.44436 7.38198 6.23275 7.76311 6.1086 8.17583C5.98445 8.58855 5.95069 9.02317 6.00961 9.45011C6.54235 13.6395 8.45564 17.532 11.4473 20.5127C14.4389 23.4935 18.3383 25.3926 22.5296 25.9101H22.9096C23.647 25.9112 24.359 25.6406 24.9096 25.1501C25.226 24.8672 25.4787 24.5203 25.6511 24.1324C25.8235 23.7446 25.9116 23.3245 25.9096 22.9001V19.9001C25.8974 19.2055 25.6444 18.5367 25.194 18.0078C24.7435 17.4789 24.1234 17.1227 23.4396 17.0001ZM23.9396 23.0001C23.9394 23.1421 23.909 23.2824 23.8504 23.4117C23.7918 23.5411 23.7063 23.6564 23.5996 23.7501C23.4882 23.8471 23.3576 23.9195 23.2163 23.9626C23.075 24.0057 22.9262 24.0185 22.7796 24.0001C19.0345 23.5199 15.5558 21.8066 12.8923 19.1304C10.2288 16.4542 8.53202 12.9674 8.06961 9.22011C8.0537 9.07363 8.06765 8.92544 8.11061 8.7845C8.15358 8.64356 8.22468 8.5128 8.31961 8.40011C8.41332 8.29344 8.52867 8.20795 8.65799 8.14933C8.78731 8.09071 8.92763 8.06029 9.06961 8.06011H12.0696C12.3022 8.05494 12.5292 8.13099 12.7118 8.27518C12.8943 8.41937 13.0208 8.62268 13.0696 8.85011C13.1096 9.12345 13.1596 9.39345 13.2196 9.66011C13.3351 10.1873 13.4889 10.7053 13.6796 11.2101L12.2796 11.8601C12.1599 11.915 12.0522 11.9931 11.9628 12.0897C11.8733 12.1864 11.8038 12.2997 11.7583 12.4233C11.7128 12.5469 11.6921 12.6782 11.6975 12.8098C11.7028 12.9414 11.7342 13.0707 11.7896 13.1901C13.2288 16.2729 15.7069 18.7509 18.7896 20.1901C19.0331 20.2901 19.3062 20.2901 19.5496 20.1901C19.6743 20.1455 19.7889 20.0766 19.8868 19.9873C19.9846 19.898 20.0638 19.7902 20.1196 19.6701L20.7396 18.2701C21.2566 18.455 21.7842 18.6086 22.3196 18.7301C22.5863 18.7901 22.8563 18.8401 23.1296 18.8801C23.357 18.9289 23.5604 19.0554 23.7045 19.238C23.8487 19.4205 23.9248 19.6476 23.9196 19.8801L23.9396 23.0001Z" fill="white"/>
</svg>
