<svg width="16" height="17" viewBox="0 0 16 17" fill="none" xmlns="http://www.w3.org/2000/svg">
<path d="M0.100074 7.49879C0.163533 7.33512 0.258688 7.18559 0.380076 7.05879L7.04674 0.392122C7.17106 0.267804 7.31865 0.16919 7.48108 0.10191C7.6435 0.0346292 7.8176 0 7.99341 0C8.34848 0 8.689 0.141051 8.94007 0.392122C9.06439 0.51644 9.16301 0.664027 9.23029 0.826457C9.29757 0.988886 9.3322 1.16298 9.3322 1.33879C9.3322 1.69386 9.19115 2.03438 8.94007 2.28546L4.54007 6.67212H14.6601C15.0137 6.67212 15.3528 6.8126 15.6029 7.06265C15.8529 7.3127 15.9934 7.65183 15.9934 8.00546C15.9934 8.35908 15.8529 8.69822 15.6029 8.94827C15.3528 9.19831 15.0137 9.33879 14.6601 9.33879H4.54007L8.94007 13.7255C9.06505 13.8494 9.16424 13.9969 9.23193 14.1594C9.29962 14.3218 9.33447 14.4961 9.33447 14.6721C9.33447 14.8481 9.29962 15.0224 9.23193 15.1849C9.16424 15.3474 9.06505 15.4948 8.94007 15.6188C8.81612 15.7438 8.66866 15.843 8.50618 15.9106C8.3437 15.9783 8.16942 16.0132 7.99341 16.0132C7.81739 16.0132 7.64312 15.9783 7.48064 15.9106C7.31816 15.843 7.17069 15.7438 7.04674 15.6188L0.380076 8.95212C0.258688 8.82532 0.163533 8.67579 0.100074 8.51212C-0.0332831 8.18751 -0.0332831 7.8234 0.100074 7.49879Z" fill="white"/>
</svg>
