<svg width="16" height="17" viewBox="0 0 16 17" fill="none" xmlns="http://www.w3.org/2000/svg">
<path d="M0.0998302 7.49879C0.163289 7.33512 0.258444 7.18559 0.379831 7.05879L7.0465 0.392122C7.17082 0.267804 7.3184 0.16919 7.48083 0.10191C7.64326 0.0346292 7.81735 0 7.99316 0C8.34823 0 8.68876 0.141051 8.93983 0.392122C9.06415 0.51644 9.16276 0.664027 9.23004 0.826457C9.29732 0.988886 9.33195 1.16298 9.33195 1.33879C9.33195 1.69386 9.1909 2.03438 8.93983 2.28546L4.53983 6.67212H14.6598C15.0135 6.67212 15.3526 6.8126 15.6026 7.06265C15.8527 7.3127 15.9932 7.65183 15.9932 8.00546C15.9932 8.35908 15.8527 8.69822 15.6026 8.94827C15.3526 9.19831 15.0135 9.33879 14.6598 9.33879H4.53983L8.93983 13.7255C9.0648 13.8494 9.16399 13.9969 9.23169 14.1594C9.29938 14.3218 9.33423 14.4961 9.33423 14.6721C9.33423 14.8481 9.29938 15.0224 9.23169 15.1849C9.16399 15.3474 9.0648 15.4948 8.93983 15.6188C8.81588 15.7438 8.66841 15.843 8.50593 15.9106C8.34345 15.9783 8.16918 16.0132 7.99316 16.0132C7.81715 16.0132 7.64287 15.9783 7.48039 15.9106C7.31792 15.843 7.17045 15.7438 7.0465 15.6188L0.379831 8.95212C0.258444 8.82532 0.163289 8.67579 0.0998302 8.51212C-0.0335272 8.18751 -0.0335272 7.8234 0.0998302 7.49879Z" fill="#0625BA"/>
</svg>
