<svg width="32" height="32" viewBox="0 0 32 32" fill="none" xmlns="http://www.w3.org/2000/svg">
<rect width="32" height="32" rx="16" fill="white"/>
<g clip-path="url(#clip0)">
<path d="M16 8.87518V11.5002H18.625C19.1442 11.5002 19.6517 11.3462 20.0834 11.0578C20.515 10.7694 20.8515 10.3594 21.0502 9.87973C21.2489 9.40007 21.3008 8.87227 21.1996 8.36307C21.0983 7.85387 20.8483 7.38614 20.4812 7.01903C20.114 6.65192 19.6463 6.40191 19.1371 6.30062C18.6279 6.19934 18.1001 6.25132 17.6205 6.45C17.1408 6.64868 16.7308 6.98513 16.4424 7.41681C16.154 7.84849 16 8.35601 16 8.87518V8.87518Z" stroke="#0625BA" stroke-width="3" stroke-miterlimit="10" stroke-linecap="round"/>
<path d="M16 8.87518C16 9.59987 16 11.5002 16 11.5002H13.375C12.8558 11.5002 12.3483 11.3462 11.9166 11.0578C11.4849 10.7694 11.1485 10.3594 10.9498 9.87973C10.7511 9.40007 10.6992 8.87227 10.8004 8.36307C10.9017 7.85387 11.1517 7.38614 11.5188 7.01903C11.886 6.65192 12.3537 6.40191 12.8629 6.30062C13.3721 6.19934 13.8999 6.25132 14.3795 6.45C14.8592 6.64868 15.2692 6.98513 15.5576 7.41681C15.846 7.84849 16 8.35601 16 8.87518V8.87518Z" stroke="#0625BA" stroke-width="3" stroke-miterlimit="10" stroke-linecap="round"/>
<path d="M23.5 11.5005H8.5C7.67157 11.5005 7 12.1721 7 13.0005V15.2505C7 16.079 7.67157 16.7505 8.5 16.7505H23.5C24.3284 16.7505 25 16.079 25 15.2505V13.0005C25 12.1721 24.3284 11.5005 23.5 11.5005Z" stroke="#0625BA" stroke-width="3" stroke-linecap="round" stroke-linejoin="round"/>
<path d="M23.5 16.7504V23.5004C23.5 24.0972 23.2629 24.6695 22.841 25.0914C22.419 25.5134 21.8467 25.7504 21.25 25.7504H10.75C10.1533 25.7504 9.58097 25.5134 9.15901 25.0914C8.73705 24.6695 8.5 24.0972 8.5 23.5004V16.7504" stroke="#0625BA" stroke-width="3" stroke-linecap="round" stroke-linejoin="round"/>
<path d="M16 11.5005V25.7505" stroke="#0625BA" stroke-width="3" stroke-linecap="round" stroke-linejoin="round"/>
</g>
<defs>
<clipPath id="clip0">
<rect width="24" height="24" fill="white" transform="translate(4 4)"/>
</clipPath>
</defs>
</svg>
