<svg width="32" height="32" viewBox="0 0 32 32" fill="none" xmlns="http://www.w3.org/2000/svg">
<rect width="32" height="32" rx="16" fill="white"/>
<path d="M24.0472 20.4728C22.8435 18.9996 21.9936 18.2496 21.9936 14.1879C21.9936 10.4683 20.0943 9.14317 18.531 8.49957C18.3233 8.41426 18.1279 8.21832 18.0646 8.00504C17.7904 7.07176 17.0216 6.24957 15.9997 6.24957C14.9779 6.24957 14.2086 7.07223 13.9372 8.00598C13.874 8.2216 13.6785 8.41426 13.4708 8.49957C11.9057 9.1441 10.0082 10.4646 10.0082 14.1879C10.0058 18.2496 9.15599 18.9996 7.95224 20.4728C7.45349 21.0832 7.89037 21.9996 8.76271 21.9996H23.2415C24.1091 21.9996 24.5432 21.0803 24.0472 20.4728Z" stroke="#0625BA" stroke-width="2" stroke-linecap="round" stroke-linejoin="round"/>
<path d="M19 21.9988V22.7488C19 23.5445 18.6839 24.3075 18.1213 24.8701C17.5587 25.4327 16.7956 25.7488 16 25.7488C15.2043 25.7488 14.4413 25.4327 13.8787 24.8701C13.3161 24.3075 13 23.5445 13 22.7488V21.9988" stroke="#0625BA" stroke-width="2" stroke-linecap="round" stroke-linejoin="round"/>
</svg>
