<svg width="32" height="32" viewBox="0 0 32 32" fill="none" xmlns="http://www.w3.org/2000/svg">
<rect width="32" height="32" rx="16" fill="white"/>
<g clip-path="url(#clip0)">
<g opacity="0.3">
<path d="M13.5954 13.6183C13.5954 13.1427 13.7365 12.6778 14.0007 12.2824C14.2649 11.8869 14.6404 11.5787 15.0798 11.3967C15.5192 11.2147 16.0027 11.1671 16.4691 11.2599C16.9355 11.3527 17.364 11.5817 17.7003 11.918C18.0366 12.2543 18.2656 12.6827 18.3584 13.1492C18.4511 13.6156 18.4035 14.0991 18.2215 14.5385C18.0395 14.9778 17.7313 15.3534 17.3359 15.6176C16.9405 15.8818 16.4756 16.0228 16 16.0228C15.3623 16.0228 14.7507 15.7695 14.2997 15.3186C13.8488 14.8676 13.5954 14.256 13.5954 13.6183Z" fill="#0625BA"/>
<path d="M16 25.6411C13.5094 25.6373 11.1174 24.6676 9.32733 22.936C9.87081 21.6129 10.7954 20.4813 11.9835 19.6849C13.1716 18.8885 14.5697 18.4632 16 18.4632C17.4303 18.4632 18.8284 18.8885 20.0165 19.6849C21.2046 20.4813 22.1292 21.6129 22.6727 22.936C20.8826 24.6676 18.4906 25.6373 16 25.6411Z" fill="#0625BA"/>
</g>
<path d="M16 4C13.6681 4.00443 11.3879 4.68688 9.43701 5.96422C7.48612 7.24156 5.94878 9.05866 5.01226 11.1942C4.07573 13.3297 3.78044 15.6915 4.16235 17.9919C4.54425 20.2923 5.58687 22.4319 7.16322 24.1503C8.28906 25.3707 9.65548 26.3446 11.1764 27.0108C12.6972 27.6769 14.3396 28.0208 16 28.0208C17.6604 28.0208 19.3028 27.6769 20.8236 27.0108C22.3445 26.3446 23.7109 25.3707 24.8368 24.1503C26.4131 22.4319 27.4557 20.2923 27.8377 17.9919C28.2196 15.6915 27.9243 13.3297 26.9877 11.1942C26.0512 9.05866 24.5139 7.24156 22.563 5.96422C20.6121 4.68688 18.3319 4.00443 16 4ZM16 25.6411C13.5094 25.6373 11.1174 24.6676 9.32733 22.936C9.87081 21.6129 10.7954 20.4813 11.9835 19.6849C13.1716 18.8885 14.5697 18.4632 16 18.4632C17.4303 18.4632 18.8284 18.8885 20.0165 19.6849C21.2046 20.4813 22.1292 21.6129 22.6727 22.936C20.8826 24.6676 18.4906 25.6373 16 25.6411ZM13.5954 13.6183C13.5954 13.1427 13.7365 12.6778 14.0007 12.2824C14.2649 11.8869 14.6404 11.5787 15.0798 11.3967C15.5192 11.2147 16.0027 11.1671 16.4691 11.2599C16.9355 11.3527 17.364 11.5817 17.7003 11.918C18.0366 12.2543 18.2656 12.6827 18.3584 13.1492C18.4511 13.6156 18.4035 14.0991 18.2215 14.5385C18.0395 14.9778 17.7313 15.3534 17.3359 15.6176C16.9405 15.8818 16.4756 16.0228 16 16.0228C15.3623 16.0228 14.7507 15.7695 14.2997 15.3186C13.8488 14.8676 13.5954 14.256 13.5954 13.6183ZM24.3078 20.832C23.2336 18.9946 21.5803 17.5654 19.6069 16.7683C20.219 16.0741 20.6179 15.2181 20.7556 14.3029C20.8933 13.3877 20.764 12.4522 20.3832 11.6086C20.0024 10.7651 19.3863 10.0494 18.6088 9.5473C17.8314 9.04523 16.9255 8.77817 16 8.77817C15.0745 8.77817 14.1686 9.04523 13.3912 9.5473C12.6137 10.0494 11.9976 10.7651 11.6168 11.6086C11.236 12.4522 11.1067 13.3877 11.2444 14.3029C11.3821 15.2181 11.781 16.0741 12.3931 16.7683C10.4197 17.5654 8.76642 18.9946 7.69222 20.832C6.83613 19.3737 6.3838 17.7138 6.38173 16.0228C6.38173 13.4719 7.39508 11.0255 9.19886 9.22169C11.0026 7.41792 13.4491 6.40457 16 6.40457C18.5509 6.40457 20.9974 7.41792 22.8011 9.22169C24.6049 11.0255 25.6183 13.4719 25.6183 16.0228C25.6162 17.7138 25.1639 19.3737 24.3078 20.832Z" fill="#0625BA"/>
</g>
<defs>
<clipPath id="clip0">
<rect width="24" height="24" fill="white" transform="translate(4 4)"/>
</clipPath>
</defs>
</svg>
