<svg width="32" height="32" viewBox="0 0 32 32" fill="none" xmlns="http://www.w3.org/2000/svg">
<rect width="32" height="32" rx="16" fill="white"/>
<g clip-path="url(#clip0)">
<path fill-rule="evenodd" clip-rule="evenodd" d="M13.875 23.0544C13.8773 22.503 14.0987 21.9746 14.4913 21.5832C14.6888 21.3862 14.9238 21.2298 15.1828 21.1231C15.4417 21.0164 15.7195 20.9615 16 20.9615C16.2805 20.9615 16.5583 21.0164 16.8172 21.1231C17.0762 21.2298 17.3112 21.3862 17.5087 21.5832C17.9013 21.9746 18.1227 22.503 18.125 23.0544C18.1241 23.5384 17.9542 24.0074 17.6441 24.3819C17.334 24.7564 16.9027 25.0136 16.423 25.11C15.9433 25.2063 15.4448 25.136 15.0115 24.9108C14.5782 24.6856 14.2368 24.3194 14.045 23.874C13.9334 23.6148 13.8755 23.3361 13.875 23.0544ZM12.8102 7.0844C13.7801 6.53097 14.8803 6.23997 16 6.24068C17.6908 6.24068 19.3123 6.90497 20.5078 8.08741C21.7033 9.26985 22.375 10.8736 22.375 12.5458C22.375 14.218 21.7033 15.8218 20.5078 17.0042C19.3123 18.1866 17.6908 18.8509 16 18.8509C15.4364 18.8509 14.8959 18.6295 14.4974 18.2354C14.0989 17.8412 13.875 17.3066 13.875 16.7492C13.875 16.1918 14.0989 15.6572 14.4974 15.2631C14.8959 14.8689 15.4364 14.6475 16 14.6475C16.3727 14.6461 16.7384 14.5477 17.0604 14.3623C17.3825 14.1769 17.6496 13.911 17.835 13.5912C18.0204 13.2715 18.1175 12.9092 18.1165 12.5406C18.1156 12.172 18.0167 11.8102 17.8297 11.4914C17.6428 11.1725 17.3743 10.9079 17.0513 10.7241C16.7283 10.5403 16.3621 10.4438 15.9894 10.4441C15.6168 10.4445 15.2508 10.5418 14.9281 10.7262C14.6055 10.9107 14.3376 11.1758 14.1513 11.495C13.8572 11.9524 13.3958 12.2798 12.8635 12.4088C12.3311 12.5378 11.769 12.4583 11.2945 12.187C10.82 11.9158 10.4698 11.4736 10.3171 10.953C10.1644 10.4324 10.221 9.87357 10.475 9.39325C11.0349 8.43415 11.8403 7.63783 12.8102 7.0844Z" fill="#0625BA"/>
</g>
<defs>
<clipPath id="clip0">
<rect width="24" height="24" fill="white" transform="translate(4 4)"/>
</clipPath>
</defs>
</svg>
