<svg width="32" height="32" viewBox="0 0 32 32" fill="none" xmlns="http://www.w3.org/2000/svg">
<rect width="32" height="32" rx="16" fill="white"/>
<path d="M16.0001 4C11.1624 4 7.22693 7.93548 7.22693 12.7732V13.7249H9.01132V12.7732C9.01132 8.91953 12.1465 5.78439 16.0001 5.78439C19.8538 5.78439 22.989 8.91958 22.989 12.7732V13.7249H24.7734V12.7732C24.7734 7.93548 20.8376 4 16.0001 4Z" fill="#0625BA"/>
<path d="M9.95623 12.64H7.75549C6.2141 12.64 4.95996 13.8942 4.95996 15.4355V19.5099C4.95996 21.0513 6.2141 22.3054 7.75549 22.3054H9.95623C10.449 22.3054 10.8484 21.906 10.8484 21.4132V13.5322C10.8484 13.0394 10.449 12.64 9.95623 12.64ZM9.06406 20.5211H7.75549C7.18863 20.5211 6.74435 20.0771 6.74435 19.5099V15.4356C6.74435 14.8687 7.18868 14.4245 7.75549 14.4245H9.06406V20.5211Z" fill="#0625BA"/>
<path opacity="0.3" d="M9.06406 20.5211H7.75549C7.18863 20.5211 6.74435 20.0771 6.74435 19.5099V15.4356C6.74435 14.8687 7.18868 14.4245 7.75549 14.4245H9.06406V20.5211Z" fill="#0625BA"/>
<path d="M24.8326 12.8327H22.6322C22.1394 12.8327 21.74 13.2321 21.74 13.7249V21.6059C21.74 22.0987 22.1394 22.4981 22.6322 22.4981H24.8329C26.3743 22.4981 27.6284 21.244 27.6281 19.7026V15.6282C27.6281 14.0868 26.3743 12.8327 24.8326 12.8327ZM25.8438 19.7026C25.8438 20.2697 25.3998 20.7137 24.8326 20.7137H23.5244V14.6171H24.8326C25.3998 14.6171 25.8438 15.0614 25.8438 15.6282V19.7026Z" fill="#0625BA"/>
<g opacity="0.3">
<path d="M25.8436 19.7027C25.8436 20.2698 25.3996 20.7138 24.8325 20.7138H23.5243V14.6172H24.8325C25.3996 14.6172 25.8436 15.0615 25.8436 15.6283V19.7027Z" fill="#0625BA"/>
</g>
<path d="M23.6137 21.6059C23.6137 22.8523 22.5995 23.8661 21.3532 23.8661H18.974V25.6505H21.3532C23.5834 25.6505 25.3978 23.8361 25.3981 21.6059H23.6137Z" fill="#0625BA"/>
<path d="M19.8362 24.7381C19.8252 22.9603 18.3751 21.517 16.5946 21.517C14.8075 21.517 13.3533 22.9709 13.3533 24.7583C13.3533 26.5457 14.8209 27.9999 16.6246 27.9999C17.5153 27.9999 18.3733 27.6368 18.9782 27.0034C19.5653 26.3892 19.8692 25.5856 19.8362 24.7381ZM17.6887 25.77C17.4184 26.0529 17.0306 26.2153 16.6249 26.2153C15.8189 26.2153 15.1379 25.5479 15.1379 24.758C15.1379 23.9548 15.7913 23.301 16.5949 23.301C17.3985 23.301 18.0522 23.955 18.0524 24.7577C18.0524 24.7714 18.0527 24.7847 18.0533 24.7984C18.0696 25.1615 17.9403 25.5068 17.6887 25.77Z" fill="#0625BA"/>
<path opacity="0.3" d="M17.6887 25.77C17.4184 26.0529 17.0306 26.2153 16.6249 26.2153C15.8189 26.2153 15.1379 25.5479 15.1379 24.758C15.1379 23.9548 15.7913 23.301 16.5949 23.301C17.3985 23.301 18.0522 23.955 18.0524 24.7577C18.0524 24.7714 18.0527 24.7847 18.0533 24.7984C18.0696 25.1615 17.9403 25.5068 17.6887 25.77Z" fill="#0625BA"/>
</svg>
