<svg width="376" height="812" viewBox="0 0 376 812" fill="none" xmlns="http://www.w3.org/2000/svg">
<rect x="-19" y="-68" width="496" height="948" fill="#FF92C6"/>
<path d="M292.5 -67C301.5 5 149 38.5 149 244.5C148.999 600 291.999 610.5 307.5 880.5H684V-67H292.5Z" fill="#FBB104"/>
<path d="M343.5 -67.5C352.5 4.5 200 38 200 244C199.999 599.5 342.999 610 358.5 880H735V-67.5H343.5Z" fill="#FF4602"/>
<path d="M394.5 -67.5C403.5 4.5 251 38 251 244C250.999 599.5 393.999 610 409.5 880H786V-67.5H394.5Z" fill="#B06902"/>
<path d="M444.5 -67.5C453.5 4.5 301 38 301 244C300.999 599.5 443.999 610 459.5 880H836V-67.5H444.5Z" fill="#973FBD"/>
<path d="M495.5 -67.5C504.5 4.5 352 38 352 244C351.999 599.5 494.999 610 510.5 880H887V-67.5H495.5Z" fill="#0625BA"/>
</svg>
