<svg width="41" height="40" viewBox="0 0 41 40" fill="none" xmlns="http://www.w3.org/2000/svg">
<rect x="0.5" width="40" height="40" rx="20" fill="#FF4602"/>
<path d="M20.5 15C19.5111 15 18.5444 15.2932 17.7221 15.8427C16.8999 16.3921 16.259 17.173 15.8806 18.0866C15.5022 19.0002 15.4031 20.0055 15.5961 20.9755C15.789 21.9454 16.2652 22.8363 16.9645 23.5355C17.6637 24.2348 18.5546 24.711 19.5245 24.9039C20.4945 25.0969 21.4998 24.9978 22.4134 24.6194C23.327 24.241 24.1079 23.6001 24.6573 22.7779C25.2068 21.9556 25.5 20.9889 25.5 20C25.5 18.6739 24.9732 17.4021 24.0355 16.4645C23.0979 15.5268 21.8261 15 20.5 15ZM20.5 23C19.9067 23 19.3266 22.8241 18.8333 22.4944C18.3399 22.1648 17.9554 21.6962 17.7284 21.1481C17.5013 20.5999 17.4419 19.9967 17.5576 19.4147C17.6734 18.8328 17.9591 18.2982 18.3787 17.8787C18.7982 17.4591 19.3328 17.1734 19.9147 17.0576C20.4967 16.9419 21.0999 17.0013 21.6481 17.2284C22.1962 17.4554 22.6648 17.8399 22.9944 18.3333C23.3241 18.8266 23.5 19.4067 23.5 20C23.5 20.7956 23.1839 21.5587 22.6213 22.1213C22.0587 22.6839 21.2956 23 20.5 23ZM25.5 14C25.3022 14 25.1089 14.0586 24.9444 14.1685C24.78 14.2784 24.6518 14.4346 24.5761 14.6173C24.5004 14.8 24.4806 15.0011 24.5192 15.1951C24.5578 15.3891 24.653 15.5673 24.7929 15.7071C24.9327 15.847 25.1109 15.9422 25.3049 15.9808C25.4989 16.0194 25.7 15.9996 25.8827 15.9239C26.0654 15.8482 26.2216 15.72 26.3315 15.5556C26.4414 15.3911 26.5 15.1978 26.5 15C26.5 14.7348 26.3946 14.4804 26.2071 14.2929C26.0196 14.1054 25.7652 14 25.5 14ZM30.44 16.24C30.4234 15.3854 30.2611 14.5399 29.96 13.74C29.6808 13.0121 29.2516 12.351 28.7003 11.7997C28.149 11.2484 27.4879 10.8192 26.76 10.54C25.9601 10.2389 25.1146 10.0766 24.26 10.06C23.29 10 22.97 10 20.5 10C18.03 10 17.71 10 16.74 10.06C15.8854 10.0766 15.0399 10.2389 14.24 10.54C13.5121 10.8192 12.851 11.2484 12.2997 11.7997C11.7484 12.351 11.3192 13.0121 11.04 13.74C10.7389 14.5399 10.5766 15.3854 10.56 16.24C10.5 17.22 10.5 17.54 10.5 20C10.5 22.46 10.5 22.78 10.56 23.76C10.5766 24.6146 10.7389 25.4601 11.04 26.26C11.3192 26.9879 11.7484 27.649 12.2997 28.2003C12.851 28.7516 13.5121 29.1808 14.24 29.46C15.0399 29.7611 15.8854 29.9234 16.74 29.94C17.74 29.94 18.03 30 20.5 30C22.97 30 23.29 30 24.26 29.94C25.1146 29.9234 25.9601 29.7611 26.76 29.46C27.4879 29.1808 28.149 28.7516 28.7003 28.2003C29.2516 27.649 29.6808 26.9879 29.96 26.26C30.2611 25.4601 30.4234 24.6146 30.44 23.76C30.44 22.76 30.5 22.46 30.5 20C30.5 17.54 30.5 17.22 30.44 16.24ZM28.44 23.67C28.4225 24.3046 28.3043 24.9324 28.09 25.53C27.9128 26.0023 27.6327 26.4293 27.27 26.78C26.9214 27.1428 26.4936 27.4201 26.02 27.59C25.421 27.8131 24.789 27.9348 24.15 27.95C23.21 27.95 22.92 28 20.49 28C18.06 28 17.78 28 16.84 28C16.202 27.9835 15.5708 27.8654 14.97 27.65C14.4977 27.4728 14.0707 27.1927 13.72 26.83C13.3572 26.4814 13.0799 26.0536 12.91 25.58C12.6878 24.9842 12.5661 24.3557 12.55 23.72C12.55 22.72 12.55 22.47 12.55 20.05C12.55 17.63 12.55 17.34 12.55 16.38C12.5672 15.7412 12.6888 15.1095 12.91 14.51C13.0826 14.0406 13.3595 13.6166 13.72 13.27C14.0686 12.9072 14.4964 12.6299 14.97 12.46C15.569 12.2369 16.201 12.1152 16.84 12.1C17.78 12 18.07 12 20.5 12C22.93 12 23.22 12 24.16 12C24.8021 12.0163 25.4373 12.1379 26.04 12.36C26.5094 12.5326 26.9334 12.8095 27.28 13.17C27.6428 13.5186 27.9201 13.9464 28.09 14.42C28.3348 15.0286 28.4735 15.6746 28.5 16.33C28.5 17.33 28.55 17.58 28.55 20C28.55 22.42 28.5 22.71 28.5 23.67H28.44Z" fill="white"/>
</svg>
