<svg width="41" height="40" viewBox="0 0 41 40" fill="none" xmlns="http://www.w3.org/2000/svg">
<rect x="0.5" width="40" height="40" rx="20" fill="#973FBD"/>
<path d="M31.4914 11.9502C31.4915 11.7736 31.4448 11.6001 31.3561 11.4474C31.2673 11.2946 31.1397 11.1682 30.9862 11.0808C30.8326 10.9935 30.6587 10.9484 30.4821 10.9502C30.3054 10.9519 30.1324 11.0005 29.9807 11.0908C29.3954 11.4392 28.7652 11.706 28.1077 11.8838C27.1686 11.0781 25.971 10.6371 24.7337 10.6416C23.3762 10.6432 22.0726 11.1722 21.0979 12.117C20.1232 13.0618 19.5539 14.3484 19.51 15.7051C16.834 15.2784 14.4087 13.8816 12.6965 11.7813C12.5933 11.6561 12.4616 11.5576 12.3124 11.494C12.1631 11.4304 12.0008 11.4037 11.8391 11.416C11.6774 11.4293 11.5215 11.4818 11.3847 11.5689C11.2479 11.656 11.1343 11.7752 11.0539 11.916C10.6414 12.6358 10.4045 13.4428 10.3625 14.2713C10.3204 15.0999 10.4743 15.9267 10.8117 16.6846L10.8098 16.6865C10.6581 16.7799 10.533 16.9107 10.4463 17.0663C10.3596 17.2218 10.3143 17.3971 10.3147 17.5752C10.3128 17.7221 10.3216 17.869 10.341 18.0146C10.4432 19.2729 11.0008 20.4507 11.9094 21.3271C11.8477 21.4446 11.8101 21.5731 11.7987 21.7052C11.7873 21.8373 11.8024 21.9704 11.843 22.0967C12.2391 23.3308 13.0815 24.3727 14.2053 25.0185C13.0635 25.46 11.8307 25.614 10.6154 25.4668C10.3905 25.4386 10.1627 25.4876 9.96928 25.6059C9.7759 25.7242 9.62846 25.9047 9.55115 26.1178C9.47384 26.3309 9.47124 26.5639 9.54379 26.7787C9.61634 26.9935 9.75973 27.1772 9.95043 27.2998C12.0405 28.646 14.4741 29.3617 16.9602 29.3613C19.7795 29.393 22.5302 28.4921 24.7844 26.7988C27.0387 25.1054 28.6702 22.7145 29.425 19.998C29.7781 18.8146 29.9583 17.5865 29.9602 16.3516C29.9602 16.2861 29.9602 16.2188 29.9592 16.1514C30.4813 15.5883 30.8858 14.9267 31.1489 14.2053C31.412 13.4839 31.5284 12.7172 31.4914 11.9502ZM28.1848 15.1621C28.0196 15.3575 27.936 15.6089 27.9514 15.8643C27.9611 16.0293 27.9602 16.1953 27.9602 16.3516C27.9581 17.3951 27.8052 18.4329 27.5061 19.4326C26.8896 21.744 25.5152 23.7817 23.6031 25.2192C21.6911 26.6568 19.3519 27.4111 16.9602 27.3613C16.1011 27.3616 15.2449 27.2606 14.4094 27.0606C15.4748 26.7172 16.471 26.1879 17.3518 25.4971C17.514 25.3693 17.6328 25.1945 17.6917 24.9967C17.7506 24.7988 17.7469 24.5875 17.681 24.3918C17.6151 24.1961 17.4902 24.0257 17.3236 23.9038C17.1569 23.7819 16.9566 23.7145 16.7502 23.7109C15.919 23.698 15.1253 23.363 14.5363 22.7764C14.6858 22.7481 14.8342 22.7129 14.9817 22.6709C15.1977 22.6094 15.3867 22.477 15.5183 22.295C15.6499 22.1131 15.7165 21.8921 15.7072 21.6677C15.698 21.4433 15.6135 21.2285 15.4673 21.058C15.3212 20.8874 15.1219 20.7711 14.9016 20.7275C14.4191 20.6323 13.9651 20.427 13.5749 20.1277C13.1847 19.8284 12.8687 19.4432 12.6516 19.002C12.8323 19.0266 13.0142 19.0419 13.1965 19.0479C13.4131 19.0511 13.6251 18.9854 13.8019 18.8603C13.9787 18.7351 14.111 18.5569 14.1799 18.3516C14.2459 18.1443 14.2425 17.9212 14.1702 17.7161C14.098 17.511 13.9608 17.335 13.7795 17.2148C13.3397 16.9218 12.9793 16.5243 12.7309 16.0578C12.4824 15.5913 12.3535 15.0705 12.3557 14.542C12.3557 14.4756 12.3576 14.4092 12.3615 14.3438C14.6028 16.434 17.5099 17.6662 20.5705 17.8233C20.725 17.8293 20.8789 17.8002 21.0205 17.7382C21.1621 17.6761 21.2877 17.5826 21.3879 17.4649C21.4871 17.346 21.5573 17.2057 21.5931 17.055C21.6288 16.9044 21.6291 16.7475 21.5939 16.5967C21.5367 16.3581 21.5076 16.1136 21.507 15.8682C21.5079 15.0127 21.8482 14.1925 22.4531 13.5876C23.058 12.9827 23.8781 12.6425 24.7336 12.6416C25.1737 12.6404 25.6093 12.7305 26.0129 12.9062C26.4165 13.0818 26.7792 13.3392 27.0783 13.6621C27.1937 13.7862 27.3388 13.8787 27.5 13.9309C27.6612 13.983 27.833 13.993 27.9992 13.96C28.41 13.8801 28.8149 13.7724 29.2111 13.6377C28.9409 14.1907 28.5955 14.7037 28.1848 15.1621Z" fill="white"/>
</svg>
