<svg width="239" height="99" viewBox="0 0 239 99" fill="none" xmlns="http://www.w3.org/2000/svg">
<path d="M16.2245 48C15.8405 48 15.6325 47.824 15.6005 47.472L14.8325 42.864C14.8325 42.704 14.7365 42.624 14.5445 42.624H8.44849C8.25649 42.624 8.16049 42.704 8.16049 42.864L7.39249 47.472C7.36049 47.824 7.15249 48 6.76849 48H1.15249C0.736488 48 0.576488 47.792 0.672488 47.376L7.72849 14.928C7.79249 14.576 8.00049 14.4 8.35249 14.4H14.8325C15.1845 14.4 15.3925 14.576 15.4565 14.928L22.4645 47.376L22.5125 47.568C22.5125 47.856 22.3365 48 21.9845 48H16.2245ZM9.12049 37.152C9.12049 37.312 9.18449 37.392 9.31249 37.392H13.6325C13.7925 37.392 13.8565 37.312 13.8245 37.152L11.5685 24.048C11.5365 23.952 11.4885 23.904 11.4245 23.904C11.3605 23.904 11.3125 23.952 11.2805 24.048L9.12049 37.152ZM44.5647 38.736C44.5647 41.712 43.6687 44 41.8767 45.6C40.0847 47.2 37.7647 48 34.9167 48H25.8447C25.6847 48 25.5407 47.952 25.4127 47.856C25.3167 47.728 25.2687 47.584 25.2687 47.424V14.976C25.2687 14.816 25.3167 14.688 25.4127 14.592C25.5407 14.464 25.6847 14.4 25.8447 14.4H33.8607C37.0607 14.4 39.5567 15.168 41.3487 16.704C43.1727 18.24 44.0847 20.528 44.0847 23.568C44.0847 26.736 42.9967 29.04 40.8207 30.48C40.6927 30.576 40.6767 30.672 40.7727 30.768C43.3007 32.56 44.5647 35.216 44.5647 38.736ZM32.2767 20.208C32.1167 20.208 32.0367 20.288 32.0367 20.448V27.984C32.0367 28.144 32.1167 28.224 32.2767 28.224H34.0047C35.0927 28.224 35.9407 27.888 36.5487 27.216C37.1567 26.512 37.4607 25.536 37.4607 24.288C37.4607 22.976 37.1567 21.968 36.5487 21.264C35.9727 20.56 35.1247 20.208 34.0047 20.208H32.2767ZM34.3887 42.144C35.4447 42.144 36.2767 41.76 36.8847 40.992C37.4927 40.224 37.7967 39.136 37.7967 37.728C37.7967 36.32 37.4927 35.2 36.8847 34.368C36.2767 33.536 35.4607 33.12 34.4367 33.12H32.2767C32.1167 33.12 32.0367 33.2 32.0367 33.36V41.904C32.0367 42.064 32.1167 42.144 32.2767 42.144H34.3887ZM57.0316 48.384C54.0876 48.384 51.7356 47.52 49.9756 45.792C48.2156 44.064 47.3356 41.76 47.3356 38.88V23.52C47.3356 20.64 48.2156 18.336 49.9756 16.608C51.7356 14.88 54.0876 14.016 57.0316 14.016C59.9756 14.016 62.3276 14.88 64.0876 16.608C65.8796 18.336 66.7756 20.64 66.7756 23.52V38.88C66.7756 41.76 65.8796 44.064 64.0876 45.792C62.3276 47.52 59.9756 48.384 57.0316 48.384ZM57.0316 42.576C57.9276 42.576 58.6476 42.272 59.1916 41.664C59.7356 41.024 60.0076 40.192 60.0076 39.168V23.232C60.0076 22.208 59.7356 21.392 59.1916 20.784C58.6476 20.144 57.9276 19.824 57.0316 19.824C56.1356 19.824 55.4156 20.144 54.8716 20.784C54.3596 21.392 54.1036 22.208 54.1036 23.232V39.168C54.1036 40.192 54.3596 41.024 54.8716 41.664C55.4156 42.272 56.1356 42.576 57.0316 42.576ZM84.2311 14.976C84.2311 14.816 84.2791 14.688 84.3751 14.592C84.5031 14.464 84.6471 14.4 84.8071 14.4H90.3751C90.5351 14.4 90.6631 14.464 90.7591 14.592C90.8871 14.688 90.9511 14.816 90.9511 14.976V47.424C90.9511 47.584 90.8871 47.728 90.7591 47.856C90.6631 47.952 90.5351 48 90.3751 48H84.0391C83.7191 48 83.5111 47.84 83.4151 47.52L77.4631 28.944C77.4311 28.848 77.3671 28.816 77.2711 28.848C77.2071 28.848 77.1751 28.896 77.1751 28.992L77.2231 47.424C77.2231 47.584 77.1591 47.728 77.0311 47.856C76.9351 47.952 76.8071 48 76.6471 48H71.0791C70.9191 48 70.7751 47.952 70.6471 47.856C70.5511 47.728 70.5031 47.584 70.5031 47.424V14.976C70.5031 14.816 70.5511 14.688 70.6471 14.592C70.7751 14.464 70.9191 14.4 71.0791 14.4H77.3671C77.6871 14.4 77.8951 14.56 77.9911 14.88L83.9911 33.456C84.0231 33.552 84.0711 33.6 84.1351 33.6C84.2311 33.568 84.2791 33.504 84.2791 33.408L84.2311 14.976ZM108.887 14.976C108.887 14.816 108.935 14.688 109.031 14.592C109.159 14.464 109.303 14.4 109.463 14.4H115.031C115.191 14.4 115.319 14.464 115.415 14.592C115.543 14.688 115.607 14.816 115.607 14.976V47.424C115.607 47.584 115.543 47.728 115.415 47.856C115.319 47.952 115.191 48 115.031 48H108.695C108.375 48 108.167 47.84 108.071 47.52L102.119 28.944C102.087 28.848 102.023 28.816 101.927 28.848C101.863 28.848 101.831 28.896 101.831 28.992L101.879 47.424C101.879 47.584 101.815 47.728 101.687 47.856C101.591 47.952 101.463 48 101.303 48H95.7354C95.5754 48 95.4314 47.952 95.3034 47.856C95.2074 47.728 95.1594 47.584 95.1594 47.424V14.976C95.1594 14.816 95.2074 14.688 95.3034 14.592C95.4314 14.464 95.5754 14.4 95.7354 14.4H102.023C102.343 14.4 102.551 14.56 102.647 14.88L108.647 33.456C108.679 33.552 108.727 33.6 108.791 33.6C108.887 33.568 108.935 33.504 108.935 33.408L108.887 14.976ZM137.432 19.632C137.432 19.792 137.368 19.936 137.24 20.064C137.144 20.16 137.016 20.208 136.856 20.208H126.824C126.664 20.208 126.584 20.288 126.584 20.448V28.032C126.584 28.192 126.664 28.272 126.824 28.272H132.584C132.744 28.272 132.872 28.336 132.968 28.464C133.096 28.56 133.16 28.688 133.16 28.848V33.504C133.16 33.664 133.096 33.808 132.968 33.936C132.872 34.032 132.744 34.08 132.584 34.08H126.824C126.664 34.08 126.584 34.16 126.584 34.32V41.952C126.584 42.112 126.664 42.192 126.824 42.192H136.856C137.016 42.192 137.144 42.256 137.24 42.384C137.368 42.48 137.432 42.608 137.432 42.768V47.424C137.432 47.584 137.368 47.728 137.24 47.856C137.144 47.952 137.016 48 136.856 48H120.392C120.232 48 120.088 47.952 119.96 47.856C119.864 47.728 119.816 47.584 119.816 47.424V14.976C119.816 14.816 119.864 14.688 119.96 14.592C120.088 14.464 120.232 14.4 120.392 14.4H136.856C137.016 14.4 137.144 14.464 137.24 14.592C137.368 14.688 137.432 14.816 137.432 14.976V19.632ZM156.222 14.784C156.35 14.528 156.59 14.4 156.942 14.4H162.51C162.67 14.4 162.798 14.464 162.894 14.592C163.022 14.688 163.086 14.816 163.086 14.976V47.424C163.086 47.584 163.022 47.728 162.894 47.856C162.798 47.952 162.67 48 162.51 48H156.894C156.734 48 156.59 47.952 156.462 47.856C156.366 47.728 156.318 47.584 156.318 47.424V25.872C156.318 25.744 156.286 25.68 156.222 25.68C156.158 25.68 156.094 25.728 156.03 25.824L152.286 32.448C152.126 32.704 151.998 32.832 151.902 32.832C151.806 32.832 151.678 32.704 151.518 32.448L147.774 25.824C147.71 25.728 147.646 25.68 147.582 25.68C147.518 25.68 147.486 25.744 147.486 25.872V47.424C147.486 47.584 147.422 47.728 147.294 47.856C147.198 47.952 147.07 48 146.91 48H141.294C141.134 48 140.99 47.952 140.862 47.856C140.766 47.728 140.718 47.584 140.718 47.424V14.976C140.718 14.816 140.766 14.688 140.862 14.592C140.99 14.464 141.134 14.4 141.294 14.4H146.814C147.134 14.4 147.374 14.528 147.534 14.784L151.806 22.416C151.902 22.544 151.998 22.544 152.094 22.416L156.222 14.784ZM184.775 19.632C184.775 19.792 184.711 19.936 184.583 20.064C184.487 20.16 184.359 20.208 184.199 20.208H174.167C174.007 20.208 173.927 20.288 173.927 20.448V28.032C173.927 28.192 174.007 28.272 174.167 28.272H179.927C180.087 28.272 180.215 28.336 180.311 28.464C180.439 28.56 180.503 28.688 180.503 28.848V33.504C180.503 33.664 180.439 33.808 180.311 33.936C180.215 34.032 180.087 34.08 179.927 34.08H174.167C174.007 34.08 173.927 34.16 173.927 34.32V41.952C173.927 42.112 174.007 42.192 174.167 42.192H184.199C184.359 42.192 184.487 42.256 184.583 42.384C184.711 42.48 184.775 42.608 184.775 42.768V47.424C184.775 47.584 184.711 47.728 184.583 47.856C184.487 47.952 184.359 48 184.199 48H167.735C167.575 48 167.431 47.952 167.303 47.856C167.207 47.728 167.159 47.584 167.159 47.424V14.976C167.159 14.816 167.207 14.688 167.303 14.592C167.431 14.464 167.575 14.4 167.735 14.4H184.199C184.359 14.4 184.487 14.464 184.583 14.592C184.711 14.688 184.775 14.816 184.775 14.976V19.632ZM201.934 14.976C201.934 14.816 201.982 14.688 202.078 14.592C202.206 14.464 202.35 14.4 202.51 14.4H208.078C208.238 14.4 208.366 14.464 208.462 14.592C208.59 14.688 208.654 14.816 208.654 14.976V47.424C208.654 47.584 208.59 47.728 208.462 47.856C208.366 47.952 208.238 48 208.078 48H201.742C201.422 48 201.214 47.84 201.118 47.52L195.166 28.944C195.134 28.848 195.07 28.816 194.974 28.848C194.91 28.848 194.878 28.896 194.878 28.992L194.926 47.424C194.926 47.584 194.862 47.728 194.734 47.856C194.638 47.952 194.51 48 194.35 48H188.782C188.622 48 188.478 47.952 188.35 47.856C188.254 47.728 188.206 47.584 188.206 47.424V14.976C188.206 14.816 188.254 14.688 188.35 14.592C188.478 14.464 188.622 14.4 188.782 14.4H195.07C195.39 14.4 195.598 14.56 195.694 14.88L201.694 33.456C201.726 33.552 201.774 33.6 201.838 33.6C201.934 33.568 201.982 33.504 201.982 33.408L201.934 14.976ZM231.486 14.4C231.646 14.4 231.774 14.464 231.87 14.592C231.998 14.688 232.062 14.816 232.062 14.976V19.632C232.062 19.792 231.998 19.936 231.87 20.064C231.774 20.16 231.646 20.208 231.486 20.208H225.486C225.326 20.208 225.246 20.288 225.246 20.448V47.424C225.246 47.584 225.182 47.728 225.054 47.856C224.958 47.952 224.83 48 224.67 48H219.054C218.894 48 218.75 47.952 218.622 47.856C218.526 47.728 218.478 47.584 218.478 47.424V20.448C218.478 20.288 218.398 20.208 218.238 20.208H212.478C212.318 20.208 212.174 20.16 212.046 20.064C211.95 19.936 211.902 19.792 211.902 19.632V14.976C211.902 14.816 211.95 14.688 212.046 14.592C212.174 14.464 212.318 14.4 212.478 14.4H231.486Z" fill="#EEDFB7"/>
<rect y="48.2861" width="233" height="50.7161" transform="rotate(-1.3 0 48.2861)" fill="black"/>
<g clip-path="url(#clip0)">
<path d="M237.755 39.2148L-2.92786 44.6766L-1.59381 103.463L239.089 98.0009L237.755 39.2148Z" fill="black"/>
<path d="M12.4355 83.84L14.0898 80.8534L13.7048 63.8894L11.5562 63.9382L7.73569 68.9575L7.57775 68.9611L7.44666 63.1844L25.6044 62.7724L25.7355 68.549L25.5926 68.5523L21.5508 63.7114L19.3709 63.7608L19.7558 80.7248L21.5439 83.6333L21.5492 83.8666L12.4408 84.0733L12.4355 83.84Z" fill="white"/>
<path d="M40.2471 83.2089L41.9013 80.2222L41.7401 73.1184L34.5109 73.2825L34.6721 80.3863L36.4601 83.2948L36.4654 83.5281L27.3583 83.7348L27.353 83.5015L29.0073 80.5149L28.6752 65.884L26.8873 62.9767L26.882 62.7434L35.989 62.5367L35.9943 62.77L34.3401 65.7554L34.4913 72.4219L41.7206 72.2579L41.5693 65.5914L39.7813 62.6841L39.776 62.4508L48.8844 62.2441L48.8897 62.4774L47.2354 65.4628L47.5674 80.0937L49.3554 83.0022L49.3607 83.2355L40.2524 83.4422L40.2471 83.2089Z" fill="white"/>
<path d="M52.1693 65.3508L50.3813 62.4435L50.376 62.2102L66.6935 61.8399L66.8285 67.7912L66.6706 67.7948L62.5525 62.7949L57.7764 62.9033L57.9784 71.8021L60.8039 71.738L63.578 69.189L63.8651 69.1825L64.0054 75.3671L63.7184 75.3736L60.8283 72.5934L58.0028 72.6575L58.2186 82.1683L63.7343 82.0432L68.3384 76.8441L68.4637 76.8412L67.922 82.8142L50.8523 83.2016L50.847 82.9683L52.501 79.9676L52.1693 65.3508Z" fill="white"/>
<path d="M85.4041 82.4175L79.0755 64.6827L76.8012 61.8439L76.7959 61.6106L86.9647 61.3798L86.97 61.6131L85.2446 64.6154L85.2296 64.6158L88.9417 76.4262L91.5307 68.427L90.0795 64.3884L88.3076 61.5828L88.3023 61.3495L98.4862 61.1184L98.4914 61.3517L96.3023 64.3645L96.2734 64.3652L100.11 75.9534L103.759 64.18L103.703 64.1813L101.154 61.2913L101.149 61.058L107.102 60.9229L107.107 61.1562L104.677 64.1018L99.059 82.1076L96.503 82.1656L91.9873 69.7012L87.8535 82.3619L85.4041 82.4175Z" fill="white"/>
<path d="M106.167 71.4113C106.115 69.8991 106.346 68.3908 106.849 66.9671C107.309 65.6686 108.03 64.4816 108.965 63.4814C109.904 62.4936 111.032 61.7107 112.279 61.1804C115.016 60.0587 118.063 59.9896 120.848 60.9859C122.122 61.4589 123.288 62.1896 124.276 63.134C125.261 64.0903 126.042 65.2429 126.57 66.5196C127.146 67.9165 127.451 69.4136 127.466 70.928C127.518 72.4461 127.284 73.9601 126.779 75.389C126.313 76.6972 125.591 77.8953 124.656 78.9105C123.72 79.9099 122.593 80.703 121.343 81.2409C119.995 81.8175 118.55 82.1228 117.088 82.1398C116.09 82.1681 115.092 82.0707 114.117 81.85C113.208 81.6426 112.33 81.3139 111.505 80.8723C109.907 80.0152 108.58 78.716 107.677 77.1248C107.206 76.2963 106.843 75.4092 106.597 74.4859C106.329 73.4831 106.185 72.4503 106.167 71.4113ZM107.013 71.3921C107.012 72.1631 107.261 72.9133 107.72 73.5267C108.174 74.1185 108.823 74.6025 109.67 74.9787C110.658 75.3907 111.698 75.6616 112.759 75.7836C114.134 75.9537 115.519 76.0173 116.903 75.9741C118.297 75.9548 119.687 75.8281 121.062 75.5952C122.12 75.425 123.151 75.1094 124.126 74.657C124.958 74.2495 125.587 73.7369 126.015 73.1192C126.445 72.4836 126.66 71.7222 126.625 70.9509C126.627 70.1847 126.375 69.44 125.91 68.8369C125.452 68.2521 124.8 67.7779 123.955 67.4144C123.11 67.0509 122.076 66.7899 120.852 66.6315C119.471 66.4685 118.081 66.4088 116.692 66.4529C115.308 66.4731 113.927 66.5974 112.561 66.8247C111.354 67.0358 110.338 67.3459 109.511 67.755C108.684 68.164 108.055 68.6681 107.624 69.2672C107.195 69.8873 106.982 70.6348 107.017 71.3921L107.013 71.3921Z" fill="white"/>
<path d="M131.325 77.916L133.363 81.1263L133.368 81.3316L128.692 81.4377L128.687 81.2324L130.479 77.9378L130.153 63.581L128.236 60.6767L128.23 60.4434L134.34 60.3047L144.919 74.3089L144.674 63.5296L142.636 60.3206L142.631 60.1166L147.435 60.0076L147.44 60.2116L145.534 63.51L145.932 81.0439L143.984 81.8317L131.023 64.597L131.325 77.916Z" fill="white"/>
<path d="M150.519 63.105L148.747 60.2114L148.741 59.9781L157.719 59.7744C159.405 59.7175 161.092 59.8938 162.732 60.2984C164.139 60.6393 165.465 61.2671 166.628 62.1438C167.721 62.9894 168.598 64.091 169.184 65.355C169.799 66.6549 170.126 68.1943 170.167 69.9732C170.207 71.7522 169.955 73.3073 169.412 74.6385C168.892 75.9317 168.071 77.0767 167.019 77.9749C165.972 78.8703 164.698 79.5484 163.198 80.0094C161.556 80.4918 159.858 80.7449 158.149 80.7617L149.199 80.9648L149.193 80.7315L150.847 77.7309L150.519 63.105ZM156.57 79.9417L158.451 79.899C159.579 79.8734 160.514 79.6595 161.257 79.2575C162.005 78.8507 162.618 78.2273 163.017 77.4662C163.449 76.6749 163.747 75.6834 163.912 74.4917C164.085 73.1014 164.149 71.6992 164.104 70.2983C164.087 68.8307 163.95 67.3669 163.695 65.9222C163.461 64.697 163.104 63.6885 162.622 62.8967C162.183 62.1453 161.539 61.5396 160.768 61.1529C160.013 60.7806 159.095 60.6067 158.015 60.6312L156.134 60.6739L156.57 79.9417Z" fill="white"/>
<path d="M172.622 62.6174L170.834 59.7101L170.829 59.4768L187.151 59.1064L187.286 65.0577L187.128 65.0613L183.012 60.0613L178.235 60.1697L178.437 69.0686L181.263 69.0045L184.032 66.4556L184.317 66.4491L184.457 72.6337L184.17 72.6402L181.28 69.86L178.454 69.9241L178.67 79.435L184.186 79.3098L188.79 74.1107L188.915 74.1079L188.362 80.076L171.305 80.4631L171.3 80.2298L172.954 77.2291L172.622 62.6174Z" fill="white"/>
<path d="M190.264 79.8043L191.918 76.8177L191.586 62.1868L189.798 59.2796L189.793 59.0463L199.975 58.8152C201.239 58.7676 202.503 58.8673 203.745 59.1123C204.826 59.3429 205.731 59.6897 206.458 60.1528C207.138 60.5631 207.708 61.1383 208.116 61.827C208.491 62.4894 208.693 63.2384 208.703 64.0026C208.725 64.9655 208.548 65.7919 208.171 66.4816C207.798 67.1668 207.283 67.7609 206.66 68.2226C205.995 68.7133 205.257 69.0946 204.475 69.3526C203.648 69.6347 202.798 69.8444 201.936 69.9791C202.402 70.1402 202.88 70.2637 203.365 70.3485C203.874 70.439 204.461 70.5205 205.126 70.5929L209.101 76.8806L211.652 79.333L211.657 79.5523L203.933 79.7276L199.282 70.2294L198.575 70.2454L198.315 69.4783L199.016 69.4471C199.637 69.415 200.243 69.2445 200.792 68.9476C201.264 68.6823 201.667 68.3052 201.965 67.8482C202.274 67.364 202.488 66.8239 202.596 66.2573C202.725 65.5983 202.78 64.9265 202.759 64.2548C202.752 63.6008 202.662 62.9504 202.493 62.3194C202.35 61.7841 202.086 61.2903 201.722 60.8777C201.338 60.4679 200.86 60.1625 200.331 59.9896C199.649 59.7735 198.935 59.6809 198.222 59.716L197.203 59.7391L197.588 76.6954L199.376 79.6039L199.381 79.8372L190.269 80.044L190.264 79.8043Z" fill="white"/>
<path d="M212.925 64.1697C212.901 63.1395 213.09 62.2423 213.491 61.4781C213.894 60.7142 214.475 60.0622 215.183 59.5787C215.971 59.0473 216.844 58.6594 217.762 58.4321C218.822 58.1623 219.909 58.0178 221.002 58.0014L221.032 58.0007C221.555 57.9894 222.077 58.0091 222.598 58.0596C223.125 58.1114 223.633 58.1828 224.124 58.2737C224.614 58.3646 225.076 58.4689 225.51 58.5853C225.945 58.7018 226.341 58.8216 226.687 58.9413L227.211 64.2715L227.009 64.2761C226.86 63.9878 226.634 63.6039 226.331 63.1243C226.003 62.6094 225.644 62.1153 225.256 61.6448C224.838 61.1297 224.385 60.6447 223.9 60.1934C223.438 59.7587 222.917 59.3942 222.353 59.1111C221.975 58.9856 221.583 58.9113 221.187 58.8901C220.842 58.8792 220.517 58.8768 220.211 58.8829C219.804 58.8854 219.402 58.974 219.031 59.1431C218.697 59.2993 218.397 59.5231 218.151 59.8009C217.906 60.0767 217.716 60.398 217.59 60.7473C217.458 61.1159 217.396 61.507 217.408 61.8994C217.419 62.4065 217.594 62.8959 217.906 63.2913C218.252 63.732 218.66 64.1186 219.116 64.4386C219.631 64.8057 220.173 65.1304 220.739 65.4095C221.331 65.7073 221.914 65.9955 222.488 66.2742C223.27 66.6552 224.023 67.0591 224.747 67.4857C225.442 67.8921 226.089 68.3796 226.674 68.9382C227.232 69.4727 227.691 70.1048 228.029 70.8042C228.386 71.5768 228.572 72.4195 228.573 73.2729C228.598 74.3633 228.404 75.307 227.991 76.1038C227.584 76.8953 226.994 77.5745 226.272 78.083C225.473 78.6353 224.582 79.0366 223.643 79.2677C222.562 79.5417 221.453 79.6889 220.338 79.7062C219.698 79.7207 219.067 79.7061 218.444 79.6625C217.82 79.6188 217.228 79.554 216.667 79.4681C216.105 79.3839 215.586 79.2817 215.11 79.1616C214.686 79.0569 214.268 78.9271 213.859 78.7728L213.346 73.2243L213.576 73.219C214.052 73.9294 214.543 74.6262 215.051 75.3094C215.529 75.9604 216.062 76.5684 216.643 77.1267C217.163 77.6325 217.753 78.059 218.393 78.3931C218.997 78.708 219.669 78.8633 220.348 78.845L220.749 78.8359C221.263 78.8369 221.77 78.7208 222.234 78.496C222.628 78.2998 222.978 78.0236 223.264 77.6844C223.528 77.3648 223.729 76.9959 223.855 76.5982C223.977 76.2231 224.036 75.8299 224.03 75.4347C224.023 74.9317 223.869 74.4421 223.588 74.0276C223.279 73.5775 222.902 73.1797 222.472 72.8488C221.969 72.4597 221.435 72.1134 220.877 71.8135C220.276 71.487 219.656 71.1558 219.017 70.82C218.291 70.4376 217.569 70.0356 216.851 69.614C216.159 69.21 215.509 68.7354 214.911 68.1975C214.349 67.6929 213.872 67.0973 213.5 66.4348C213.125 65.7405 212.927 64.9616 212.925 64.1697Z" fill="white"/>
</g>
<defs>
<clipPath id="clip0">
<rect width="224.915" height="22.0505" fill="white" transform="translate(4.74243 62.8827) rotate(-1.3)"/>
</clipPath>
</defs>
</svg>
