<svg width="24" height="24" viewBox="0 0 24 24" fill="none" xmlns="http://www.w3.org/2000/svg">
<path d="M21.6 5.05263H18V2.52632C18 1.12421 16.932 0 15.6 0H8.4C7.068 0 6 1.12421 6 2.52632V5.05263H2.4C1.068 5.05263 0 6.17684 0 7.57895V21.4737C0 22.8758 1.068 24 2.4 24H21.6C22.932 24 24 22.8758 24 21.4737V7.57895C24 6.17684 22.932 5.05263 21.6 5.05263ZM8.4 2.52632H15.6V5.05263H8.4V2.52632ZM21.6 21.4737H2.4V18.9474H21.6V21.4737ZM21.6 15.1579H2.4V7.57895H6V10.1053H8.4V7.57895H15.6V10.1053H18V7.57895H21.6V15.1579Z" fill="#0625BA"/>
</svg>
