<svg width="20" height="22" viewBox="0 0 20 22" fill="none" xmlns="http://www.w3.org/2000/svg">
<path d="M13 16.9989V17.7488C13 18.5445 12.684 19.3076 12.1214 19.8702C11.5587 20.4328 10.7957 20.7488 10 20.7488C9.20438 20.7488 8.44132 20.4328 7.87871 19.8702C7.31611 19.3076 7.00003 18.5445 7.00003 17.7488V16.9989M18.0475 15.4729C16.8437 13.9996 15.9939 13.2496 15.9939 9.18791C15.9939 5.46838 14.0945 4.14323 12.5312 3.49963C12.3236 3.41432 12.1281 3.21838 12.0648 3.0051C11.7906 2.07182 11.0219 1.24963 9.99998 1.24963C8.97811 1.24963 8.20889 2.07229 7.93748 3.00604C7.8742 3.22166 7.67873 3.41432 7.47108 3.49963C5.90592 4.14416 4.00842 5.46463 4.00842 9.18791C4.00608 13.2496 3.15624 13.9996 1.95249 15.4729C1.45374 16.0832 1.89061 16.9996 2.76296 16.9996H17.2417C18.1094 16.9996 18.5434 16.0804 18.0475 15.4729Z" stroke="#0625BA" stroke-width="1.5" stroke-linecap="round" stroke-linejoin="round"/>
</svg>
