<svg width="24" height="24" viewBox="0 0 24 24" fill="none" xmlns="http://www.w3.org/2000/svg">
<path d="M21.4083 19.7545L16.9978 15.344C18.0597 13.9304 18.6329 12.2098 18.631 10.4418C18.631 5.92589 14.9569 2.25183 10.441 2.25183C5.92504 2.25183 2.25098 5.92589 2.25098 10.4418C2.25098 14.9578 5.92504 18.6318 10.441 18.6318C12.2089 18.6338 13.9296 18.0605 15.3432 16.9987L19.7536 21.4092C19.9769 21.6087 20.2681 21.7153 20.5674 21.7069C20.8667 21.6985 21.1515 21.5759 21.3633 21.3641C21.575 21.1524 21.6977 20.8676 21.706 20.5683C21.7144 20.2689 21.6079 19.9777 21.4083 19.7545ZM4.59098 10.4418C4.59098 9.28481 4.93407 8.15377 5.57688 7.19174C6.21968 6.22972 7.13333 5.47991 8.20228 5.03713C9.27122 4.59436 10.4475 4.47851 11.5823 4.70424C12.717 4.92996 13.7594 5.48712 14.5775 6.30525C15.3957 7.12339 15.9528 8.16576 16.1786 9.30055C16.4043 10.4353 16.2884 11.6116 15.8457 12.6805C15.4029 13.7495 14.6531 14.6631 13.6911 15.3059C12.729 15.9487 11.598 16.2918 10.441 16.2918C8.89003 16.29 7.40314 15.673 6.30646 14.5763C5.20977 13.4797 4.59284 11.9928 4.59098 10.4418Z" fill="#FAFAFA"/>
</svg>
