<svg width="24" height="24" viewBox="0 0 24 24" fill="none" xmlns="http://www.w3.org/2000/svg">
<path d="M12.0003 0C7.16249 0 3.22705 3.93548 3.22705 8.77322V9.72488H5.01144V8.77322C5.01144 4.91953 8.14663 1.78439 12.0003 1.78439C15.8539 1.78439 18.9891 4.91958 18.9891 8.77322V9.72488H20.7735V8.77322C20.7735 3.93548 16.8378 0 12.0003 0Z" fill="#0625BA"/>
<path d="M5.95623 8.64001H3.75549C2.2141 8.64001 0.959961 9.89416 0.959961 11.4355V15.5099C0.959961 17.0513 2.2141 18.3054 3.75549 18.3054H5.95623C6.44903 18.3054 6.8484 17.906 6.8484 17.4132V9.53223C6.84845 9.03944 6.44903 8.64001 5.95623 8.64001ZM5.06406 16.5211H3.75549C3.18863 16.5211 2.74435 16.0771 2.74435 15.5099V11.4356C2.74435 10.8687 3.18868 10.4245 3.75549 10.4245H5.06406V16.5211Z" fill="#0625BA"/>
<path opacity="0.3" d="M5.06406 16.5211H3.75549C3.18863 16.5211 2.74435 16.0771 2.74435 15.5099V11.4356C2.74435 10.8687 3.18868 10.4245 3.75549 10.4245H5.06406V16.5211Z" fill="#0625BA"/>
<path d="M20.8326 8.83276H18.6322C18.1394 8.83276 17.74 9.23219 17.74 9.72494V17.606C17.74 18.0988 18.1394 18.4982 18.6322 18.4982H20.8329C22.3743 18.4982 23.6284 17.244 23.6281 15.7026V11.6283C23.6281 10.0869 22.3743 8.83276 20.8326 8.83276ZM21.8438 15.7027C21.8438 16.2698 21.3998 16.7138 20.8326 16.7138H19.5244V10.6172H20.8326C21.3998 10.6172 21.8438 11.0615 21.8438 11.6283V15.7027Z" fill="#0625BA"/>
<path opacity="0.3" d="M21.8435 15.7027C21.8435 16.2698 21.3995 16.7138 20.8324 16.7138H19.5241V10.6172H20.8324C21.3995 10.6172 21.8435 11.0615 21.8435 11.6283V15.7027Z" fill="#0625BA"/>
<path d="M19.6138 17.606C19.6138 18.8524 18.5997 19.8662 17.3533 19.8662H14.9741V21.6506H17.3533C19.5835 21.6506 21.3979 19.8361 21.3982 17.606H19.6138V17.606Z" fill="#0625BA"/>
<path d="M15.8362 20.7381C15.8252 18.9603 14.3751 17.517 12.5946 17.517C10.8075 17.517 9.35327 18.9709 9.35327 20.7583C9.35327 22.5457 10.8209 23.9999 12.6246 23.9999C13.5153 23.9999 14.3733 23.6368 14.9782 23.0034C15.5653 22.3892 15.8692 21.5856 15.8362 20.7381ZM13.6887 21.77C13.4184 22.0529 13.0306 22.2153 12.6249 22.2153C11.8189 22.2153 11.1379 21.5479 11.1379 20.758C11.1379 19.9548 11.7913 19.301 12.5949 19.301C13.3985 19.301 14.0522 19.955 14.0524 20.7577C14.0524 20.7714 14.0527 20.7847 14.0533 20.7984C14.0696 21.1615 13.9403 21.5068 13.6887 21.77Z" fill="#0625BA"/>
<path opacity="0.3" d="M13.6887 21.77C13.4184 22.0529 13.0306 22.2153 12.6249 22.2153C11.8189 22.2153 11.1379 21.5479 11.1379 20.758C11.1379 19.9548 11.7913 19.301 12.5949 19.301C13.3985 19.301 14.0522 19.955 14.0524 20.7577C14.0524 20.7714 14.0527 20.7847 14.0533 20.7984C14.0696 21.1615 13.9403 21.5068 13.6887 21.77Z" fill="#0625BA"/>
</svg>
