<svg width="25" height="24" viewBox="0 0 25 24" fill="none" xmlns="http://www.w3.org/2000/svg">
<path d="M18.42 11.6199C18.3724 11.4972 18.301 11.385 18.21 11.2899L13.21 6.28994C13.1168 6.1967 13.0061 6.12274 12.8843 6.07228C12.7624 6.02182 12.6319 5.99585 12.5 5.99585C12.2337 5.99585 11.9783 6.10164 11.79 6.28994C11.6968 6.38318 11.6228 6.49387 11.5723 6.61569C11.5219 6.73751 11.4959 6.86808 11.4959 6.99994C11.4959 7.26624 11.6017 7.52164 11.79 7.70994L15.09 10.9999H7.5C7.23478 10.9999 6.98043 11.1053 6.79289 11.2928C6.60536 11.4804 6.5 11.7347 6.5 11.9999C6.5 12.2652 6.60536 12.5195 6.79289 12.707C6.98043 12.8946 7.23478 12.9999 7.5 12.9999H15.09L11.79 16.2899C11.6963 16.3829 11.6219 16.4935 11.5711 16.6154C11.5203 16.7372 11.4942 16.8679 11.4942 16.9999C11.4942 17.132 11.5203 17.2627 11.5711 17.3845C11.6219 17.5064 11.6963 17.617 11.79 17.7099C11.883 17.8037 11.9936 17.8781 12.1154 17.9288C12.2373 17.9796 12.368 18.0057 12.5 18.0057C12.632 18.0057 12.7627 17.9796 12.8846 17.9288C13.0064 17.8781 13.117 17.8037 13.21 17.7099L18.21 12.7099C18.301 12.6148 18.3724 12.5027 18.42 12.3799C18.52 12.1365 18.52 11.8634 18.42 11.6199Z" fill="#FAFAFA"/>
</svg>
