<svg width="8" height="8" viewBox="0 0 8 8" fill="none" xmlns="http://www.w3.org/2000/svg">
<path d="M4.33301 1C2.67634 1 1.33301 2.34333 1.33301 4H0.333008L1.66634 5.33L2.99967 4H1.99967C1.99967 2.71 3.04301 1.66667 4.33301 1.66667C5.62301 1.66667 6.66634 2.71 6.66634 4C6.66634 5.29 5.62301 6.33333 4.33301 6.33333C3.68967 6.33333 3.10634 6.07 2.68634 5.64667L2.21301 6.12C2.75634 6.66333 3.50301 7 4.33301 7C5.98968 7 7.33301 5.65667 7.33301 4C7.33301 2.34333 5.98968 1 4.33301 1ZM3.99967 2.66667V4.33333L5.41634 5.17333L5.67301 4.74667L4.49967 4.05V2.66667H3.99967Z" fill="white"/>
</svg>
