<svg width="15" height="16" viewBox="0 0 15 16" fill="none" xmlns="http://www.w3.org/2000/svg">
<path d="M14.1489 7.78988C14.1489 7.56819 14.0958 7.36017 14.007 7.17109C13.4144 5.2645 10.6402 5.40377 6.69395 5.31078C6.03419 5.29535 6.41158 4.51835 6.64313 2.81273C6.79382 1.70342 6.07661 0 4.8711 0C2.88342 0 4.79554 1.5637 3.03809 5.43066C2.09904 7.49679 0 6.33944 0 8.41483V13.139C0 13.9469 0.0795426 14.7234 1.21877 14.8512C2.32309 14.9751 2.07474 15.76 3.6678 15.76H11.6415C12.4537 15.76 13.1144 15.1007 13.1144 14.2906C13.1144 13.9548 12.9964 13.6489 12.8059 13.4012C13.2567 13.1496 13.566 12.6745 13.566 12.1236C13.566 11.7886 13.4484 11.4827 13.2584 11.2355C13.7105 10.9843 14.0207 10.5087 14.0207 9.95694C14.0207 9.55632 13.8581 9.19316 13.596 8.9274C13.9306 8.65811 14.1489 8.25088 14.1489 7.78988V7.78988Z" fill="#FFDB5E"/>
<path d="M8.87436 9.25868H12.6765C13.1935 9.25868 13.6788 8.98279 13.943 8.53898C14.0517 8.35608 13.9912 8.11941 13.8073 8.01055C13.624 7.90169 13.3867 7.96295 13.2775 8.14585C13.1524 8.35696 12.9213 8.48741 12.6761 8.48741H8.78288C8.3971 8.48741 8.08335 8.1745 8.08335 7.78974C8.08335 7.40499 8.3971 7.09207 8.78288 7.09207H11.3844C11.5978 7.09207 11.771 6.91931 11.771 6.70644C11.771 6.49357 11.5978 6.3208 11.3844 6.3208H8.78244C7.97022 6.3208 7.30957 6.97969 7.30957 7.78974C7.30957 8.24149 7.51948 8.64123 7.84207 8.91095C7.57029 9.17759 7.40105 9.5478 7.40105 9.95679C7.40105 10.4099 7.61228 10.8109 7.93663 11.0802C7.66663 11.3464 7.49915 11.7153 7.49915 12.1234C7.49915 12.617 7.74617 13.0525 8.12179 13.3191C7.89023 13.5787 7.74529 13.9167 7.74529 14.2905C7.74529 15.1005 8.40594 15.7594 9.21816 15.7594H11.6416C12.1586 15.7594 12.6442 15.4839 12.9085 15.0401C13.0177 14.8572 12.9571 14.6206 12.7737 14.5117C12.5899 14.4037 12.3526 14.4632 12.2439 14.6461C12.1179 14.8572 11.8868 14.9881 11.6416 14.9881H9.21816C8.83238 14.9881 8.51862 14.6752 8.51862 14.2905C8.51862 13.9057 8.83238 13.5928 9.21816 13.5928H12.0932C12.6102 13.5928 13.0963 13.3169 13.3601 12.8731C13.4693 12.6897 13.4087 12.4531 13.2254 12.3447C13.0402 12.234 12.8038 12.2962 12.6955 12.4791C12.5678 12.6937 12.3424 12.8215 12.0932 12.8215H8.97202C8.58623 12.8215 8.27248 12.5082 8.27248 12.1234C8.27248 11.7387 8.58623 11.4257 8.97202 11.4257H12.5475C13.0645 11.4257 13.5502 11.1503 13.8144 10.7065C13.9236 10.5236 13.863 10.2869 13.6796 10.178C13.4954 10.0696 13.2585 10.1296 13.1498 10.3125C13.0221 10.5267 12.7967 10.6545 12.5475 10.6545H8.87436C8.48857 10.6545 8.17482 10.3415 8.17482 9.95679C8.17482 9.57204 8.48813 9.25868 8.87436 9.25868V9.25868Z" fill="#EE9547"/>
</svg>
