<svg width="46" height="48" viewBox="0 0 46 48" fill="none" xmlns="http://www.w3.org/2000/svg">
<path d="M22.0804 0C12.4048 0 4.53394 7.87097 4.53394 17.5464V19.4498H8.10272V17.5464C8.10272 9.83906 14.3731 3.56878 22.0804 3.56878C29.7877 3.56878 36.058 9.83916 36.058 17.5464V19.4498H39.6268V17.5464C39.6268 7.87097 31.7554 0 22.0804 0Z" fill="#0625BA"/>
<path d="M9.99254 17.28H5.59107C2.50828 17.28 0 19.7883 0 22.8711V31.0198C0 34.1025 2.50828 36.6108 5.59107 36.6108H9.99254C10.9781 36.6108 11.7769 35.812 11.7769 34.8265V19.0645C11.777 18.0789 10.9781 17.28 9.99254 17.28ZM8.20819 33.0421H5.59107C4.45735 33.0421 3.56878 32.1541 3.56878 31.0198V22.8712C3.56878 21.7375 4.45744 20.8489 5.59107 20.8489H8.20819V33.0421Z" fill="#0625BA"/>
<path opacity="0.3" d="M8.20819 33.0421H5.59107C4.45735 33.0421 3.56878 32.1541 3.56878 31.0198V22.8712C3.56878 21.7375 4.45744 20.8489 5.59107 20.8489H8.20819V33.0421Z" fill="#0625BA"/>
<path d="M39.7451 17.6654H35.3442C34.3586 17.6654 33.5598 18.4642 33.5598 19.4497V35.2118C33.5598 36.1974 34.3587 36.9962 35.3442 36.9962H39.7456C42.8284 36.9962 45.3367 34.4879 45.3361 31.4051V23.2565C45.3361 20.1737 42.8285 17.6654 39.7451 17.6654ZM41.7673 31.4052C41.7673 32.5395 40.8793 33.4275 39.7451 33.4275H37.1286V21.2342H39.7451C40.8793 21.2342 41.7673 22.1228 41.7673 23.2565V31.4052Z" fill="#0625BA"/>
<path opacity="0.3" d="M41.7672 31.4054C41.7672 32.5397 40.8792 33.4277 39.7449 33.4277H37.1284V21.2344H39.7449C40.8792 21.2344 41.7672 22.123 41.7672 23.2567V31.4054Z" fill="#0625BA"/>
<path d="M37.3074 35.2119C37.3074 37.7047 35.2791 39.7324 32.7864 39.7324H28.028V43.3011H32.7864C37.2467 43.3011 40.8756 39.6723 40.8762 35.2119H37.3074V35.2119Z" fill="#0625BA"/>
<path d="M29.7524 41.4762C29.7304 37.9206 26.8302 35.034 23.2691 35.034C19.695 35.034 16.7865 37.9419 16.7865 41.5167C16.7865 45.0915 19.7217 47.9999 23.3292 47.9999C25.1107 47.9999 26.8267 47.2736 28.0364 46.0068C29.2105 44.7785 29.8184 43.1713 29.7524 41.4762ZM25.4573 43.5401C24.9167 44.1058 24.1411 44.4306 23.3298 44.4306C21.7178 44.4306 20.3558 43.0958 20.3558 41.5161C20.3558 39.9096 21.6626 38.6021 23.2698 38.6021C24.8769 38.6021 26.1843 39.9101 26.1848 41.5154C26.1848 41.5428 26.1854 41.5695 26.1866 41.5969C26.2192 42.3232 25.9606 43.0137 25.4573 43.5401Z" fill="#0625BA"/>
<path opacity="0.3" d="M25.4573 43.5401C24.9167 44.1058 24.1411 44.4306 23.3298 44.4306C21.7178 44.4306 20.3558 43.0958 20.3558 41.5161C20.3558 39.9096 21.6626 38.6021 23.2698 38.6021C24.8769 38.6021 26.1843 39.9101 26.1848 41.5154C26.1848 41.5428 26.1854 41.5695 26.1866 41.5969C26.2192 42.3232 25.9606 43.0137 25.4573 43.5401Z" fill="#0625BA"/>
</svg>
