<svg width="48" height="48" viewBox="0 0 48 48" fill="none" xmlns="http://www.w3.org/2000/svg">
<path fill-rule="evenodd" clip-rule="evenodd" d="M19.75 38.1087C19.7547 37.006 20.1973 35.9492 20.9825 35.1663C21.3776 34.7723 21.8476 34.4596 22.3656 34.2462C22.8835 34.0328 23.439 33.923 24 33.923C24.5611 33.923 25.1166 34.0328 25.6345 34.2462C26.1524 34.4596 26.6224 34.7723 27.0175 35.1663C27.8027 35.9492 28.2453 37.006 28.25 38.1087C28.2481 39.0769 27.9084 40.0147 27.2882 40.7638C26.668 41.5129 25.8053 42.0272 24.846 42.22C23.8867 42.4127 22.8895 42.272 22.023 41.8216C21.1564 41.3712 20.4737 40.6388 20.09 39.748C19.8667 39.2297 19.7511 38.6722 19.75 38.1087ZM17.6204 6.1688C19.5602 5.06195 21.7605 4.47995 24 4.48137C27.3815 4.48137 30.6245 5.80995 33.0156 8.17483C35.4067 10.5397 36.75 13.7472 36.75 17.0916C36.75 20.4361 35.4067 23.6435 33.0156 26.0084C30.6245 28.3733 27.3815 29.7019 24 29.7019C22.8728 29.7019 21.7918 29.259 20.9948 28.4707C20.1978 27.6824 19.75 26.6133 19.75 25.4985C19.75 24.3836 20.1978 23.3145 20.9948 22.5262C21.7918 21.7379 22.8728 21.295 24 21.295C24.7453 21.2921 25.4767 21.0954 26.1209 20.7246C26.765 20.3538 27.2993 19.822 27.67 19.1825C28.0407 18.543 28.2349 17.8184 28.2331 17.0812C28.2312 16.3441 28.0334 15.6204 27.6595 14.9827C27.2855 14.3451 26.7486 13.8159 26.1026 13.4483C25.4566 13.0806 24.7242 12.8875 23.9789 12.8882C23.2336 12.889 22.5016 13.0835 21.8563 13.4524C21.211 13.8213 20.6752 14.3515 20.3025 14.9899C19.7144 15.9048 18.7917 16.5597 17.727 16.8176C16.6623 17.0755 15.538 16.9166 14.589 16.3741C13.6399 15.8315 12.9396 14.9473 12.6342 13.906C12.3287 12.8648 12.4419 11.7471 12.95 10.7865C14.0697 8.86831 15.6806 7.27565 17.6204 6.1688Z" fill="#0625BA"/>
</svg>
